<svg xmlns="http://www.w3.org/2000/svg" viewBox="0 0 22.77 22.77"><defs><style>.cls-1{fill:#414042;}</style></defs><g id="레이어_2" data-name="레이어 2"><g id="_迹_1" data-name="卵迹_1"><path class="cls-1" d="M17.86,13.41l-.07,0a.49.49,0,0,0,0,.12.32.32,0,0,0,.18.2l.26.08.07,0v0h0v0l0-.13,0-.07v0s0,0,0,0h0l-.14,0-.13,0s0,0,0,0v0l0-.07,0-.12v0h0l.06,0,.26.07.54.16,1.06.31L20,14v0h0l-.06,0h-.06l0,.06,0,.13,0,.07h.05a.38.38,0,0,0,.26,0,.33.33,0,0,0,.21-.17l.07-.26a.39.39,0,0,0,0-.26.34.34,0,0,0-.19-.2l-.14,0-.13,0-.26-.08-.52-.15-.08,0L18.62,13l-.25-.07a.44.44,0,0,0-.25,0,.41.41,0,0,0-.22.17.35.35,0,0,0,0,.06A.77.77,0,0,1,17.86,13.41Z"/><polygon class="cls-1" points="17.83 14.19 18.6 14.55 18.37 15.04 18.65 15.18 18.88 14.69 19.65 15.05 19.39 15.61 19.67 15.74 19.93 15.18 20.07 14.9 17.68 13.78 17.55 14.06 17.29 14.62 17.57 14.75 17.83 14.19"/><path class="cls-1" d="M18.9,16.93l-1.36-1,1.68.52.17-.25-1-.73c0,.12,0,.2-.12.22s-.13-.09-.13-.17a.2.2,0,0,1,.08-.17l-1-.66-.18.25,1.37,1-1.68-.52-.18.26,2.16,1.51Z"/><polygon class="cls-1" points="17.47 18.04 17.69 18.26 18.34 17.6 18.13 17.38 17.91 17.6 16.27 15.95 16.05 16.17 17.69 17.82 17.47 18.04"/><path class="cls-1" d="M15,17l0,0,.1.09.23.22c.14.12.34.33.48.45a.3.3,0,0,0-.1.39.57.57,0,0,0,.08.13h0l0,0,.24.34.18.26a.35.35,0,0,0,.2.16.34.34,0,0,0,.26,0l.21-.16.16-.11.08-.05,0,0,0,0h0l0,0-.13-.19-.3-.42-.52-.74-.46-.65,0-.06v0s0,0,0,0h0l0,0-.06.05-.07.05,0,0v0h0s0,0,0,0c.13.18.34.47.46.65l.1.14,0,.07s.06.07,0,0h0l0,0a.19.19,0,0,0-.07-.06l-.47-.46-.23-.21,0,0a0,0,0,0,0,0,0h0l-.06,0-.12.08L15,17s0,0,0,0Zm1.27.86.5.71-.25.18L16,18.05Z"/><path class="cls-1" d="M15.85,18.33Z"/><path class="cls-1" d="M14.11,17.8c.17.34.33.69.5,1l.27.55a1.66,1.66,0,0,0,.13.27.29.29,0,0,0,.19.13.42.42,0,0,0,.27-.05l.25-.13a.28.28,0,0,0,.13-.24.55.55,0,0,0-.09-.28l-.5-1L15,17.49l-.12-.25,0-.11h-.06l0,0-.12.06h-.06l0,.06.12.24.27.55.07.15v0a0,0,0,0,1,0,0h0l0,0-.11.05,0,0h0s0,0,0,0v0l-.27-.55-.13-.26-.06-.13,0-.07h0l0,0h0l-.1,0-.07,0,0,0s0,0,0,0Zm1.06.78.37.76-.27.14-.38-.77Z"/><polygon class="cls-1" points="13.71 17.92 14.39 20.14 14.69 20.05 13.91 17.53 13.02 17.81 13.11 18.11 13.71 17.92"/><path class="cls-1" d="M11.27,20.16a.44.44,0,0,0,.08.35c.12.13.25.1.4.1h.45s0,0,0,0v-.37c0-.15,0-.3,0-.46,0-.56,0-1.13,0-1.71V18s0,0,0,0h-.3s0,0,0,0h0v1h-.31a.34.34,0,0,0-.28.19.68.68,0,0,0,0,.2v.79Zm.6-.87,0,1h-.31l0-1Z"/><path class="cls-1" d="M10.06,20.49l.2,0,.2,0a.33.33,0,0,0,.3-.18,2.36,2.36,0,0,0,.08-.45c.07-.55.15-1.09.22-1.63a.32.32,0,0,0-.2-.34,1.2,1.2,0,0,0-.2,0l-.2,0a.32.32,0,0,0-.31.22c0,.05-.05.36-.06.41l-.22,1.63A.32.32,0,0,0,10.06,20.49Zm.39-2.29.3,0-.27,2-.3,0Z"/><path class="cls-1" d="M9,19.14l.16,0,.07,0H9.3s0,0,0,0h0c-.05.16-.1.3-.14.46l-.05.16,0,.07h0s0,0,0,0H9l-.23-.07h0v0l0-.07,0-.16h0l-.11,0-.1,0h0v0l0,.12c0,.08,0,.16,0,.18a.33.33,0,0,0,.13.29,1.21,1.21,0,0,0,.32.11.37.37,0,0,0,.29,0A.28.28,0,0,0,9.38,20l.12-.4.09-.27a.68.68,0,0,0,0-.15A.32.32,0,0,0,9.48,19a1.72,1.72,0,0,0-.29-.11l-.09,0a0,0,0,0,1,0,0v-.06l.05-.15L9.36,18v0h0l.09,0,.08,0h.07s0,0,0,0l-.11.33-.06.19,0,.1v0h0l.15.05.08,0h0v0c.07-.2.13-.41.19-.61a.33.33,0,0,0-.06-.3.26.26,0,0,0-.13-.08l-.2-.06a.34.34,0,0,0-.52.23c-.06.22-.13.44-.19.65l0,.1a.61.61,0,0,0,0,.22A.35.35,0,0,0,9,19.14Z"/><path class="cls-1" d="M8,19.58l-.27-.14L8,19v0s0,0,0,0l.78-1.57-.24-.12a.35.35,0,0,1-.1.26.11.11,0,0,1-.08,0l-.18.37c.05,0,.08.09.08.17a.22.22,0,0,1-.23.25l0,0-.51,1-.28-.14L7,19.45l.83.41Z"/><path class="cls-1" d="M7.08,16.43s-.06,0-.06,0a.31.31,0,0,0-.14.07l.11.1-.24.26a1.22,1.22,0,0,1,0,.27.44.44,0,0,0,0,.2l.48-.52a.32.32,0,0,0,0-.39l-.07-.08v.06A.14.14,0,0,1,7.08,16.43Z"/><path class="cls-1" d="M6.52,17.13h0v0l-.88,1-.23-.2,1-1.13a2.08,2.08,0,0,0,0-.43l-.11.13L5.17,17.65a.32.32,0,0,0,0,.38,1,1,0,0,0,.15.14l.15.14a.3.3,0,0,0,.35,0c.07,0,.26-.27.31-.32l.42-.46A1,1,0,0,0,6.52,17.13Z"/><path class="cls-1" d="M6.22,15.79l-.67.53-.34-.42L5,16.09l.34.43L4.64,17l-.39-.48L4,16.75l.38.49.2.24,1.72-1.36a1,1,0,0,1-.06-.35Z"/><path class="cls-1" d="M4.46,14.89,4.3,15l.27.47-.75.42-.3-.54-.27.15.3.54.15.27L6,15l-.15-.27-.27.15-.74.41-.23-.4A.16.16,0,0,1,4.46,14.89Z"/><path class="cls-1" d="M4.51,14.46l1-.41-.11-.27-.94.39A1.84,1.84,0,0,1,4.51,14.46Z"/><path class="cls-1" d="M4.07,14.37a.14.14,0,0,1,0-.06L3,14.78l.11.27,1.08-.44C4.07,14.57,4,14.52,4.07,14.37Z"/><path class="cls-1" d="M3.06,14.21l.14,0,.13,0,.27-.08.51-.14.09,0,.47-.13.25-.08a.37.37,0,0,0,.23-.1.29.29,0,0,0,.09-.25,2,2,0,0,0-.06-.26.55.55,0,0,0-.12-.24.3.3,0,0,0-.26-.07l-.26.07-.07,0h0v.05l0,.13,0,.07v0h0l.14,0,.13,0s0,0,0,0v0l0,.06,0,.12v0s0,0,0,0l-.06,0-.26.07-.55.15L3,13.91l-.07-.27v0H3l.06,0h.05l0-.06,0-.13,0-.07v0h0a.53.53,0,0,0-.24.11.31.31,0,0,0-.08.26,2.5,2.5,0,0,0,.07.26.39.39,0,0,0,.12.24A.3.3,0,0,0,3.06,14.21Z"/><path class="cls-1" d="M2.42,12.88,5,12.59l0-.31L5,11.74a.32.32,0,0,1-.13.07s-.09-.11-.09-.12h-.1l.07.62-.85.1-.06-.54-.31,0,.06.54-.84.1-.07-.62-.31,0,.07.62Z"/><path class="cls-1" d="M4.87,5.93,5,5.75l.62.52-.11.13a.53.53,0,0,0-.11.14.28.28,0,0,0,.07.31,2.75,2.75,0,0,0,.26.22l.14.12a.2.2,0,0,1,0-.09c0-.14.06-.17.13-.17l-.33-.28.13-.15a.67.67,0,0,0,.09-.14.25.25,0,0,0,0-.17A.25.25,0,0,0,5.8,6l-.56-.46a.26.26,0,0,0-.14-.09.31.31,0,0,0-.19,0,.58.58,0,0,0-.12.1l-.13.16a.3.3,0,0,0-.08.16.33.33,0,0,0,0,.17l.06.08a.66.66,0,0,1,.13-.3Z"/><path class="cls-1" d="M6,7.24l.06,0,.21.17.17-.2.18-.21.17-.21-.21-.17-.17.21-.17.2,0,0v.18C6.1,7.22,6,7.25,6,7.24Z"/><path class="cls-1" d="M5.06,6.13,5,6.05,5,6.17Z"/><path class="cls-1" d="M7.07,6.2l-.16.14h0a.71.71,0,0,0-.1.14,2.2,2.2,0,0,1,0-.36l-.65-1,.64.71a1.41,1.41,0,0,1,0-.35L6.34,5a1.06,1.06,0,0,0-.21.11.24.24,0,0,1-.19,0l.73,1.12-1-1.1.15-.14s0-.07,0-.11l0-.06,0,0a.44.44,0,0,0,.11-.09.23.23,0,0,0-.14,0,.53.53,0,0,0-.14.11,1.42,1.42,0,0,0-.13.12.26.26,0,0,0,0,.3,2.43,2.43,0,0,0,.26.3l.38.42a.25.25,0,0,1,.19,0,.35.35,0,0,0,.06.27l.33.37A.27.27,0,0,0,7,6.62a.74.74,0,0,0,.13-.12l.13-.11a.27.27,0,0,0,0-.34V6l-.22.17Z"/><path class="cls-1" d="M6.81,4.39,6.67,4.2A.45.45,0,0,0,6.81,4.39Z"/><path class="cls-1" d="M7.05,5,7,4.93a.22.22,0,0,1,0,.08L7,5.1Z"/><path class="cls-1" d="M7.47,5.79l.2.28.22-.15-.36-.51,0,0A.76.76,0,0,1,7.47,5.79Z"/><path class="cls-1" d="M7,4c.41-.07.16.44.34.57a.23.23,0,0,0,.2,0,.27.27,0,0,0-.13.26h0c.23.14.33.29.22.46l.2.35a.27.27,0,0,0,.36.11l.17-.09c0-.16,0-.32.19-.37l0,0-.38-.7a.28.28,0,0,0-.37-.11A.26.26,0,0,0,7.92,4l-.21-.39a.26.26,0,0,0-.36-.1l-.24.13A.27.27,0,0,0,7,4l0,0A.34.34,0,0,1,7,4ZM8,4.65l0,.09,0,0c.23,0,.21.17.15.31l.17.32-.24.13L8,5.23l-.07,0a.15.15,0,0,0,0-.11V5.08l-.16-.3Zm-.48-.87.22.39-.24.13-.21-.39Z"/><path class="cls-1" d="M10.49,4c-.15.1-.12.26-.11.41L10.82,4l.19.12c0-.1,0-.2.08-.3s.24.08.24.27c-.05,0-.1.11-.16.13l.45.28-.36-.87L12,3l-.93.07-.36-.87-.22.9a.35.35,0,0,1,.06.09C10.52,3.48,10.51,3.73,10.49,4Z"/><path class="cls-1" d="M10.34,3.16l-.81.06.69.43a.56.56,0,0,0,.11-.38A.37.37,0,0,1,10.34,3.16Z"/><path class="cls-1" d="M10.21,4.18l-.07.28h0A.56.56,0,0,0,10.21,4.18Z"/><path class="cls-1" d="M13.25,4.66a.12.12,0,0,1,.15.06l.42-1.61.26.07.07-.26-.41-.11c0,.1-.13.12-.29.09l-.11-.09,0,.16.26.07-.51,2,.18,0,0,0C13.15,4.87,13.12,4.68,13.25,4.66Z"/><path class="cls-1" d="M14.7,4.2l-.1.25-.29.68L14.06,5l.29-.69.1-.25.4-.93-.25-.11-.11.25c-.16.38-.31.76-.47,1.13,0,.1-.08.2-.13.3a2.15,2.15,0,0,0-.1.27.26.26,0,0,0,.14.26.59.59,0,0,0,.14.06l.14.06a.27.27,0,0,0,.27,0,.64.64,0,0,0,.15-.28l.24-.56c.16-.38.31-.76.47-1.13l-.24-.11Z"/><path class="cls-1" d="M14.76,5.29l-.11.19,0,.06v0h0l0,0,.07,0,.06,0,0,0h0s0,0,0,0L15,5.45A.26.26,0,0,1,14.76,5.29Z"/><path class="cls-1" d="M15.49,4.62,15.88,4l.23.14-.34.57c.07.06.12.16.2.19l0,0v0c0-.18-.07-.37.13-.47,0,0,.08,0,.1.08l.08-.12a.33.33,0,0,0,.06-.22.28.28,0,0,0-.12-.19l-.19-.12-.15-.08-.07-.05,0,0h0l0,0-.1.17-.23.39L15,4.89,15,5c.15,0,.09.23.09.38l.17-.29L15.29,5l0-.06s0-.07,0,0h0a.06.06,0,0,1,0,0s0,0,0,.07-.15.39-.2.54-.06.18-.09.25v0s0,0,0,0h0l.05,0,.11.06.05,0h0v0s0-.08,0-.11a2.67,2.67,0,0,0,.09-.26c0-.16.15-.38.2-.54h0l0-.3Z"/><path class="cls-1" d="M16.19,5.59l0-.06,0,0L16,6.17a.31.31,0,0,1,0,.17.15.15,0,0,1-.06.2l.13.11.53-1.32.88-.49-.16-.14a1,1,0,0,1-.15,0l-.66.44L17,4.63a.47.47,0,0,1,0-.14h0a.79.79,0,0,1,0-.09l-.09-.07-.81,1,0,0C16.21,5.43,16.22,5.51,16.19,5.59Z"/><path class="cls-1" d="M15.52,6l0,.06,0,0Z"/><path class="cls-1" d="M15.85,6h0l0,0Z"/><polygon class="cls-1" points="16.51 6.69 17.06 6.2 17.38 6.54 17.58 6.36 17.27 6.01 17.82 5.51 18.18 5.91 18.38 5.73 18.02 5.33 17.83 5.13 16.13 6.67 16.31 6.88 16.68 7.28 16.88 7.09 16.51 6.69"/><path class="cls-1" d="M19.14,6.82,19,6.59l-.65.2.42-.53L18.61,6l-.7.89L17,7.51h0c0,.08,0,.17,0,.25l0,.05,1-.68Z"/><path class="cls-1" d="M18.78,5.43v0Z"/><path class="cls-1" d="M10.54,21.55l0,.23.5,0v-.23h.49v.24l.5,0,0-.23.49,0,0,.23.49-.07,0-.23.48-.08,0,.22.49-.11-.06-.22.47-.13.06.22.47-.16L14.84,21l.45-.17.09.21.45-.2-.1-.21.43-.22.11.21.43-.24-.11-.2L17,19.9l.12.19c.14-.09.28-.18.41-.28l-.14-.19.39-.29.14.18.38-.32L18.15,19c.12-.1.24-.22.35-.33l.17.17.34-.36-.17-.15.33-.37.17.15c.11-.12.22-.25.32-.38l-.19-.14c.1-.13.2-.26.29-.4l.19.14c.09-.14.19-.28.27-.42L20,16.8l.25-.42.2.11c.08-.14.16-.29.23-.44L20.5,16a3.55,3.55,0,0,0,.21-.44l.21.09c.07-.15.13-.3.19-.46l-.21-.08c.05-.15.11-.3.16-.46l.22.08.15-.48-.23-.06.12-.47.23.05c0-.16.07-.32.1-.48l-.23-.05c0-.15,0-.31.07-.48l.23,0c0-.15,0-.32.05-.48h0l-.23,0a3.87,3.87,0,0,0,0-.48h.23c0-.17,0-.34,0-.5h-.23c0-.16,0-.32,0-.48l.23,0c0-.16,0-.33,0-.49l-.23,0-.06-.48.23,0-.09-.49-.23.05c0-.16-.06-.32-.1-.48l.22,0c0-.16-.09-.32-.13-.48l-.23.07A3.53,3.53,0,0,0,21,7.94l.22-.08L21,7.4l-.21.08c-.07-.14-.13-.29-.2-.44l.21-.1L20.6,6.5l-.21.11a4.49,4.49,0,0,0-.24-.42l.2-.12c-.08-.14-.17-.28-.26-.42l-.19.13c-.09-.14-.18-.27-.28-.4l.19-.14-.3-.39L19.32,5l-.15-.18A1.46,1.46,0,0,0,19,4.62l.18-.15c-.11-.13-.23-.25-.34-.37l-.17.17c-.11-.12-.23-.23-.35-.34l.16-.17a3.8,3.8,0,0,0-.37-.33L18,3.6l-.37-.3.14-.19-.4-.29L17.2,3l-.4-.27.12-.19-.34-.21a.2.2,0,0,1-.11,0l-.09.15L16,2.27l.1-.21a4.69,4.69,0,0,0-.45-.21l-.09.21-.45-.19.08-.21-.46-.17-.08.22-.46-.14.06-.23-.48-.12-.05.23-.48-.1.05-.23-.44-.07h-.05l0,.2c.09,0,.1.11.09.2s0,.14-.11.13a.19.19,0,0,1-.12-.22.2.2,0,0,1,.07-.09l-.32,0a.92.92,0,0,1-.58.36c.09-.33.25-.52.5-.55V1l-.49,0V1.2h-.49V1h-.49v.24H10.6a1.43,1.43,0,0,1-.13.38.41.41,0,0,1-.5,0c0-.34.13-.51.31-.55V1L10,1.06c-.06,0-.12.08-.17.06l0,.19-.47.08-.05-.22-.48.11,0,.22-.46.13-.07-.22-.47.16.08.21L7.49,2,7.4,1.75,6.94,2l.1.2-.43.22-.11-.2-.43.24.12.2-.41.26-.13-.2L5.24,3l.14.18L5,3.44l-.14-.18-.17.14a.38.38,0,0,0,.11.16l.4.26A.22.22,0,0,1,4.94,4l-.15-.15L4.44,4c.06.2.18.41-.09.52,0,0-.13,0-.14,0a.51.51,0,0,1,0-.42L4.1,3.92,4,4a.3.3,0,0,1-.2.29l.13.12c-.12.12-.22.24-.33.36l-.17-.15L3.11,5l.19.14L3,5.56l-.19-.13c-.09.13-.19.27-.27.41L2.74,6c-.09.14-.17.28-.25.42L2.3,6.27v0h0c-.07.13-.14.26-.2.39l.2.1c.07,0,.14.05.19.3,0-.08-.09-.05-.14-.05L2.16,7l-.1.22-.22-.09c-.06.15-.13.3-.19.46l.22.08c-.06.15-.11.3-.16.46l-.22-.08a4.42,4.42,0,0,0-.15.48l.22.06-.12.47L1.22,9c0,.16-.07.32-.1.49l.23,0c0,.16-.06.32-.08.48L1,10c0,.16,0,.33-.05.49v0l.23,0,0,.48H1c0,.16,0,.33,0,.49h.23c0,.16,0,.32,0,.48L1,12c0,.16,0,.33,0,.49l.23,0L1.3,13l-.22,0c0,.17,0,.33.08.49l.23,0v0a.8.8,0,0,1,.23-.18,1,1,0,0,1,.09-.74s0-.08,0-.11l.11,0s.07-.05.11,0l0-.42-.23,0c0-.16,0-.31,0-.47h.23c0-.09,0-.17,0-.26a.27.27,0,0,1-.06-.19H1.66c0-.11,0-.23,0-.34A.61.61,0,0,1,1.6,10c.24.13.13.37.12.57l.2,0v0c0-.15,0-.3.05-.45l-.24,0c0-.16.05-.31.08-.46l.23,0a3.12,3.12,0,0,1,.09-.44L1.9,9.2c0-.15.07-.3.11-.45l.23.06c0-.14.08-.29.13-.43L2.15,8.3l.15-.43L2.52,8l.18-.41-.22-.1c.06-.14.13-.28.2-.42l.21.11.21-.4-.2-.12.23-.4.2.13L3.58,6l-.19-.13.06-.08v-.3c.1-.14.23-.27.3,0,0,0,0,.06,0,.08l.09.08.29-.36L4,5.09c.1-.12.2-.23.31-.34l.17.16.31-.33-.16-.16c.11-.11.22-.22.34-.32l.15.18L5.43,4,5.28,3.8l.37-.28.14.19.33-.23,0,0L6,3.26,6.42,3l.12.2L6.94,3l-.11-.21.41-.2.1.21.41-.18-.09-.22.43-.17.08.22L8.6,2.3l-.07-.22L9,2,9,2.18l.44-.1-.05-.23.46-.08v.12l.21,0A.31.31,0,0,1,10.2,2l.17,0,0-.23.47,0V1.9h.45V1.66c.15,0,.31,0,.46,0v.23l.45,0,0-.23h0l.45.05,0,.23h.06c.13,0,.26,0,.39.06l0-.23.46.09-.06.23.44.11L14,2l.09,0A1.27,1.27,0,0,1,14,1.76c.25,0,.35.16.33.36l.09,0-.08.22.43.16.08-.22.43.17-.09.22.41.19.1-.21c.14.07.28.14.41.22L16,3.1l.39.24.12-.2.39.25-.14.2c.13.08.25.17.37.26l.14-.18.36.29-.15.18.34.3L18,4.27l.33.32-.17.16c.11.11.21.22.31.34l.17-.16.16.18h0l0-.11h0A.12.12,0,0,1,18.94,5s0,0,0,0c.2.22-.14.56.12.77h0l.13-.1c.1.13.18.25.27.38l-.2.13a4,4,0,0,1,.24.38l.2-.12c.08.14.16.27.23.41l-.21.11.21.4.21-.1.19.42-.22.09c.06.14.11.28.16.42l.22-.08c.06.15.1.3.15.44l-.23.07c.05.14.09.29.13.44L20.81,9c0,.15.08.3.11.45l-.23.05c0,.14,0,.29.08.44l.23,0,.06.46-.23,0,0,.45h.24c0,.15,0,.3,0,.46h-.23c0,.15,0,.3,0,.45h.24l0,.47-.23,0c0,.15,0,.3-.05.44l.23,0c0,.16,0,.31-.07.46l-.23,0-.09.44.23.06-.12.44L20.53,14c0,.15-.09.29-.13.43l.22.08c-.05.14-.1.29-.16.43l-.22-.08c0,.14-.11.28-.17.42l.22.09-.2.42-.21-.1-.21.4.2.11c-.08.14-.15.27-.24.4l-.2-.12c-.08.12-.16.25-.25.37l.2.14c-.09.12-.18.25-.28.37l-.18-.14c-.09.12-.19.24-.29.35l.18.15L18.5,18l-.17-.16-.31.32.16.17-.34.31-.15-.17-.35.29.15.18-.37.29L17,19.06l-.37.26.13.19-.39.25-.12-.2-.4.22.11.2a3.17,3.17,0,0,1-.41.21l-.1-.21-.41.18.09.22-.43.17-.08-.22-.43.14.07.22-.45.13,0-.23-.44.1,0,.23-.45.08,0-.23-.45.06,0,.23-.46,0,0-.23H11.5v.24H11v-.23l-.45,0,0,.23h0l-.44,0,0-.23h-.07l-.38-.06,0,.23a3.58,3.58,0,0,1-.45-.09l0-.23-.44-.11-.06.23-.45-.14.08-.22L8,20.25l-.08.22-.43-.18.09-.21-.41-.2-.1.21-.41-.21.11-.21-.38-.23-.13.2-.39-.26L6,19.19a3.18,3.18,0,0,1-.37-.27l-.14.19-.36-.29.15-.18-.34-.3-.16.17-.33-.32L4.59,18a3.26,3.26,0,0,1-.31-.33l-.17.16A1.46,1.46,0,0,1,4,17.66a1.15,1.15,0,0,1-.14-.17L4,17.35,3.71,17l-.19.14c-.09-.13-.18-.25-.26-.38l.19-.13-.24-.38-.2.12L2.79,16l.2-.11c-.07-.13-.14-.27-.2-.4l-.21.1c-.07-.14-.13-.28-.19-.42L2.61,15c-.06-.14-.12-.28-.17-.42l-.22.08c-.05-.15-.1-.3-.14-.44l.22-.07-.12-.44L2,13.8c0-.15-.07-.3-.1-.45l.23,0c0-.14-.06-.29-.08-.44l-.16,0c-.05.13-.06.27-.11.4.18.52-.16.61-.44.75l.12.42.22-.07.15.46-.21.08v0a1.74,1.74,0,0,1,.23.4L2,15.3l.2.44h0a.55.55,0,0,1,.11.31.54.54,0,0,1-.18,0c0,.07.07.15.11.22l.2-.11.24.42-.2.12c.09.14.18.29.27.42L2.87,17c.09.14.18.27.28.4L3,17.54l.3.39.18-.14.15.17.17.2-.18.15.34.36.17-.16c.11.12.23.23.35.34L4.28,19l.37.33.15-.18c.12.11.25.21.38.31L5,19.66l.41.3.13-.19L6,20l-.12.2.43.25.11-.2.43.23-.1.21.45.21.09-.21.14.05a.19.19,0,0,1,0-.08c0-.07,0-.21.11-.15a.36.36,0,0,1,.15.19.33.33,0,0,1,0,.14l.07,0-.08.22.46.17,0-.09a.34.34,0,0,1,.11-.38c.12-.09.19.11.16.28l0,0,.2.06,0,.16.05.08.41.1,0-.22.48.09,0,.23.42.07H10l0-.23.46.05Z"/><path class="cls-1" d="M17,11.11a.5.5,0,0,1,.32.21.5.5,0,0,1-.31.08c0,.15,0,.3,0,.46A5.65,5.65,0,0,1,10.91,17a5.9,5.9,0,0,1-2.12-.61.17.17,0,0,1,0,.07c0,.13-.06.25-.19.24s-.13-.15-.12-.27,0-.15,0-.22A5.76,5.76,0,0,1,7.07,15a5.47,5.47,0,0,1-.93-1.55c0,.17-.09.36,0,.49.27.24.13.63.23.93.1.14.21.28.32.41a.48.48,0,0,1,.15-.21,1,1,0,0,1,.08.46,6,6,0,0,0,3.62,1.88l.32,0A6.12,6.12,0,0,0,17.3,12.9c0-.07,0-.14,0-.21a.14.14,0,0,0,.07.08,6.21,6.21,0,0,0-1.27-5.3,3.22,3.22,0,0,1-.13.6A5.5,5.5,0,0,1,17,11.11Z"/><path class="cls-1" d="M9.24,6a.18.18,0,0,0,.18-.15.53.53,0,0,1,0-.12V5.67s0,0,0-.08L9,5.75H9C9,5.9,9.07,6,9.24,6Z"/><path class="cls-1" d="M6.41,8.55l.06.07a5.76,5.76,0,0,1,.68-1c0-.13-.05-.28.12-.34a.5.5,0,0,1,.26-.05,5,5,0,0,1,.67-.54A.26.26,0,0,1,8,6.62H8c-.12,0-.31.36-.37-.06A6.1,6.1,0,0,0,6.07,8.38h.1Z"/><path class="cls-1" d="M10.7,5.79a5.29,5.29,0,0,1,.8,0,1,1,0,0,1-.1-.47,5.37,5.37,0,0,0-.7,0A.93.93,0,0,1,10.7,5.79Z"/><path class="cls-1" d="M8.39,6.07l-.31.19.06,0C8.42,6.37,8.41,6.23,8.39,6.07Z"/><path class="cls-1" d="M11.69,5.76H12c0-.12,0-.26.1-.28s.27.18.38.35a5.58,5.58,0,0,1,2.05.83l.17-.19h0l0,.34a4.58,4.58,0,0,1,.43.34c0-.06,0-.13.06-.23a.18.18,0,0,0,0-.3.19.19,0,0,0,0-.08A6,6,0,0,0,11.89,5.3h-.11A.62.62,0,0,1,11.69,5.76Z"/><path class="cls-1" d="M5.68,9.89l.09.93a5.63,5.63,0,0,1,.57-2l-.15,0a.42.42,0,0,0-.33-.05c-.1.2-.18.42-.26.63C5.72,9.54,6,9.63,5.68,9.89Z"/><path class="cls-1" d="M6,14.21a2.58,2.58,0,0,1-.1-1.15l.09,0a4.94,4.94,0,0,1-.15-.55c-.28-.37-.17-.85-.31-1.21s-.16-.84-.13-1.27a5.19,5.19,0,0,0-.12.79A6.06,6.06,0,0,0,6,14.35l0-.14Z"/><path class="cls-1" d="M6.89,1.09A.16.16,0,0,0,7,1.18a.11.11,0,0,0,.08,0l.28-.11s0,0,0,0,.16-.15.23-.17a.11.11,0,0,0,0,0,.16.16,0,0,0-.2-.09L7,.88A.17.17,0,0,0,6.89,1.09Z"/><path class="cls-1" d="M5.91,1.59h0a.15.15,0,0,0-.21-.06l-.4.25a.14.14,0,0,0,0,.21.16.16,0,0,0,.21,0l.37-.22h0A.14.14,0,0,1,5.91,1.59Z"/><path class="cls-1" d="M21.52,16.24a.15.15,0,0,0-.21.07l-.22.41a.16.16,0,0,0,.06.21l.06,0a.14.14,0,0,0,.15-.08c.08-.14.16-.28.23-.42A.17.17,0,0,0,21.52,16.24Z"/><path class="cls-1" d="M4.58,2.59a.23.23,0,0,0,.11,0c.12-.09.25-.19.38-.27a.16.16,0,0,0,0-.22.15.15,0,0,0-.21,0l-.39.28a.16.16,0,0,0,0,.22A.24.24,0,0,0,4.58,2.59Z"/><path class="cls-1" d="M10.65.33h0l.47,0A.16.16,0,0,0,11.3.15.16.16,0,0,0,11.14,0l-.47,0a.15.15,0,0,0-.15.16A.15.15,0,0,0,10.65.33Z"/><path class="cls-1" d="M9.72.43h0a3.62,3.62,0,0,1,.46-.06A.16.16,0,0,0,10.36.2a.15.15,0,0,0-.17-.14L9.72.12a.14.14,0,0,0-.13.17A.16.16,0,0,0,9.72.43Z"/><path class="cls-1" d="M3.76,3.14a.16.16,0,0,0,.09,0,.22.22,0,0,0,.13,0c.11-.1.23-.21.35-.3a.12.12,0,0,0,0-.08.23.23,0,0,1-.15,0,.35.35,0,0,1-.09-.17,3.65,3.65,0,0,0-.36.31A.15.15,0,0,0,3.76,3.14Z"/><path class="cls-1" d="M7.76.75a.14.14,0,0,0,.13.1A.09.09,0,0,0,8,.85L8.4.71A.15.15,0,0,0,8.51.52.16.16,0,0,0,8.32.41L7.86.55A.17.17,0,0,0,7.76.75Z"/><path class="cls-1" d="M8.66.48A.16.16,0,0,0,8.79.6h.06L9.31.5A.15.15,0,0,0,9.43.32.16.16,0,0,0,9.25.2L8.78.3A.16.16,0,0,0,8.66.48Z"/><path class="cls-1" d="M.72,7.83h0a.16.16,0,0,0,.17-.1c0-.15.1-.29.16-.44a.16.16,0,1,0-.29-.11c-.06.15-.11.3-.16.45A.14.14,0,0,0,.72,7.83Z"/><path class="cls-1" d="M.28,9.66h0a.15.15,0,0,0,.17-.13c0-.15,0-.3.09-.45a.18.18,0,0,0-.12-.19A.17.17,0,0,0,.24,9l-.09.47A.16.16,0,0,0,.28,9.66Z"/><path class="cls-1" d="M.46,8.74h0a.16.16,0,0,0,.17-.11c0-.15.08-.3.13-.45A.16.16,0,0,0,.67,8a.15.15,0,0,0-.19.1c0,.15-.09.31-.13.46A.16.16,0,0,0,.46,8.74Z"/><path class="cls-1" d="M.08,10c0,.16,0,.32,0,.48v0a.17.17,0,0,0,.14.17h0a.16.16,0,0,0,.17-.14v0c0-.16,0-.31,0-.47a.16.16,0,0,0-.13-.17A.16.16,0,0,0,.08,10Z"/><path class="cls-1" d="M11.59.31h0l.47,0a.15.15,0,0,0,.16-.14A.16.16,0,0,0,12.1,0l-.48,0a.16.16,0,0,0-.16.15A.16.16,0,0,0,11.59.31Z"/><path class="cls-1" d="M3.51,3.6a.8.8,0,0,1,.13-.13.16.16,0,0,0-.22-.23l-.33.34a.16.16,0,0,0,0,.22l.07,0a.83.83,0,0,1,.08-.12A.37.37,0,0,1,3.51,3.6Z"/><path class="cls-1" d="M2.56,4.56A.18.18,0,0,0,2.7,4.5L3,4.14a.15.15,0,0,0,0-.22.15.15,0,0,0-.21,0c-.11.12-.21.24-.31.37a.15.15,0,0,0,0,.21Z"/><path class="cls-1" d="M1.06,7l0,0a.16.16,0,0,0,.16-.09c.06-.14.13-.29.2-.42a.16.16,0,1,0-.28-.14c-.07.14-.14.29-.2.43A.14.14,0,0,0,1.06,7Z"/><path class="cls-1" d="M2.42,4.87a.16.16,0,0,0,0-.22.16.16,0,0,0-.22,0L2,4.9c.09.06.2.09.27.15Z"/><path class="cls-1" d="M2,5.32H2l0,0a.33.33,0,0,1-.07-.23v0a.15.15,0,0,0,0,.21S2,5.31,2,5.32Z"/><path class="cls-1" d="M1.75,5.91c.05-.09.1-.18.16-.27a.16.16,0,0,0,0-.21.16.16,0,0,0-.22.05l-.24.41a.16.16,0,0,0,.06.21l.06,0A.14.14,0,0,0,1.67,6a.41.41,0,0,0,.07-.11v0Z"/><path class="cls-1" d="M18.8,3.15a.09.09,0,0,0,.08,0,.13.13,0,0,0,.13,0,.15.15,0,0,0,0-.22l-.36-.31a.17.17,0,0,0-.22,0,.17.17,0,0,0,0,.22Z"/><path class="cls-1" d="M12.53.37h0c.15,0,.31,0,.46.06h0A.16.16,0,0,0,13.17.3.15.15,0,0,0,13,.12L12.57.06a.16.16,0,0,0,0,.31Z"/><path class="cls-1" d="M21.33,6.49h0l.18.39a.16.16,0,0,0,.12.09h.09a.17.17,0,0,0,.08-.21l-.21-.43a.12.12,0,0,0,0-.05A.3.3,0,0,1,21.33,6.49Z"/><path class="cls-1" d="M22.28,8.09a.15.15,0,1,0-.29.09l.12.45a.16.16,0,0,0,.13.11h.06a.16.16,0,0,0,.11-.19C22.37,8.4,22.33,8.24,22.28,8.09Z"/><path class="cls-1" d="M20.91,5.44a.15.15,0,0,0-.05.21c.08.13.16.26.23.4a.13.13,0,0,0,.07.06A.53.53,0,0,1,21.3,6l.08,0a.19.19,0,0,0,0-.07c-.07-.14-.16-.28-.24-.41A.14.14,0,0,0,20.91,5.44Z"/><path class="cls-1" d="M22.34,8.89a.15.15,0,0,0-.12.19c0,.15.06.3.08.45a.17.17,0,0,0,.14.13h0a.15.15,0,0,0,.13-.18L22.52,9A.16.16,0,0,0,22.34,8.89Z"/><path class="cls-1" d="M22.6,10.75a.16.16,0,0,0-.15.17c0,.15,0,.31,0,.46a.15.15,0,0,0,.13.15h0a.16.16,0,0,0,.16-.16c0-.16,0-.32,0-.48A.16.16,0,0,0,22.6,10.75Z"/><path class="cls-1" d="M20.34,4.88l.27.38a.11.11,0,0,0,.11.06.12.12,0,0,0,.1,0,.15.15,0,0,0,.05-.21l-.27-.4a.16.16,0,0,0-.26.19Z"/><path class="cls-1" d="M22.61,11.69a.16.16,0,0,0-.16.15l0,.47a.15.15,0,0,0,.13.16h0a.15.15,0,0,0,.17-.14l0-.47A.16.16,0,0,0,22.61,11.69Z"/><path class="cls-1" d="M22.37,10c0,.15,0,.31.05.46a.15.15,0,0,0,.13.14h0a.15.15,0,0,0,.14-.16c0-.16,0-.32-.05-.48a.16.16,0,0,0-.31,0Z"/><path class="cls-1" d="M21.68,7.31c.06.14.11.28.16.43a.15.15,0,0,0,.13.1.09.09,0,0,0,.07,0,.15.15,0,0,0,.1-.19L22,7.19a.16.16,0,0,0-.2-.09A.17.17,0,0,0,21.68,7.31Z"/><path class="cls-1" d="M14.36.71l.44.14h0A.16.16,0,0,0,15,.75a.16.16,0,0,0-.1-.2L14.44.42a.15.15,0,0,0-.19.1A.15.15,0,0,0,14.36.71Z"/><path class="cls-1" d="M15.24,1l.43.17h0a.17.17,0,0,0,.17-.09.17.17,0,0,0-.09-.21L15.35.71a.16.16,0,1,0-.11.29Z"/><path class="cls-1" d="M13.46.5l.45.1h0A.16.16,0,0,0,14.1.48.16.16,0,0,0,14,.3L13.51.2a.16.16,0,0,0-.18.12A.15.15,0,0,0,13.46.5Z"/><path class="cls-1" d="M16,1.15a.17.17,0,0,0,.08.21c.14.07.28.13.41.21h0a.15.15,0,0,0,.16-.08.16.16,0,0,0-.06-.21l-.43-.21A.16.16,0,0,0,16,1.15Z"/><path class="cls-1" d="M19.46,3.8a.12.12,0,0,0,.09.05.14.14,0,0,0,.13,0,.16.16,0,0,0,0-.22l-.33-.34a.16.16,0,0,0-.22.22Z"/><path class="cls-1" d="M16.92,1.79l.4.24.06,0A.13.13,0,0,0,17.53,2a.14.14,0,0,0-.05-.21l-.4-.25a.16.16,0,0,0-.22.06A.16.16,0,0,0,16.92,1.79Z"/><path class="cls-1" d="M.24,10.89l0-.06a.14.14,0,0,0-.11-.05.16.16,0,0,0-.16.15v.14C0,11,.1,10.88.24,10.89Z"/><path class="cls-1" d="M.1,11.55h0A.16.16,0,0,0,.3,11.4c0-.06,0-.13,0-.2l-.18.31Z"/><path class="cls-1" d="M20.06,4.51a.16.16,0,0,0,.1,0,.13.13,0,0,0,.12,0,.16.16,0,0,0,0-.22L20,4a.15.15,0,0,0-.22,0,.16.16,0,0,0,0,.22Z"/><path class="cls-1" d="M18.08,2.56a.11.11,0,0,0,.07,0,.15.15,0,0,0,.15-.06.15.15,0,0,0,0-.21L17.88,2a.16.16,0,0,0-.18.26Z"/><path class="cls-1" d="M6.74,1.15a.15.15,0,0,0-.2-.07l-.43.21A.15.15,0,0,0,6,1.5a.17.17,0,0,0,.21.07,4.11,4.11,0,0,1,.42-.21A.15.15,0,0,0,6.74,1.15Z"/><path class="cls-1" d="M12.55,22.4l-.46,0a.16.16,0,0,0-.15.17.16.16,0,0,0,.14.14h0l.47,0a.15.15,0,0,0,.14-.17A.16.16,0,0,0,12.55,22.4Z"/><path class="cls-1" d="M13.47,22.27l-.46.07a.17.17,0,0,0-.13.18.15.15,0,0,0,.13.13h.05l.47-.08a.15.15,0,0,0,.12-.18A.16.16,0,0,0,13.47,22.27Z"/><path class="cls-1" d="M16.1,21.41l-.42.19a.14.14,0,0,0-.08.2.14.14,0,0,0,.12.09.11.11,0,0,0,.08,0l.44-.19a.16.16,0,0,0,.07-.21A.15.15,0,0,0,16.1,21.41Z"/><path class="cls-1" d="M16.92,21l-.4.22a.16.16,0,0,0-.07.21.17.17,0,0,0,.21.07l.42-.23a.17.17,0,0,0,.06-.22A.17.17,0,0,0,16.92,21Z"/><path class="cls-1" d="M.15,11.72a.16.16,0,0,0-.15.16l0,.47a.17.17,0,0,0,.14.15h0a.16.16,0,0,0,.14-.17l0-.46A.14.14,0,0,0,.15,11.72Z"/><path class="cls-1" d="M15.25,21.77l-.44.15a.17.17,0,0,0-.1.2.17.17,0,0,0,.13.1s.05,0,.07,0l.45-.16a.16.16,0,1,0-.11-.29Z"/><path class="cls-1" d="M17.71,20.48l-.39.26a.16.16,0,0,0-.05.21.15.15,0,0,0,.11.07.15.15,0,0,0,.11,0l.39-.26a.16.16,0,0,0,0-.22A.15.15,0,0,0,17.71,20.48Z"/><path class="cls-1" d="M14.37,22.05a3.74,3.74,0,0,1-.45.12.15.15,0,0,0-.11.19.15.15,0,0,0,.13.12H14a3.45,3.45,0,0,0,.46-.12.15.15,0,0,0,.11-.19A.16.16,0,0,0,14.37,22.05Z"/><path class="cls-1" d="M21.89,15.37a.16.16,0,0,0-.2.09l-.18.43a.15.15,0,0,0,.07.2h.05a.15.15,0,0,0,.16-.09c.06-.14.13-.29.18-.44A.14.14,0,0,0,21.89,15.37Z"/><path class="cls-1" d="M21.07,17.07a.15.15,0,0,0-.21.05c-.08.13-.16.27-.25.39a.16.16,0,0,0,0,.22l.07,0a.14.14,0,0,0,.15-.06l.26-.41A.15.15,0,0,0,21.07,17.07Z"/><path class="cls-1" d="M22.18,14.48a.15.15,0,0,0-.19.1c0,.15-.09.3-.14.44a.16.16,0,0,0,.09.2h0a.15.15,0,0,0,.17-.11c.05-.14.1-.3.15-.45A.15.15,0,0,0,22.18,14.48Z"/><path class="cls-1" d="M11.78,22.61a.16.16,0,0,0-.16-.15h-.46a.16.16,0,0,0-.16.15.16.16,0,0,0,.14.16h.49A.15.15,0,0,0,11.78,22.61Z"/><path class="cls-1" d="M20.35,17.9l-.29.36a.16.16,0,0,0,0,.22.2.2,0,0,0,.08,0,.2.2,0,0,0,.14-.06l.29-.38a.16.16,0,0,0,0-.22A.15.15,0,0,0,20.35,17.9Z"/><path class="cls-1" d="M22.4,13.56a.16.16,0,0,0-.18.12c0,.15-.07.31-.11.45a.15.15,0,0,0,.12.19h0a.15.15,0,0,0,.17-.12c0-.15.08-.31.11-.46A.15.15,0,0,0,22.4,13.56Z"/><path class="cls-1" d="M19.13,19.3l-.34.32a.17.17,0,0,0,0,.22l.1.05a.17.17,0,0,0,.12,0l.35-.33a.16.16,0,1,0-.22-.22Z"/><path class="cls-1" d="M18.44,19.92l-.36.29a.16.16,0,0,0,0,.22.17.17,0,0,0,.22,0l.37-.29a.16.16,0,1,0-.2-.24Z"/><path class="cls-1" d="M19.77,18.62l-.31.35a.16.16,0,0,0,0,.22l.09,0a.15.15,0,0,0,.13-.05c.11-.12.22-.23.32-.35a.16.16,0,1,0-.23-.21Z"/><path class="cls-1" d="M22.55,12.63a.16.16,0,0,0-.18.14.59.59,0,0,1,0,.13c0,.11,0,.22-.05.33a.17.17,0,0,0,.13.18h0a.16.16,0,0,0,.17-.13c0-.11,0-.23.05-.34s0-.09,0-.13A.16.16,0,0,0,22.55,12.63Z"/><path class="cls-1" d="M2.16,17.52c-.09-.13-.17-.26-.25-.39a.16.16,0,0,0-.21-.05.14.14,0,0,0-.05.21c.08.14.16.27.25.4a.15.15,0,0,0,.11.07.15.15,0,0,0,.11,0A.16.16,0,0,0,2.16,17.52Z"/><path class="cls-1" d="M1.26,15.9l-.18-.42a.16.16,0,0,0-.2-.09.14.14,0,0,0-.08.2c0,.15.12.29.18.44a.16.16,0,0,0,.12.09h.09A.16.16,0,0,0,1.26,15.9Z"/><path class="cls-1" d="M3,18.63a.15.15,0,1,0-.23.2l.32.36a.13.13,0,0,0,.09,0,.11.11,0,0,0,.12,0,.15.15,0,0,0,0-.22C3.21,18.86,3.1,18.75,3,18.63Z"/><path class="cls-1" d="M2.71,18.27l-.29-.37a.15.15,0,0,0-.21,0,.16.16,0,0,0,0,.22c.1.12.19.25.29.38a.14.14,0,0,0,.1.05.13.13,0,0,0,.12,0A.16.16,0,0,0,2.71,18.27Z"/><path class="cls-1" d="M1.68,16.73c-.08-.13-.15-.27-.22-.41a.15.15,0,0,0-.21-.07.17.17,0,0,0-.07.21l.23.42a.13.13,0,0,0,.11.08.18.18,0,0,0,.1,0A.16.16,0,0,0,1.68,16.73Z"/><path class="cls-1" d="M.42,13l0-.21a.14.14,0,0,0-.17-.13.15.15,0,0,0-.14.17l0,.19A.32.32,0,0,1,.42,13Z"/><path class="cls-1" d="M.32,14.08l0,.15a.16.16,0,0,0,.13.12H.54a.15.15,0,0,0,.11-.18l-.06-.29C.4,13.74.35,13.89.32,14.08Z"/><path class="cls-1" d="M.92,15c-.05-.14-.1-.29-.14-.44a.16.16,0,0,0-.2-.1.15.15,0,0,0-.1.19l.15.45a.16.16,0,0,0,.12.11H.83A.16.16,0,0,0,.92,15Z"/><path class="cls-1" d="M5.45,20.75l-.38-.26a.16.16,0,0,0-.22,0,.15.15,0,0,0,0,.21l.4.27.06,0a.15.15,0,0,0,.1-.28Z"/><path class="cls-1" d="M6.26,21.21,5.85,21a.15.15,0,0,0-.21.05.16.16,0,0,0,.05.21l.42.23,0,0a.15.15,0,0,0,.16-.08A.16.16,0,0,0,6.26,21.21Z"/><path class="cls-1" d="M7,21.89H7a.15.15,0,0,0,.16-.09.16.16,0,0,0-.08-.21l-.43-.18a.14.14,0,0,0-.2.07.15.15,0,0,0,.07.21Z"/><path class="cls-1" d="M8.07,22.12a.15.15,0,0,0-.1-.19l-.44-.16H7.46a1.55,1.55,0,0,1,0,.29h0l.45.15h0A.16.16,0,0,0,8.07,22.12Z"/><path class="cls-1" d="M8.22,22.17a.16.16,0,0,0,.11.19h0l0-.29A.15.15,0,0,0,8.22,22.17Z"/><path class="cls-1" d="M9.14,22.45a.14.14,0,0,0,.12.12l.12,0c0-.07,0-.12.11-.1a.22.22,0,0,1,.1.13l.14,0h0a.16.16,0,0,0,.18-.13.16.16,0,0,0-.14-.17l-.43-.08a.27.27,0,0,1-.07.08Z"/><path class="cls-1" d="M10.7,22.44l-.25,0-.22,0a.16.16,0,0,0-.17.14.16.16,0,0,0,.14.17h0l.22,0,.26,0a.15.15,0,0,0,.16-.14A.16.16,0,0,0,10.7,22.44Z"/><path class="cls-1" d="M3.64,19.31a.16.16,0,0,0-.22.22l.35.32a.09.09,0,0,0,.08,0A.16.16,0,0,0,4,19.84a.16.16,0,0,0,0-.22Z"/><path class="cls-1" d="M4.69,20.22l-.36-.29a.16.16,0,0,0-.2.24l.37.29a.11.11,0,0,0,.07,0,.15.15,0,0,0,.15-.06A.15.15,0,0,0,4.69,20.22Z"/><path class="cls-1" d="M14.29,9.24a.13.13,0,0,0,.09,0h.18a.35.35,0,0,1,0,.38l.28-.15a.94.94,0,0,0-.49-.43l0,.2A.19.19,0,0,1,14.29,9.24Z"/><path class="cls-1" d="M11.28,11.4l.5-.27a2.28,2.28,0,0,0,0-.27l.32-.12c.07,0,.16.07.2.13L14.49,9.7l-.21-.12c-.06-.18-.3-.28-.21-.54h0l-1-.09V9a2,2,0,0,1-.25.14l-.24.19-.12,0c0-.32.2-.29.36-.33h0l0,0-.55-.05a.26.26,0,0,1,0,.15.1.1,0,0,1-.14,0l-.61.09a.48.48,0,0,1,.16-.29l-.48,0a.38.38,0,0,1-.2.34.37.37,0,0,0,0,.11L12,9.32a.28.28,0,0,1,.09-.1.3.3,0,0,1,.16,0,.82.82,0,0,0,.17.11l.3,0c.16,0,.31-.18.49-.08v.12l.73.06-.84.44c0,.07,0,.12-.1.14a.37.37,0,0,1-.05.11s-.12,0-.2,0H12.6l0,0s0,.11,0,.26h-.24v-.15l-1,.52L10,9.74l-.2,0c-.25-.13-.5-.3-.74-.41s-.46-.39-.35-.71a.93.93,0,0,0-.53.27Z"/><path class="cls-1" d="M8.79,10.19a1.1,1.1,0,0,0,0,.32l2.17,1.75.24.19.27-.15,3-1.57L14.24,13l0,.13v.07a.44.44,0,0,1-.33.44.65.65,0,0,1-.26-.23l-5.1-.43a.43.43,0,0,1-.31-.16.44.44,0,0,1-.11-.33l.14-1.71c-.11-.07-.23-.19-.35-.14a.39.39,0,0,1-.11.06L7.64,12.4a.91.91,0,0,0,.84,1l5.22.44h.08A.92.92,0,0,0,14.7,13l.2-2.41a.47.47,0,0,1-.29-.2.32.32,0,0,1,.34-.31V9.92l-1.16.62a.25.25,0,0,0,.14.08c.12-.23.31-.12.47-.14,0,.09,0,.17,0,.26l-.47-.11c-.19.2-.28.14-.34,0l-2.35,1.24L9.5,10.5H9.32a.66.66,0,0,1,0-.11l-.29-.24A.24.24,0,0,1,8.79,10.19Z"/><path class="cls-1" d="M7.82,10.22l.19,0,.14-.12.6-.05a.93.93,0,0,1,.05-.1l-.87-.7a.71.71,0,0,0,0,.2Z"/><path class="cls-1" d="M4,9.56A.65.65,0,0,0,4.76,9a.64.64,0,0,0-.28-.62.32.32,0,0,1-.21-.1l-.07,0A.66.66,0,1,0,4,9.56Z"/><path class="cls-1" d="M19.67,10.3a.65.65,0,0,0-.27-.62.32.32,0,0,1-.09.21.17.17,0,0,1-.15,0,.42.42,0,0,1,0-.27h-.08a.65.65,0,0,0-.74.56.67.67,0,0,0,.56.73A.65.65,0,0,0,19.67,10.3Z"/></g></g></svg>