<svg xmlns="http://www.w3.org/2000/svg" viewBox="0 0 22.79 22.79"><defs><style>.cls-1{fill:none;}.cls-2{fill:#2f444f;}</style></defs><g id="레이어_2" data-name="레이어 2"><g id="_迹_1" data-name="卵迹_1"><path class="cls-1" d="M6.11,8a6.34,6.34,0,0,0-.94,2.59s0,0,0,0,0-.08,0-.08c-.27-.19-.18.27-.36.27.16,0,.19.18.3.26s0,.18.07.2a6.1,6.1,0,0,0,.14,1.53,6.28,6.28,0,0,0,7.48,4.77h0l-.08,0h0c-.14.06-.32,0-.44.19a.53.53,0,0,0,.45-.14l.17,0c.15,0,.31,0,.39-.19a6.09,6.09,0,0,0,2.17-1.17c.05.09.1,0,.15,0a.25.25,0,0,0,0-.1,6.58,6.58,0,0,0,1.13-1.33,6.21,6.21,0,0,0,.94-4.17.31.31,0,0,1-.19-.14.12.12,0,0,1,.16,0c0-.13,0-.27-.07-.4a6.24,6.24,0,0,0-2.75-3.93,6.35,6.35,0,0,0-3-1h-.37a6.3,6.3,0,0,0-1.36.15A6.23,6.23,0,0,0,6.11,8Zm4.77,7.49c-.06,0-.11,0-.13.11s-.21,0-.3-.08v0h0a.09.09,0,0,1-.11,0A2.84,2.84,0,0,1,10,15l-.05-.08s-.07-.09,0-.13.08,0,.12.06l0,0,.24.39c.06,0,.13-.09.16.06a1.78,1.78,0,0,1,.45.08c.06,0,.14,0,.13.07S10.94,15.53,10.88,15.51Zm-.6-.87.09-.07a.16.16,0,0,1-.09.07Zm6.57-3.26c0,.06.16,0,.18.1s0,.14-.06.16-.1-.13-.19-.14-.12.05-.16-.06S16.73,11.27,16.85,11.38ZM8.12,9.55l5.7-1.26a1,1,0,0,1,.94.27l-3,3v0l-.17.17-1.55-.61h0l.08-.16a.11.11,0,0,0,0-.14s-.06,0-.09,0,0,.12,0,.18-.12,0-.12.05a.43.43,0,0,0,0,0l-2.54-1A1.05,1.05,0,0,1,8.12,9.55Zm3.59,2.74L15,9l0,.12.33,1.46c.06,0,.07.23.15.31h0c.1.08.13.22.21.32h0a.47.47,0,0,1,.18.25h0l.35.48h0l.1.12a1.17,1.17,0,0,1,.15.32c-.13,0-.15-.09-.18-.18a.17.17,0,0,0-.07-.13c-.16,0-.18-.24-.28-.34s-.14-.23-.26-.28c0,.09.1.19,0,.3-.13-.1-.13-.26-.21-.38h0l.22,1A1,1,0,0,1,15,13.55l-.75.16a.11.11,0,0,1,0,.06c0,.05-.08,0-.12,0h0l-.27.06h0c0,.07.16.16.1.24a.36.36,0,0,1-.43.06.7.7,0,0,1-.43,0c0,.08,0,.21-.13.14a.28.28,0,0,1-.15-.15c0-.09-.13-.17-.08-.26l0,0s0-.07-.08-.06,0,.15,0,.23a.34.34,0,0,1,0,.1l-1.84.4a.28.28,0,0,1,0-.09,2,2,0,0,0-.06-.59.4.4,0,0,1-.27.06h0l.05,0c0,.14.06.1.11.12s0,.3.05.45a.09.09,0,0,1,0,.05l-.31.07h0l-.12,0-1,.21a1,1,0,0,1-.42,0c0-.06-.09-.06-.12,0a1,1,0,0,1-.42-.26s0,0,0-.07,0-.14,0-.19a.16.16,0,0,0-.1.15A1.17,1.17,0,0,1,8,14l-.71-3.24a.9.9,0,0,1,0-.23Z"/><path class="cls-1" d="M12.53,2.84c0,.11.06.16.06.26L12.64,3l0-.12a.36.36,0,0,0,0-.29C12.5,2.63,12.53,2.74,12.53,2.84Z"/><path class="cls-1" d="M19.66,11.48l0,.11c.1-.09.06-.2,0-.32Z"/><path class="cls-1" d="M8.39,13.12a.32.32,0,0,0-.11.27C8.4,13.27,8.4,13.27,8.39,13.12Z"/><path class="cls-1" d="M8.9,9.79s-.1,0-.08.11a.09.09,0,0,0,.1.08C9,10,9,9.92,9,9.87A.1.1,0,0,0,8.9,9.79Z"/><path class="cls-1" d="M9.07,12.86,9,13l0,0c0,.23.16,0,.21.09a.06.06,0,0,0,0-.06c0-.17-.1-.17-.17-.24Z"/><path class="cls-1" d="M8.75,11.75a.18.18,0,0,0,.05-.07c0-.07,0-.1-.07-.09s-.05.05-.05.09S8.71,11.77,8.75,11.75Z"/><path class="cls-1" d="M20,11.55c-.1,0,0,.11,0,.17s.12.07.18,0S20.1,11.52,20,11.55Z"/><path class="cls-1" d="M9.06,11.63l0-.07s0-.07-.05-.06l0,.07S9,11.63,9.06,11.63Z"/><path class="cls-1" d="M8.69,12l.05.18a.41.41,0,0,0,0-.11.61.61,0,0,0,0-.12Z"/><rect class="cls-1" x="17.9" y="17.62" width="0.3" height="0.5" transform="translate(-7.33 18.73) rotate(-46.65)"/><path class="cls-1" d="M10.37,13c.07,0,.08-.09.08-.16a1,1,0,0,1-.07-.61s0,0-.05,0c0,.27-.23.16-.4.22l.39.24C10.35,12.79,10.3,12.89,10.37,13Z"/><path class="cls-1" d="M10.52,13.73l.06,0h0c0-.14-.05-.31-.24-.2a.14.14,0,0,1-.16,0s-.11-.12-.15,0,0,.11.08.12a.72.72,0,0,0,.22.17l0,0Z"/><path class="cls-1" d="M14.57,19.16v.12a.79.79,0,0,1,.27.21l.07,0C14.84,19.3,14.79,19.1,14.57,19.16Z"/><path class="cls-1" d="M15.72,2.42c0-.13-.21-.34-.32-.3s-.17.19-.13.25l-.94,2,.31.14.87-1.87a.4.4,0,0,0,.23.15c.18,0,0-.23,0-.37S15.72,2.43,15.72,2.42Z"/><path class="cls-1" d="M15.49,11l0,0,0,.18A.68.68,0,0,0,15.49,11Z"/><path class="cls-1" d="M9.85,9.89s0-.11,0-.13,0,0,0,0,0,0,0,0a.72.72,0,0,1-.07.25c-.1.06-.22.09-.16.27l0,.12c-.07,0-.12,0-.09.14.21.16.27.08.2-.2l.08-.11c.05,0,.16,0,.15-.14S9.92,9.93,9.85,9.89Z"/><rect class="cls-1" x="16.96" y="16.52" width="0.3" height="0.9" transform="translate(-6.98 17.76) rotate(-46.65)"/><path class="cls-1" d="M10.5,10.15c0-.09.05-.21-.07-.24s0,.07-.06.12a.14.14,0,0,1,0,.06Z"/><path class="cls-1" d="M10.69,13.71h0v-.29s0-.11-.1-.06v.34A.1.1,0,0,1,10.69,13.71Z"/><polygon class="cls-1" points="17.74 15.44 19.12 16.25 17.86 15.23 17.74 15.44"/><polygon class="cls-1" points="11.77 5.13 11.78 5.13 11.78 5.13 11.77 5.13"/><path class="cls-1" d="M17.92,11.09s-.05,0,0,.08.06.05.09,0,0,0,0-.07S18,11.07,17.92,11.09Z"/><path class="cls-1" d="M18,10.68h0l0,0A0,0,0,0,0,18,10.68Z"/><path class="cls-1" d="M17.74,10.3h.11l0,.05c.11.06.15,0,.19-.11s-.09-.2-.21-.13-.17,0-.14.18Z"/><path class="cls-1" d="M17.17,8.2c.11-.14,0-.25,0-.36A.24.24,0,0,0,17,7.75H17a.23.23,0,0,0-.12-.06s0,0-.05,0A.7.7,0,0,1,17.17,8.2Z"/><path class="cls-1" d="M18,10.79a.07.07,0,0,0,.1,0v0A.17.17,0,0,1,18,10.79Z"/><path class="cls-1" d="M12,9.65a.56.56,0,0,0,0-.4C12.05,9.39,11.82,9.46,12,9.65Z"/><path class="cls-1" d="M11.37,10.41h.16l.1,0s0,0,0,0-.07.24,0,.33.07-.07.06-.13,0-.16-.08-.19,0-.37.07-.52.07-.14,0-.13-.2-.1-.29,0l-.1-.15c0-.07,0-.16-.1-.16s-.08.07-.09.13-.1.3,0,.44A.46.46,0,0,0,11.37,10.41Z"/><polygon class="cls-1" points="15.58 16.2 15.58 16.19 15.57 16.2 15.57 16.2 15.58 16.2"/><path class="cls-1" d="M15.67,16.37a.11.11,0,0,0,.07-.12c0-.14-.11-.05-.16-.05S15.56,16.38,15.67,16.37Z"/><path class="cls-1" d="M12.6,13.64a.33.33,0,0,0,0-.35s-.08,0-.09.08A.21.21,0,0,0,12.6,13.64Z"/><path class="cls-1" d="M9.16,1.73v.39c.18-.15.05-.31,0-.47Z"/><path class="cls-1" d="M14.07,17.28s-.08,0-.09.09,0,.07,0,.06.08,0,.1-.1S14.08,17.27,14.07,17.28Z"/><polygon class="cls-1" points="9.7 4.08 9.7 4.08 9.7 4.08 9.7 4.08"/><path class="cls-1" d="M10.08,2.65a.12.12,0,0,0,.1-.1c0-.07-.06-.06-.09-.08s-.07,0-.07,0S10,2.65,10.08,2.65Z"/><path class="cls-1" d="M9.4,1.67l.37,2.22.34-.06c.06,0,.1-.12.07-.21a.14.14,0,0,1,0-.06c.05-.2,0-.26-.17-.21L9.74,1.61Z"/><path class="cls-1" d="M6,14.77c-.06,0,0,.07,0,.12S6,15,6,15s0-.08,0-.12S6.05,14.76,6,14.77Z"/><path class="cls-1" d="M6.74,15.74a.32.32,0,0,0-.1.1s0,.06.07.07.06-.05.08-.09S6.77,15.73,6.74,15.74Z"/><path class="cls-1" d="M5.39,14.15s0,0,0,.06a.08.08,0,0,0,.06.08s0,0,0-.06S5.43,14.15,5.39,14.15Z"/><path class="cls-1" d="M19.48,16.35s.05,0,.07,0,.21,0,.08-.18,0-.2-.16-.2a.71.71,0,0,1,0,.14l-1.29-.76,1.29,1Z"/><path class="cls-1" d="M4.35,6s0,0,0,0-.07,0-.08.1a.21.21,0,0,0,0,.07C4.33,6.13,4.32,6.06,4.35,6Z"/><path class="cls-1" d="M18,2.58s0,.06.06,0,0-.1,0-.16S18,2.49,18,2.58Z"/><rect class="cls-1" x="4.6" y="4.06" width="0.35" height="0.95" transform="translate(-1.81 4.49) rotate(-43.19)"/><polygon class="cls-1" points="18.08 2.45 18.08 2.46 18.08 2.46 18.08 2.45"/><rect class="cls-1" x="4.94" y="18.07" width="1.96" height="0.3" transform="translate(-12.07 11.65) rotate(-51.93)"/><path class="cls-1" d="M6.32,19.81l0,0c.06,0,.12,0,.15-.05l0,0L7.05,19l-.26-.15-.43.74-.09,0s-.06,0-.07.08A.17.17,0,0,0,6.32,19.81Z"/><path class="cls-1" d="M18.66,2.91a.37.37,0,0,0-.08-.33A.3.3,0,0,0,18.66,2.91Z"/><path class="cls-1" d="M7.79,1.8s-.08,0-.09.09,0,.11.09.14.07,0,.08-.09S7.87,1.81,7.79,1.8Z"/><path class="cls-1" d="M8.5,2.61s0,0-.07,0L8.21,2l-.33.11.36,1.07L8.57,3l-.06-.16a1.66,1.66,0,0,0,.06-.21S8.55,2.54,8.5,2.61Z"/><path class="cls-1" d="M22.43,11.42c.07,0,.09-.05.09-.12s-.06-.12-.13-.12l-.05,0C22.37,11.27,22.34,11.39,22.43,11.42Z"/><path class="cls-1" d="M22.61,13a.86.86,0,0,0,0-.5c0-.08-.07-.14-.15-.11s0,.1,0,.16.09.2,0,.3,0,.24.09.36C22.63,13.16,22.61,13.08,22.61,13Z"/><path class="cls-1" d="M22.67,12c.06,0,.06-.07,0-.12l0-.06c-.06,0,0,.09,0,.13S22.65,12,22.67,12Z"/><path class="cls-1" d="M3,14.69c.06.15.15,0,.23,0s-.07-.1-.13-.12,0-.2-.11-.21-.1.07-.12.12S3,14.62,3,14.69Z"/><path class="cls-1" d="M22.35,8.67a.12.12,0,0,0-.09-.16c-.05,0-.07,0-.1,0s-.16,0-.13.12.1,0,.16,0S22.32,8.75,22.35,8.67Z"/><path class="cls-1" d="M22.36,9.25s0,.05,0,.1,0,.07.08.06.05-.06,0-.1S22.41,9.23,22.36,9.25Z"/><path class="cls-1" d="M3.34,3.79l0-.11s0-.06,0-.05,0,.05,0,.1S3.33,3.77,3.34,3.79Z"/><path class="cls-1" d="M2.31,17.88s-.07,0-.08.05a.09.09,0,0,0,.11.07.06.06,0,0,0,.06-.08S2.34,17.88,2.31,17.88Z"/><rect class="cls-1" x="11.18" y="20.2" width="0.3" height="0.83" transform="translate(-0.25 0.14) rotate(-0.71)"/><path class="cls-1" d="M4.68,16.07a.22.22,0,0,0-.09.1.05.05,0,0,0,0,.08.1.1,0,0,0,.1-.11S4.72,16.05,4.68,16.07Z"/><path class="cls-2" d="M1,11.71A.43.43,0,0,0,1,12a.38.38,0,0,0,.26.14H3.46a.62.62,0,0,0,.27,0,.32.32,0,0,0,.17-.25,2.8,2.8,0,0,0,0-.29.48.48,0,0,0-.06-.29.33.33,0,0,0-.25-.16H3.2v.33h.34s0,0,0,0v.31h-1l-1.22,0v-.34h.17s0,0,0,0h0v-.31H1.42a.59.59,0,0,0-.29.05.37.37,0,0,0-.16.26S1,11.68,1,11.71Z"/><polygon class="cls-2" points="1.03 10.19 0.98 10.53 3.89 10.93 3.94 10.59 4.04 9.9 3.69 9.86 3.6 10.54 2.66 10.41 2.74 9.81 2.4 9.77 2.31 10.36 1.37 10.23 1.47 9.55 1.13 9.5 1.03 10.19"/><path class="cls-2" d="M1.26,8.9l2.79.9.11-.33L2.38,8.9h2l.11-.33L3.28,8.19v.05a.05.05,0,0,1,0,0,.28.28,0,0,1-.1-.09v0L1.65,7.66,1.55,8l1.77.57h-2Z"/><path class="cls-2" d="M3.4,7.49l1.27.67.16-.3L3.42,7.1C3.41,7.23,3.4,7.36,3.4,7.49Z"/><path class="cls-2" d="M2.4,6.17l-.48.92.3.16L2.38,7l.84.44a1.7,1.7,0,0,1,0-.39l-.68-.36.17-.31Z"/><path class="cls-2" d="M3.45,4.91A.31.31,0,0,0,3.19,5L3,5.26l-.13.18-.07.08,0,0,0,0h0l0,0L3,5.8H3v0s0-.07,0,0,.07,0,0,.1h0l.26.2,0-.41-.15-.11.21-.27A1.31,1.31,0,0,1,3.51,5s0,0,0-.08Z"/><path class="cls-2" d="M3.89,5.28a.26.26,0,0,1-.06-.18L3.71,5,3.62,5c0,.14,0,.27,0,.4l.64.49L4,6.12l-.46-.36,0,.4h0l.77.59L5,7.3l.07,0,0,0h0l0,0,.06-.07.06-.07,0,0,0,0h0s0,0,0,0l-.71-.55-.15-.11-.07-.06,0,0h0l0,0,.09,0,.65.33.31.15h0s0,0,0,0h0l0-.06.1-.13,0-.06s0,0,0,0h0a.05.05,0,0,1,0,0l-.14-.06-.32-.15L4.5,6.05a.36.36,0,0,0,0-.45l-.14-.1s.08,0,0,0L4,5.23l-.08-.05A.22.22,0,0,1,3.89,5.28ZM4.32,6s0,0,0,0,0,.11-.08.12a.21.21,0,0,1,0-.07C4.25,6,4.26,6,4.32,6Z"/><path class="cls-2" d="M4.79,3.8a.32.32,0,0,0-.25-.07.44.44,0,0,0-.27.14l-.22.22a.34.34,0,0,0-.07.3.68.68,0,0,0,.2.27l.41.45L4.65,5c0-.07,0-.15.11-.19,0,.13.13.24,0,.37l0,.06c.12.12.23.24.34.37l.47.49.21.23.1.1h0l0,0,.06,0,.1-.1,0,0,0,0h0l0-.05-.21-.22c-.15-.17-.31-.33-.47-.5l-.13-.14h0l0,0,0,0,0-.05.09-.09,0,0,0,0h0l0,0,.46.49.23.24.11.12,0,.05V6h0l0,0,0,0,.09-.09.06,0,0,0s0,0,0,0l-.21-.23-.88-.93L5,4.05A2.73,2.73,0,0,0,4.79,3.8Zm.43,1L5,5l-.65-.69.25-.24Z"/><path class="cls-2" d="M5.27,3.08,5,3.28,6.66,5.69l.85-.59-.2-.28-.57.39-.46-.67,0,0s0,0,0-.06a.13.13,0,0,1,0-.06Z"/><path class="cls-2" d="M8.76,2.53,8.58,2c0-.13-.06-.26-.2-.33s-.3,0-.46,0l-.45.16h0s0,0,0,0h0l0,.13.09.25c0,.16.11.32.16.48l.61,1.8,0,.09a0,0,0,0,0,0,0h0l0,0,.09,0,.08,0h.07s0,0,0,0h0v0l0,0,0-.08c0-.11-.08-.22-.11-.33l-.11-.32-.06-.16,0-.09h0l.05,0,.09,0,.17-.06a.32.32,0,0,0,.23-.29.57.57,0,0,0,0-.22C8.83,2.75,8.8,2.64,8.76,2.53Zm-.89-.59c0,.05,0,.11-.08.09s-.11,0-.09-.14,0-.09.09-.09S7.87,1.88,7.87,1.94Zm.7.73a1.66,1.66,0,0,1-.06.21L8.57,3l-.33.11L7.88,2.08,8.21,2l.22.66s.06,0,.07,0S8.58,2.62,8.57,2.67Z"/><path class="cls-2" d="M10.08,1.6v0a.35.35,0,0,0-.32-.29.61.61,0,0,0-.23,0l-.22,0a.35.35,0,0,0-.26.29,2.61,2.61,0,0,0,.08.5l0,.2h.05c.07.09,0,.22.06.32s0,.17,0,.24,0,0,0,0c.06.34.11.69.17,1a.33.33,0,0,0,.17.24s0-.08.1-.1h0a.66.66,0,0,1,0,.14h.07a.58.58,0,0,0,.22,0l.22,0a.35.35,0,0,0,.26-.33c0-.06-.07-.41-.08-.46l0-.16h0c0,.06-.1.06-.16,0s-.1-.4.08-.53l-.07-.38a.19.19,0,0,1-.2,0C9.9,2.2,10,2.06,10,2a.53.53,0,0,0,0-.28.07.07,0,0,1,0-.09Zm-.92.52V1.65C9.21,1.81,9.34,2,9.16,2.12Zm.86.39s0-.08.07,0,.1,0,.09.08a.12.12,0,0,1-.1.1C10,2.65,10,2.61,10,2.51Zm0,.84c.15-.05.22,0,.17.21a.14.14,0,0,0,0,.06c0,.09,0,.2-.07.21l-.34.06L9.4,1.67l.34-.06Z"/><path class="cls-2" d="M11.33,1.84h.34s0,0,0,0h0V1.63a1.1,1.1,0,0,0,0-.21.34.34,0,0,0-.23-.26,1.53,1.53,0,0,0-.37,0,.38.38,0,0,0-.31.09.32.32,0,0,0-.11.29v.79a.44.44,0,0,0,0,.16.38.38,0,0,0,.22.21,1.37,1.37,0,0,0,.35,0h.1s0,0,0,0v1H11s0,0,0,0V3s0,0,0,0h-.34s0,0,0,0h0v.76a.36.36,0,0,0,.17.3.35.35,0,0,0,.17,0h.23a.43.43,0,0,0,.36-.1.39.39,0,0,0,.11-.32c0-.25,0-.51,0-.75V2.78a.64.64,0,0,0,0-.24.34.34,0,0,0-.31-.19H11s0,0,0,0V1.49h.33s0,0,0,0v.34S11.32,1.84,11.33,1.84Z"/><path class="cls-2" d="M12.53,2.48l-.06,0s0-.08,0-.12l-.28,1.83.34.06.4-2.57.34.06.05-.34-1-.16,0,.34.34.05-.08.47s.05.05.07.07v.24S12.53,2.43,12.53,2.48Zm.09.36,0,.12-.05.14c0-.1-.1-.15-.06-.26s0-.21.05-.29A.36.36,0,0,1,12.62,2.84Z"/><path class="cls-2" d="M15.8,2.23a.93.93,0,0,0-.2-.1A1.89,1.89,0,0,0,15.39,2a.34.34,0,0,0-.38.09,2.67,2.67,0,0,0-.22.45L14,4.25a.34.34,0,0,0,.1.42.93.93,0,0,0,.2.1l.21.09a.32.32,0,0,0,.4-.13s.18-.37.2-.41l.78-1.67A.35.35,0,0,0,15.8,2.23Zm-.06.59a.4.4,0,0,1-.23-.15l-.87,1.87-.31-.14.94-2c0-.06.09-.17.13-.25s.31.17.32.3,0,0,0,0S15.92,2.83,15.74,2.82Z"/><path class="cls-2" d="M16.58,2.63,14.93,5.06l.29.2L15.41,5l.53-.79.5.34,0,0h0s0-.09,0-.1h0l.12-.18-.5-.33.53-.79.45.3a.16.16,0,0,1-.05-.14,0,0,0,0,1,0,0c.12,0,0,.16.11.21l-.06,0,.08.06.19-.29-.53-.36c0,.08,0,.18,0,.26s-.05,0-.07,0-.09,0-.09-.1l0-.28Z"/><path class="cls-2" d="M18.17,3.83l-.12-.1s0,0,0,0l-.1-.08L16.65,4.94a.18.18,0,0,1,0,.19c0,.14-.1.12-.17.07s0-.08,0-.1a.16.16,0,0,0,0-.09l-.68.72.25.24.24-.25L17,5l.44.41.24-.25h0c0,.11-.21,0-.26.09,0-.11.15-.08.17-.18l-.33-.31.65-.69.5.47.24-.25L18.37,4h-.19a.23.23,0,0,1,.07-.13Z"/><path class="cls-2" d="M16.75,6.58l.22.25,1.65-1.38h-.1a.33.33,0,0,1,0-.24c.08,0,.09.13.12.21a0,0,0,0,0,0,0L19.22,5,19,4.7Z"/><path class="cls-2" d="M19.8,5.78a.39.39,0,0,0-.21-.21.35.35,0,0,0-.3,0l-.14.08L19,5.76l-.26.17-.5.32-.08,0-.46.3-.24.16a.64.64,0,0,0-.21.19.35.35,0,0,0,0,.3,2.07,2.07,0,0,0,.15.25.47.47,0,0,0,.21.21.32.32,0,0,0,.3,0l.25-.17.07,0h0v0l0,0-.08-.13-.05-.06,0,0h0l-.13.08-.13.09s0,0,0,0l0,0,0-.06-.08-.12,0,0v0h0l.06,0,.25-.16.53-.34,1-.67.16.25,0,0s0,0,0,0h0l-.06,0,0,0h0l0,.06.08.13,0,.06v0h0l0,0a.53.53,0,0,0,.22-.2A.32.32,0,0,0,20,6,2.13,2.13,0,0,0,19.8,5.78Z"/><path class="cls-2" d="M20.42,6.79,20,7a.29.29,0,0,0,0,.09c0,.08-.07,0-.1,0l-.06,0L17.73,8l.14.32.29.63.31-.14-.28-.63.87-.39.24.55.32-.14-.25-.55.47-.21a.21.21,0,0,1,0-.19.17.17,0,0,1,0,.16l.32-.15.28.64.32-.14-.28-.64Z"/><path class="cls-2" d="M20.08,15.53a.25.25,0,0,0,.18-.08.4.4,0,0,0,.1-.15l.08-.2a.28.28,0,0,0,0-.2.26.26,0,0,0-.09-.17.51.51,0,0,0-.18-.09L20,14.56l-.11.28.28.11-.12.28-.83-.34.07-.18a1,1,0,0,0,.06-.18.3.3,0,0,0-.17-.31l-.36-.15-.35-.14-.28-.12-.11.28-.12.28-.11.28.28.12.11-.28.12-.28.69.28L19,14.7a.37.37,0,0,0-.05.17.26.26,0,0,0,.05.19.33.33,0,0,0,.16.12l.75.31A.41.41,0,0,0,20.08,15.53Z"/><path class="cls-2" d="M19.65,16.64a1,1,0,0,0,.11-.17l.1-.17A.29.29,0,0,0,19.8,16a2.35,2.35,0,0,0-.37-.24L18,14.92a.3.3,0,0,0-.37.05,1,1,0,0,0-.1.17l-.1.17a.29.29,0,0,0,.08.36l.34.21,1.39.81A.3.3,0,0,0,19.65,16.64Zm-.19-.54a.71.71,0,0,0,0-.14c.14,0,.11.14.16.2s-.06.11-.08.18-.05,0-.07,0l0,0-1.29-1Zm-1.72-.66.12-.21,1.26,1Z"/><polygon class="cls-2" points="19.2 17.32 18.45 16.56 18.35 16.68 17.15 15.78 16.97 16.02 19.01 17.56 19.2 17.32"/><path class="cls-2" d="M17.56,18l.37.34a.29.29,0,0,0,.42,0l.2-.22a.3.3,0,0,0,0-.43l-.37-.34a.3.3,0,0,0-.42,0,.31.31,0,0,0,0-.43l-.65-.62a.3.3,0,0,0-.42,0l-.21.22a.3.3,0,0,0,0,.42l.65.62a.31.31,0,0,0,.43,0A.3.3,0,0,0,17.56,18Zm.42-.44.36.34-.21.22-.36-.34Zm-.65-.19-.65-.62.21-.22.65.62Z"/><path class="cls-2" d="M2.53,16l.61-.85.78.25h0a.44.44,0,0,1-.05-.3l-.34-.46.2-.29a1,1,0,0,1,0-.35c.13.05.11.15.09.24l.33-.46-1,.33-.62-.84v1l-1,.33,1,.32Zm.36-1.44S3,14.4,3,14.4s0,.17.11.21.14,0,.13.12-.17.11-.23,0S2.85,14.65,2.89,14.52Z"/><path class="cls-2" d="M20.52,11l-.22-1-.43,1-1-.11.42.38a.14.14,0,0,1,.18,0,.15.15,0,0,0,.13,0,.33.33,0,0,1,0,.26h0l.06.05-.43,1L20,12a.15.15,0,0,1,0-.13l.09.06h0l.77.7-.21-1,.91-.53Zm-.83.64,0-.11,0-.21C19.75,11.39,19.79,11.5,19.69,11.59Zm.31.13c0-.06-.1-.15,0-.17s.15.07.18.18S20.06,11.76,20,11.72Z"/><path class="cls-2" d="M15.06,19.22l-.07-1-.56.88-1-.26.66.81-.56.88,1-.38.67.81-.06-1.05,1-.38Zm-.21.27a.79.79,0,0,0-.27-.21v-.12c.22-.06.27.14.35.31Z"/><path class="cls-2" d="M13.17,21.09l-.11.08.12,0Z"/><path class="cls-2" d="M12.19,20.16l.52-.08,0,.33c0-.08.08-.06.09,0s0,.21,0,.31.13,0,.2,0h0l-.33-2.13-.3.05,0,.29.12.82-.52.08Z"/><path class="cls-2" d="M13.13,20.88h0c-.09,0-.24.14-.3,0v0l-.59.09,0,.3h0v0c0-.05,0-.09.07-.08s0,0,0,.08l.45-.07.17,0C13,21,13.18,21,13.13,20.88Z"/><path class="cls-2" d="M10.89,21.07a.26.26,0,0,0,.11.2.4.4,0,0,0,.26.06h.27a.27.27,0,0,0,.22-.15.59.59,0,0,0,0-.29c0-.37,0-.75,0-1.12,0-.2,0-.4,0-.6v-.39h-.3v.32c0,.2,0,.4,0,.61v.18s0,0,0,0h-.3v0c0-.19,0-.39,0-.59v-.51h-.3s0,0,0,0v.27c0,.37,0,.75,0,1.12,0,.19,0,.39,0,.59C10.88,20.83,10.88,21,10.89,21.07Zm.59-.87V21h-.31V20.2Z"/><path class="cls-2" d="M10.61,19.69c0-.21.05-.41.08-.62a.31.31,0,0,0-.11-.27.22.22,0,0,0-.14-.06l-.2,0a.36.36,0,0,0-.32,0,.34.34,0,0,0-.13.27l-.09.65v.11a.5.5,0,0,0,0,.21.3.3,0,0,0,.25.2l.16,0h.14v0l-.05.46,0,.16V21h0v0h0l-.24,0h0v-.12l0-.15v0H9.71l-.1,0h0v.16c0,.07,0,.15,0,.18a.32.32,0,0,0,.17.25,1.28,1.28,0,0,0,.32.06.34.34,0,0,0,.28-.05.28.28,0,0,0,.13-.24l.05-.4,0-.28a.33.33,0,0,0,0-.14.29.29,0,0,0-.16-.2,1.14,1.14,0,0,0-.3-.06H10s0,0,0,0v-.05c0-.06,0-.11,0-.16,0-.21.05-.42.08-.62v0h.28s0,0,0,0,0,.22,0,.33l0,.2v.13s0,0,0,0h0l.16,0h.1Z"/><polygon class="cls-2" points="9.12 18.45 8.51 20.63 8.22 20.55 8.14 20.84 9.01 21.08 9.09 20.79 8.8 20.71 9.41 18.53 9.12 18.45"/><path class="cls-2" d="M6.28,20l.37.2,0,0h0v0l.06-.09.11-.2.22-.38.84-1.45L8,18s0,0,0,0h0l0,0-.07,0-.07,0,0,0h0v0l0,0,0,.07-.15.26-.15.26-.07.12,0,.07s0,0,0,0h0l0,0-.07-.05-.14-.08a.33.33,0,0,0-.33,0,.42.42,0,0,0-.11.15L6.35,19l-.24.41a.49.49,0,0,0-.11.33C6,19.89,6.16,19.93,6.28,20ZM6.2,19.6s0-.09.07-.08l.09,0,.43-.74.26.15-.49.85,0,0c0,.06-.09.06-.15.05l0,0A.17.17,0,0,1,6.2,19.6Z"/><path class="cls-2" d="M5.12,19.21a1.58,1.58,0,0,0,.15.12.3.3,0,0,0,.34,0A2.2,2.2,0,0,0,5.89,19l1-1.27a.29.29,0,0,0,0-.37.61.61,0,0,0-.15-.13l-.16-.12a.3.3,0,0,0-.37,0L6,17.45,5,18.71a.32.32,0,0,0,0,.37A.65.65,0,0,0,5.12,19.21Zm1.29-1.86.24.19L5.44,19.08,5.2,18.9Z"/><path class="cls-2" d="M4.15,18.35a.3.3,0,0,0,.24.14.29.29,0,0,0,.25-.1l.2-.19,0,0a.85.85,0,0,1-.06-.31L4.6,18l-.12.12-.05.05h0l0,0L4.22,18h0l0,0,.06-.06h0a1.26,1.26,0,0,1,0-.28l0,0,0,0h0l0,0-.09.08L4,17.81a.29.29,0,0,0,0,.3v0s0,0,.05,0a.18.18,0,0,1,.06.09s0,0,0,.05Z"/><path class="cls-2" d="M4.91,17.63l0,0H5s0,0,0,0h0a.34.34,0,0,0,.23.19l.06-.08a.39.39,0,0,0,0-.26A1.15,1.15,0,0,0,5,17.31L5,17.25s0,0,0,0H5l0,0,.11-.11.45-.44,0,0h0v0l.06.06.06.07,0,0,0,0s0,0,0,0l-.24.24-.15.13-.07.07,0,0h0l0,0,.1.11.06.06h0l0,0L6,17.05a.3.3,0,0,0,.09-.28.46.46,0,0,0-.07-.14l-.14-.14c-.09-.09-.15-.17-.29-.17a.3.3,0,0,0-.26.13l-.48.45L4.81,17a.41.41,0,0,0-.13.17.31.31,0,0,0,0,.25l0,0s.08.05.07.12a.44.44,0,0,1,.08.11Z"/><path class="cls-2" d="M4.39,17.74v.06h0v0h0Z"/><path class="cls-2" d="M5.19,15.58l-.33.24a.12.12,0,0,1,0,.08H4.76l-1.41,1-.17-.24-.25.17.53.74.24-.18-.17-.24,1.84-1.32Zm-.55.67a.05.05,0,0,1,0-.08.22.22,0,0,1,.09-.1s.06,0,.06.07A.1.1,0,0,1,4.64,16.25Z"/><path class="cls-2" d="M5.94,15.49H6l0,0v0Z"/><path class="cls-2" d="M8.5,5.31c0,.17-.05.25-.15.25s-.13,0-.11-.08a.49.49,0,0,1,.08-.18L8,5.47a.05.05,0,0,1,0,0s0,.09,0,.1-.06,0-.06-.08h0a6.83,6.83,0,0,0-3.18,7.35,7,7,0,0,0,1.18,2.6h0l0-.28c.18.06.18.06.21.29l0,0h0v.11H6a7,7,0,0,0,1.71,1.55,6.84,6.84,0,0,0,10.51-5.74l0,0s0,0,0,0h0c-.17-.17-.05-.27,0-.38h0a5.05,5.05,0,0,0-.07-.68.08.08,0,0,0-.08,0,.09.09,0,0,1,0-.12h.06c0-.13-.05-.25-.07-.38a7,7,0,0,0-1.24-2.67l0,0c-.05,0-.07,0-.08,0l.08,0a7,7,0,0,0-4.16-2.52.14.14,0,0,1-.1.22s-.08.11-.16.09a.17.17,0,0,1-.11-.13.36.36,0,0,1,.06-.23,7.08,7.08,0,0,0-1.38,0,.69.69,0,0,1,0,.4c-.07-.15-.16-.27-.14-.39a5.58,5.58,0,0,0-.57.08.46.46,0,0,0-.07.07.13.13,0,0,1-.09,0l-.13,0a6.23,6.23,0,0,0-1.54.53S8.49,5.28,8.5,5.31Zm-3.1,9a.08.08,0,0,1-.06-.08s0-.06,0-.06.05,0,.06.08S5.43,14.29,5.4,14.29ZM6,15c-.07,0-.09-.06-.08-.11s0-.12,0-.12.07.05.07.11S6.06,15,6,15Zm.69.91s0-.05-.07-.07a.32.32,0,0,1,.1-.1s.06,0,0,.08S6.77,15.93,6.71,15.91ZM14,17.43s-.08,0,0-.06.06-.07.09-.09,0,0,.06,0S14.08,17.42,14,17.43Zm4-6.24s-.06,0-.09,0,0-.06,0-.08.06,0,.1,0S18,11.17,18,11.19Zm-.14-1.09c.12-.07.2-.06.21.13s-.08.17-.19.11l0-.05h-.11l0,0C17.68,10.14,17.74,10.09,17.85,10.1Zm-1-2.4a.23.23,0,0,1,.12.06H17a.24.24,0,0,1,.14.09c0,.11.11.22,0,.36a.7.7,0,0,0-.37-.46S16.82,7.7,16.85,7.7Zm-6.8-2.43a6.3,6.3,0,0,1,1.36-.15h.37a6.35,6.35,0,0,1,3,1A6.24,6.24,0,0,1,17.52,10c0,.13.05.27.07.4a.41.41,0,0,1,.13.1.7.7,0,0,1,.27.14h0a0,0,0,0,1,0,0l.08.06-.06,0v0a.07.07,0,0,1-.1,0,.73.73,0,0,1-.26-.17l-.07,0a6.21,6.21,0,0,1-.94,4.17,6.58,6.58,0,0,1-1.13,1.33.25.25,0,0,1,0,.1h0c.05,0,.13-.09.16.05a.11.11,0,0,1-.07.12c-.11,0-.08-.1-.09-.17h0c-.05,0-.1.1-.15,0a6.09,6.09,0,0,1-2.17,1.17c-.08.22-.24.19-.39.19l-.17,0a.53.53,0,0,1-.45.14c.12-.19.3-.13.44-.19h0l.08,0h0a6.28,6.28,0,0,1-7.48-4.77,6.1,6.1,0,0,1-.14-1.53s-.06-.08-.07-.2-.14-.25-.3-.26c.18,0,.09-.46.36-.27,0,0,0,0,0,.08s0,0,0,0A6.34,6.34,0,0,1,6.11,8,6.23,6.23,0,0,1,10.05,5.27Z"/><path class="cls-2" d="M22.78,10.9c-.09,0-.09,0-.1-.13s.07,0,.09-.09a11.58,11.58,0,0,0-.25-1.74A12.36,12.36,0,0,0,22,7.21l0,0c-.08.1.13.26,0,.35a.12.12,0,0,1-.19,0c0-.08.07-.06.1-.1V7.2c0-.09,0-.12.09-.12l-.08-.21a.1.1,0,0,1-.09-.11l0,0c-.12-.25-.24-.5-.37-.74,0,.09,0,.21-.09.18s-.14-.19-.11-.33-.09,0-.13-.1H21c-.22-.09-.06-.31-.15-.45a.29.29,0,0,1,0-.24,10.69,10.69,0,0,0-.93-1.2.34.34,0,0,1-.06.12c0-.08-.12,0-.15-.08s-.14,0-.21,0-.16-.14-.14-.27.13,0,.14-.11a.52.52,0,0,1,0-.11l-.17-.17-.07,0v0A11.41,11.41,0,0,0,3.8,2.89a.31.31,0,0,1,0,.1c0,.1,0,.21.06.29s.08-.13.18-.1a.85.85,0,0,1-.09.31l0,.06A10.81,10.81,0,0,1,9.06.81,11.09,11.09,0,0,1,11.4.56a10.82,10.82,0,0,1,7.33,2.87.53.53,0,0,1,0-.46c0,.08.08.07.13.08s.18-.21.24.05a.26.26,0,0,1-.27.09v0s0,.08,0,.12a0,0,0,0,1,0,0l.1.09c.11,0,.23-.17.34.05s-.14.12-.23.08a.08.08,0,0,1,0,.05l0,.07a10.61,10.61,0,0,1,1.64,2.06.64.64,0,0,0,0-.2l0-.12-.11-.18c0-.05-.13-.08-.07-.18s.05-.13,0-.15-.11-.12-.06-.21,0-.29.19-.14a1.83,1.83,0,0,1,0,.47c.09,0,.06.12.1.17h0s0,.13.11.12a.16.16,0,0,0,.08-.15c.1,0,.1,0,.05.18l0,.14c0,.08.07.17,0,.22l0,.2h0c.15.26.29.53.43.8h0c.09,0,.07.12.06.2a10.48,10.48,0,0,1,.57,1.57s.06,0,.07,0,.06.15,0,.21l.1.4c.07.32.12.65.17,1l0,.05s0-.09,0-.14,0-.19.12-.15,0,.13,0,.2a.36.36,0,0,0,0,.1c.05,0,.11.05.11.14h-.07c-.07,0,0,.28-.16.12h-.08c0,.17,0,.33,0,.5l.06.11h-.05A10.85,10.85,0,0,1,5.57,20.53a10.74,10.74,0,0,1-4.49-5.84H1a.31.31,0,0,1,0-.17C1,14.27.88,14,.82,13.73A10.73,10.73,0,0,1,2.27,5.56c.14-.23.3-.45.46-.67a.26.26,0,0,1,0-.17l.08-.19c0-.06,0-.12.07-.09s0,.11,0,.17v0c.22-.28.46-.55.71-.81l0-.48c0-.11,0-.23,0-.34A11.64,11.64,0,0,0,1.79,5.26a11.38,11.38,0,0,0,3,15.39l0,0c0-.14-.12-.25-.06-.4a.14.14,0,0,1,0-.06c0-.08-.1-.15,0-.26.13.06.07.18.08.26a.79.79,0,0,1,.12.42c0,.09,0,.12-.05.11a11.39,11.39,0,0,0,17-4.61.66.66,0,0,1-.07-.3.7.7,0,0,1,.11.21,11.4,11.4,0,0,0,.77-2.49.15.15,0,0,1,0-.09A11,11,0,0,0,22.78,10.9ZM18.07,2.62s-.05,0-.06,0,0-.11.07-.12h0C18.1,2.52,18.12,2.58,18.07,2.62Zm.59.29a.3.3,0,0,1-.08-.33A.37.37,0,0,1,18.66,2.91Zm3.53,5.76c-.06,0-.12.1-.16,0s0-.13.13-.12.05-.08.1,0a.12.12,0,0,1,.09.16C22.32,8.75,22.25,8.72,22.19,8.67Zm.21.74s-.06,0-.08-.06,0-.09,0-.1.06,0,.08.06S22.45,9.4,22.4,9.41ZM3.34,3.63s0,0,0,.05l0,.11s0,0,0-.06S3.3,3.64,3.34,3.63ZM2.34,18a.09.09,0,0,1-.11-.07c0-.06,0-.06.08-.05s.08,0,.09,0A.06.06,0,0,1,2.34,18Zm20.29-6.07s0-.1,0-.13l0,.06c0,.05,0,.11,0,.12S22.62,12,22.63,11.93Zm-.24-.75c.07,0,.08.09.13.12s0,.14-.09.12-.06-.15-.09-.22Zm.17,2c0-.12-.19-.2-.09-.36s0-.2,0-.3-.07-.13,0-.16.13,0,.15.11a.86.86,0,0,1,0,.5C22.61,13.08,22.63,13.16,22.56,13.22Z"/><path class="cls-2" d="M9.94,11.05c0-.09.08-.05.12-.05s-.06-.12,0-.18.06,0,.09,0a.11.11,0,0,1,0,.14l-.08.16h0l1.55.61.17-.17v0l3-3a1,1,0,0,0-.94-.27L8.12,9.55a1.05,1.05,0,0,0-.71.55l2.54,1A.43.43,0,0,1,9.94,11.05ZM12,9.25a.56.56,0,0,1,0,.4C11.82,9.46,12.05,9.39,12,9.25Zm-.84.4c0-.06,0-.13.09-.13s.08.09.1.16l.1.15c.09-.1.19,0,.29,0s0,.09,0,.13,0,.35-.07.52.05.13.08.19,0,.14-.06.13,0-.22,0-.33,0,0,0,0l-.1,0h-.16a.46.46,0,0,1-.17-.32C11.09,10,11.17,9.8,11.19,9.65Zm-.76.26c.12,0,.05.15.07.24l-.11-.06a.14.14,0,0,0,0-.06S10.38,9.89,10.43,9.91ZM8.92,10a.09.09,0,0,1-.1-.08c0-.07,0-.1.08-.11a.1.1,0,0,1,.1.08C9,9.92,9,10,8.92,10Zm1,.11c0,.14-.1.1-.15.14l-.08.11c.07.28,0,.36-.2.2,0-.1,0-.12.09-.14l0-.12c-.06-.18.06-.21.16-.27a.72.72,0,0,0,.07-.25s0,0,0,0,0,0,0,0,0,.09,0,.13S9.92,10,9.9,10.09Z"/><path class="cls-2" d="M8,14a1.17,1.17,0,0,0,.18.39.16.16,0,0,1,.1-.15c.06.05,0,.12,0,.19s0,.05,0,.07a1,1,0,0,0,.42.26s.07,0,.12,0a1,1,0,0,0,.42,0l1-.21.12,0h0l.31-.07a.09.09,0,0,0,0-.05c0-.15,0-.3-.05-.45s-.15,0-.11-.12l-.05,0h0l-.07-.08a.72.72,0,0,1-.22-.17c-.06,0-.12-.06-.08-.12s.1,0,.15,0a.14.14,0,0,0,.16,0c.19-.11.21.06.24.2h0v-.34c.06,0,.08,0,.1.06v.29s.1-.06.16,0h0c.09-.08.21-.06.32-.08l.35-.12c0-.05,0-.12,0-.08s.14.09.1.16,0,.13,0,.18-.05.06-.13,0h0l-.16-.08a.53.53,0,0,1-.46,0v0h0c0,.08-.09.08-.16.06h0a2,2,0,0,1,.06.59.28.28,0,0,0,0,.09l1.84-.4a.34.34,0,0,0,0-.1c0-.08-.1-.21,0-.23s.07,0,.08.06a.21.21,0,0,1,.23,0,.22.22,0,0,0,.16,0l.1,0a.18.18,0,0,1,.06-.09l.1,0,.1,0c.07.07.16,0,.23.07s.14-.1,0-.16-.05-.24-.07-.36.21,0,.25.19.21.1.27.24a.47.47,0,0,1,.05.1l.75-.16a1,1,0,0,0,.79-1.23l-.22-1c-.05,0-.11,0-.14-.07s0,0,0,0h0a.1.1,0,0,0,0-.08l0-.18s0-.05,0-.07-.24-.28-.11-.36h.05l-.33-1.46L15,9l-3.31,3.33-4.4-1.74a.9.9,0,0,0,0,.23Zm6.54-1.78c-.05-.09.06-.09.1-.12l0,.06C14.69,12.25,14.64,12.33,14.58,12.24Zm.36.65s-.07,0-.09-.05,0-.06,0-.07a.07.07,0,0,1,.09.05A.08.08,0,0,1,14.94,12.89Zm-.14-.75c0-.07,0-.1.08-.12s.09.11,0,.16S14.84,12.17,14.8,12.14Zm.08-.65.14.33a.16.16,0,0,1,0,.07l-.05,0c0,.06-.09.08-.18,0a0,0,0,0,1,.05,0c.07-.11,0-.22-.05-.32s0-.11,0-.13S14.86,11.44,14.88,11.49Zm-.11-.23a.26.26,0,0,1-.08-.11.1.1,0,0,1,0-.09l.05,0h0A.24.24,0,0,1,14.77,11.26Zm-.06-.59a.05.05,0,0,1,.08.05.25.25,0,0,1,0,.13s-.07,0-.08,0A.09.09,0,0,1,14.71,10.67Zm-.22-.35s.1,0,.11.07,0,0,0,.06-.1,0-.12-.09Zm-.12,3s.05.09,0,.13-.2,0-.26-.13-.08-.19,0-.22S14.28,13.22,14.37,13.33Zm-.24-.87s0,.1,0,.13-.08,0-.1-.07a.15.15,0,0,1,0-.13A.11.11,0,0,1,14.13,12.46Zm-.38-.61h0s.09-.09.13-.05,0,.09,0,.13v0l.15.24c-.18,0-.18,0-.32-.17v0h0l-.06-.09Zm-.7,1.4c-.27.1,0-.21-.15-.23s-.09-.17,0-.22h0c.18.08.17.27.24.42S13.09,13.27,13.05,13.25Zm.07-1s0,.09,0,.11-.07,0-.09-.05,0-.09,0-.11A.09.09,0,0,1,13.12,12.22ZM13,11.86s.06,0,.1,0A.39.39,0,0,1,13,12S13,12,13,12,12.92,11.87,13,11.86Zm-.35.44c.07,0,.15,0,.21.07s.05.16,0,.24-.16.23-.25,0C12.63,12.49,12.54,12.36,12.64,12.3Zm-.18,1.07s.06-.11.09-.08a.33.33,0,0,1,0,.35A.21.21,0,0,1,12.46,13.37Zm-.19.5a.19.19,0,0,1,0,.18c-.08,0-.1-.09-.1-.16a.24.24,0,0,1,0-.08.06.06,0,0,1,0-.06s.07,0,.09.07A.08.08,0,0,0,12.27,13.87Zm-.15-1a.08.08,0,0,1,.11.05s0,.09,0,.12-.08,0-.11,0A.1.1,0,0,1,12.12,12.83Zm-.22-.24a.15.15,0,0,1,.08.08s0,.06-.05.06l-.06-.07S11.84,12.57,11.9,12.59ZM10.29,13c0,.06-.21,0-.29-.12a.12.12,0,0,1,.15-.08C10.27,12.83,10.35,12.94,10.29,13Zm0-.78c0-.06,0-.06.05,0a.12.12,0,0,1,0-.09c.11-.08.1.12.18.13.24,0,.08.3.2.41s.14.11,0,.25-.23,0-.31-.05l0,0c0,.07,0,.14-.08.16s0-.18,0-.27l-.39-.24C10.1,12.4,10.29,12.51,10.33,12.24Zm-.67.46c.05.05.14,0,.13.14s.07.13.11.18.12.07.06.14-.1,0-.15,0H9.76c-.06-.05-.15,0-.19-.12a.12.12,0,0,1,0-.08C9.52,12.82,9.49,12.68,9.66,12.7ZM9.25,13a.06.06,0,0,1,0,.06C9.2,13,9,13.22,9,13l0,0,.05-.09v-.08C9.15,12.85,9.28,12.85,9.25,13ZM9,11.57l0-.07s.05,0,.05.06l0,.07S9,11.61,9,11.57Zm-.26.56L8.69,12l.05,0a.61.61,0,0,1,0,.12A.41.41,0,0,1,8.74,12.13Zm0-.54s.07,0,.07.09a.18.18,0,0,1-.05.07s-.07,0-.07-.07S8.69,11.6,8.73,11.59Zm-.34,1.53c0,.15,0,.15-.11.27A.32.32,0,0,1,8.39,13.12Z"/><path class="cls-2" d="M11.54,13.5v.05A0,0,0,0,0,11.54,13.5Z"/><path class="cls-2" d="M13.81,13.81l.27-.06C14,13.7,13.86,13.67,13.81,13.81Z"/><path class="cls-2" d="M13.86,11.92h0l0,0,0,0Z"/></g></g></svg>