<svg xmlns="http://www.w3.org/2000/svg" viewBox="0 0 23.06 23.06"><defs><style>.cls-1{fill:none;}.cls-2{fill:#414042;}</style></defs><g id="레이어_2" data-name="레이어 2"><g id="_迹_1" data-name="卵迹_1"><path class="cls-1" d="M13.36,19.45h0v0h0v0Z"/><rect class="cls-1" x="13.39" y="19.33" width="0.03" height="0.04" transform="matrix(0.95, -0.3, 0.3, 0.95, -5.16, 4.88)"/><path class="cls-1" d="M17.76,13.08A6.21,6.21,0,0,0,18,11.53l-.39.38h0a.34.34,0,0,1-.23.27c-.07.16-.16.32-.34.34-.09-.27.12-.35.21-.5h0l.34-.47.25-.28a1.12,1.12,0,0,0,.14-.29c0-.15,0-.3-.06-.46-.09.11-.24.08-.34.18,0-.23.09-.42.3-.42,0-.11,0-.22-.08-.34a6.42,6.42,0,0,0-6.1-4.83.25.25,0,0,1-.19.15.2.2,0,0,1-.17-.15l-.26,0a1.07,1.07,0,0,1-.11.37,1.09,1.09,0,0,1-.16-.35l-.82.15a6.42,6.42,0,1,0,7.7,8.18l-.13-.12A.32.32,0,0,1,17.76,13.08ZM13.54,8.31c0-.09.06-.19.16-.17s.11.18.11.28,0,.2-.13.18A.24.24,0,0,1,13.54,8.31ZM12,5.7c.05-.19.1-.44.29-.48s.27,0,.28.11c0,.38-.11.55-.35.56S12,5.89,12,5.7ZM11.93,8a.64.64,0,0,1,.06.18c0,.07,0,.15-.14.1s-.06-.11,0-.16S11.88,8,11.93,8Zm-.58-2.32c.08,0,.15,0,.15.13s0,.2-.1.22-.13-.09-.13-.18S11.31,5.66,11.35,5.65ZM9.43,9.42v.25l-.21.42C9.18,9.82,9.15,9.55,9.43,9.42ZM9,8.28c.16.1.1.28,0,.41l-.15-.18C8.85,8.4,8.88,8.21,9,8.28Zm-.53.53c.16-.07.28,0,.38.14s.12.38-.1.37S8.45,9.07,8.46,8.81Zm4,6.32L10.87,16.5,10.75,16a.24.24,0,0,1-.11.08c-.07,0-.1,0-.11-.1s0-.17.13-.19h0l-.07-.27a.66.66,0,0,1,.18-.64l.76-.63a18,18,0,0,1-1.09-2.76L8.78,12.6c0,.18,0,.31-.31.29,0,0,0-.05,0-.08l-1,.61-.2-.78a1,1,0,0,1,.32-1L9.49,10c0-.07.07-.13.1-.19H9.7l.36-.31c-.76-3,0-3.67,0-3.67s1,.22,1.74,3.06A1,1,0,0,1,12,8.58a2.47,2.47,0,0,1,.24.58l1,.22a.28.28,0,0,1,.13,0,.17.17,0,0,1,.11.08L15,9.75a1,1,0,0,1,.78.74l.19.78L12.44,11s.09.46.18,1.05a.31.31,0,0,1,.08.21l0,0c.05.34.1.71.12,1h.07c0-.2.06-.4.29-.29.08,0,.19.15.15.27s-.26.11-.4.08a.44.44,0,0,1-.09.28V14l1,.2a.66.66,0,0,1,.47.47l.24,1Zm.5-3.58a.16.16,0,0,1-.21-.12s0-.11.09-.13.16,0,.2.1A.11.11,0,0,1,12.94,11.55ZM14.72,15c-.32-.14-.17-.43-.16-.67h.08s-.05,0-.08,0c0-.17,0-.35-.06-.72.19.34.31.5.14.73C14.64,14.53,14.82,14.69,14.72,15Zm1.15-.93c-.08.18-.18.32-.37.28a.44.44,0,0,1-.15-.51c0-.17.19,0,.28.06l.22,0a1.5,1.5,0,0,1,.52-.55A1.4,1.4,0,0,1,15.87,14.05Z"/><path class="cls-1" d="M13.48,19.43v0h0l0,0Z"/><path class="cls-1" d="M.61,11.72l0-.44c-.23-.49.18-.8.23-1.21A4.64,4.64,0,0,1,.87,8.58,10.93,10.93,0,0,0,.51,12.5l.08-.2C.6,12.1.6,11.91.61,11.72Z"/><path class="cls-1" d="M13.3,19.49v0h0v0Z"/><rect class="cls-1" x="14.84" y="18.73" width="0.04" height="0.04" transform="translate(-4.91 5.28) rotate(-17.34)"/><path class="cls-1" d="M14.55,19.38s0,0,0,0h0v0s0,0,0,0h0Z"/><path class="cls-1" d="M13.82,19.85l0-.06s0,0,0,0S13.81,19.86,13.82,19.85Z"/><path class="cls-1" d="M10,21.24h0v0h0l0,0,0,0Z"/><path class="cls-1" d="M14,20v0s0,0,0,.05a.29.29,0,0,1,.08.08.45.45,0,0,1,.1.13l.1.14a.45.45,0,0,0,.1.13q.09.16.15.15s.06,0,.1-.13a.24.24,0,0,0,0-.08l0-.09-.05-.15,0,0,0-.06,0,0h0v0a.16.16,0,0,1,0-.07.09.09,0,0,0,0-.09s0,0,0,0a.35.35,0,0,1,0-.06l0,0s0,0,0,0a.32.32,0,0,1,0-.06.25.25,0,0,1,0-.08h.07s0,0,0,0h0l0,0,0-.06,0-.06s0,0,0,0h-.1l-.07,0h-.07l-.09,0h-.07s0,0,0,0a.06.06,0,0,0-.05,0,.11.11,0,0,1,0,0,.12.12,0,0,1-.11,0H14l-.05,0s0,0,0,0h-.06l0,.06h.05l-.06.05,0,.08.08.1Zm.46.28v0h0l0,0h0v0Z"/><path class="cls-1" d="M4.64,7.43h0l0,0,0,0V7.43Z"/><path class="cls-1" d="M4.56,7.54v0h0l0,0Z"/><path class="cls-1" d="M4.6,7.35s0,0,0,0v0l0,0Z"/><rect class="cls-1" x="4.66" y="7.53" width="0.03" height="0.04" transform="translate(-4.13 8.68) rotate(-65.61)"/><path class="cls-1" d="M14.93,18.47v0s0,0,0,0a0,0,0,0,0,0,0h0Z"/><path class="cls-1" d="M15.07,4.67v0l0,0h0s0,0,0,0Z"/><rect class="cls-1" x="4.81" y="7.42" width="0.04" height="0.04" transform="translate(-3.94 8.76) rotate(-65.61)"/><path class="cls-1" d="M4.34,9.25s0,0,0,0h0l0,0,0,0Z"/><path class="cls-1" d="M4.52,7.31l0,0a0,0,0,0,0,0,0l0,0h0v0a0,0,0,0,1,0,0Z"/><path class="cls-1" d="M3.5,8.21l0,0,0,0s0,0,0,.06h0l.06,0,.06,0h0s0,0,0,0l0,0,0-.08a.1.1,0,0,0,.05,0l0-.08,0,0,0,0s0,0,0-.05S4,8,4,8l0,0A.13.13,0,0,1,4,7.82l.07-.07a.18.18,0,0,1,0-.06h0l0,0,0,0h0s0,0,0,0V7.59l0-.07H3.77s0,0,0,0l0,0-.12,0-.15,0-.18,0H3.11c-.13,0-.2,0-.21,0s0,.09,0,.17L3,7.67a.35.35,0,0,1,0,.08l.14.06v0l0,0v0h0a.16.16,0,0,1,0,.08s0,0,.06.08a.06.06,0,0,1,0,0l0,0v.05h0Zm-.24-.53v0h0l0,0h0Z"/><path class="cls-1" d="M4.17,9h0V9Z"/><path class="cls-1" d="M3.88,8.32l0,0s0,0,0,0l0,0,0,0,0,0Z"/><path class="cls-1" d="M4.06,7.51s0,0,0,0l.05,0S4.08,7.52,4.06,7.51Z"/><rect class="cls-1" x="7.94" y="18.78" width="0.04" height="0.03" transform="translate(-12.43 19.81) rotate(-69.89)"/><path class="cls-1" d="M19.5,13.2h0v-.06Z"/><path class="cls-1" d="M9.54,19.35l0,0-.05,0,0-.1a.29.29,0,0,0,0-.09.59.59,0,0,0,0-.08L9.29,19l0-.05a.06.06,0,0,1,0,0l-.09,0v0a0,0,0,0,0,0,0l-.1-.06-.16,0-.16,0-.1,0-.08,0a.28.28,0,0,0-.12,0,.27.27,0,0,1-.1.06l-.06,0s-.06,0-.11.06a.46.46,0,0,0-.1.1l0,0v0l0,0L8,19l-.06.08a.17.17,0,0,0,0,.05.23.23,0,0,0,0,.07.43.43,0,0,0,0,0s0,.06,0,.07l0,.05a.13.13,0,0,1,0,.08.14.14,0,0,1,0,.1.44.44,0,0,1,0,.1c0,.05,0,.09,0,.13l0,.12a.52.52,0,0,0,0,.11l0,.07a.31.31,0,0,0,0,.1l.31.13a1.46,1.46,0,0,0,.32.1.08.08,0,0,1,.08,0s0,0,0,.06a.12.12,0,0,1,.05,0l-.12,0-.13-.05-.55-.2a.26.26,0,0,0,0,.11,1,1,0,0,0,.05.16.41.41,0,0,1,0,.16.1.1,0,0,1,.06.05.41.41,0,0,0,0,.09l.11,0,.07.06s.05,0,.06.06l0,0H8.1l.07,0,.06,0a0,0,0,0,0,0,0h0s0,0,.06,0l.07,0,.08,0h.06l.06,0,.05,0a.45.45,0,0,0,.2-.16A1,1,0,0,0,9,20.58a1.82,1.82,0,0,0,.11-.28c0-.1.07-.21.11-.31l-.08,0,0,0h0s0,0,.05,0h.05v0l.06,0h.06a.14.14,0,0,1,0-.09.09.09,0,0,1,0-.07.1.1,0,0,1,0-.05.14.14,0,0,0,0-.06.11.11,0,0,0,0-.08l.05-.14,0,0,0,0,0,0Zm-.92,1.22-.16-.06a0,0,0,0,0,0,0,0,0,0,0,1,0,0h.13s0,0,0,0A0,0,0,0,1,8.62,20.57Zm.32-.68-.14-.05-.73-.26v0l.19.06.2.09.22.08a.83.83,0,0,0,.21.06.1.1,0,0,1,.09,0,0,0,0,0,1,0,.06l0,.05Z"/><polygon class="cls-1" points="9.61 19.94 9.59 20 9.61 20.01 9.64 19.97 9.63 19.95 9.61 19.94"/><rect class="cls-1" x="9.54" y="19.54" width="0.03" height="0.03" transform="translate(-12.08 21.87) rotate(-70.06)"/><path class="cls-1" d="M7.82,18.81v0h0l0,0Z"/><rect class="cls-1" x="19.37" y="12.73" width="0.03" height="0.05" transform="translate(2.07 28.21) rotate(-75.11)"/><path class="cls-1" d="M10,21.35h0l0,0,0,0H10Z"/><path class="cls-1" d="M10,21.44l0,0,0,0,0,0,0,0,0,0Z"/><polygon class="cls-1" points="9.63 19.73 9.65 19.74 9.66 19.7 9.63 19.68 9.63 19.73"/><path class="cls-1" d="M14.37,4.42v0a0,0,0,0,0,0,0h0l0,0Z"/><path class="cls-1" d="M20,13,20,13h0l0,0,0,0h0S20,13,20,13Z"/><path class="cls-1" d="M9.66,19.29h0l0,0,0,0h0l-.05,0Z"/><path class="cls-1" d="M6.22,17v.05l0,0Z"/><path class="cls-1" d="M6.35,17h0v0H6.29l0,0Z"/><path class="cls-1" d="M6.3,18.17s0,0,0,0h0l0,0Z"/><path class="cls-1" d="M6.38,18.05h0l0,0,0,0,0,.05Z"/><path class="cls-1" d="M6.25,18.84l0,0h0l0,0-.06,0Z"/><path class="cls-1" d="M7.6,18V18h0A.08.08,0,0,0,7.6,18Z"/><path class="cls-1" d="M6,17.6l0,0h0v0l0,0,0,0Z"/><path class="cls-1" d="M9.61,19.32l0,0h0v0h0Z"/><path class="cls-1" d="M9.24,18.55v0h0v0Z"/><polygon class="cls-1" points="6.27 18.37 6.25 18.36 6.24 18.36 6.23 18.37 6.26 18.39 6.27 18.37"/><path class="cls-1" d="M8,18.76h0s0,0,0,0H8Z"/><path class="cls-1" d="M3.17,10.52l.23.06c.12-.09.08-.43.34-.35l-.08-.34-.72.46v0C3,10.33,3.06,10.33,3.17,10.52Z"/><path class="cls-1" d="M13.23,19.28h0l0,0h0Z"/><path class="cls-1" d="M13.38,19.54h0a0,0,0,0,0,0,0s0,0,0,0h0a0,0,0,0,1,0,0v0Z"/><path class="cls-1" d="M9.77,3.4s0,0,0,0v0h0l0,0v0Z"/><path class="cls-1" d="M9.16,3.24h0a0,0,0,0,0,0,0v0h.07l0,0Z"/><path class="cls-1" d="M9.81,3.68v0s0,0,0,0h.06s0,0,0,0v0Z"/><polygon class="cls-1" points="9.43 3.44 9.37 3.46 9.38 3.51 9.44 3.5 9.45 3.46 9.43 3.46 9.43 3.44"/><path class="cls-1" d="M9.88,3.28h0v0h0Z"/><path class="cls-1" d="M9.5,3.88h0v0Z"/><path class="cls-1" d="M9.69,3.56l-.06,0s0,0,.09,0l0-.05Z"/><path class="cls-1" d="M9.91,3.1h0v.06h0s0,0,0-.05Z"/><path class="cls-1" d="M3.44,5.72s0,0,0,0,0,0,0,0h0v0h0l0,0v0Z"/><path class="cls-1" d="M10.71,3.11v0h0v0Z"/><path class="cls-1" d="M10.64,3.23v0h0v0Z"/><path class="cls-1" d="M3.33,5.66v0a.08.08,0,0,0,0,0H3.4l0-.06Z"/><path class="cls-1" d="M14.3,4.45h0v0s0,0,0,0h0Z"/><path class="cls-1" d="M5.67,5.11h0l0,0s0,0,0,0,0,0,0,0h0l0,0v0Z"/><path class="cls-1" d="M5.46,5.14v0l0,0,0,0,0,0Z"/><path class="cls-1" d="M5.82,4.93H5.69a0,0,0,0,0,0,0V5a.07.07,0,0,1,.06,0h.05Z"/><path class="cls-1" d="M5,5.76l0,0,0,0,0,0s0,0,.06,0l0,.06,0-.05,0,0Z"/><path class="cls-1" d="M3.53,5.78l0,0v0h0a0,0,0,0,1,0,0s0,0,0,0H3.53Z"/><path class="cls-1" d="M6.24,5.1h0l0,0h0l0,0h0Z"/><path class="cls-1" d="M5.3,5.35h0s0,0,0,0l0,0Z"/><path class="cls-1" d="M3.62,5.84v0a.1.1,0,0,0,0,0h0l0,0v0Z"/><path class="cls-1" d="M8.82,3.34,9,3.41l.07,0L9,3.37l-.06-.1.06,0a.08.08,0,0,0,0-.07H9s0,0,0,0,0,0,0,.06l-.05-.15L8.76,3a.25.25,0,0,1,0-.1l-.08,0-.08,0s0,0,0,0a.05.05,0,0,0,0,0,1.16,1.16,0,0,0,0,.18c0,.06,0,.11,0,.16A.35.35,0,0,1,8.82,3.34Z"/><path class="cls-1" d="M5,6H5l0,0,0,0V6Z"/><path class="cls-1" d="M3.7,5.94V6h0V5.9H3.71Z"/><path class="cls-1" d="M5.37,7.13h0v0h0l0,0Z"/><path class="cls-1" d="M10.62,2.84l0,0h0v0l0,0h.07v0Z"/><path class="cls-1" d="M13.34,4h0a0,0,0,0,1,0,0h0Z"/><path class="cls-1" d="M13.86,2l0,0,0,0h0l0,0V2Z"/><path class="cls-1" d="M13.84,2.06h0l0,0h0l0,0,0,0Z"/><path class="cls-1" d="M13.87,1.84h0V1.79h-.05l0,0,0,0Z"/><path class="cls-1" d="M13.9,1.64l0,0,0,0h0a.05.05,0,0,0,0,0l0,0Z"/><path class="cls-1" d="M13.85,1.73h.05l0,0,0,0s0,0,0,0h0Z"/><path class="cls-1" d="M13.82,2.17l0,0,0,0h-.05l0,0Z"/><path class="cls-1" d="M14.08,4.14l0,0,0,0h0Z"/><path class="cls-1" d="M11,3.85h0v0h0Z"/><path class="cls-1" d="M14.21,4.28h-.05s0,0,0,0h0l.06,0,0,0h0Z"/><rect class="cls-1" x="13.87" y="4.14" width="0.04" height="0.04" transform="translate(5 15.61) rotate(-68.84)"/><path class="cls-1" d="M14,4h0a0,0,0,0,1,0,0h0l0,0a.1.1,0,0,0,0,0S14.06,4,14,4Z"/><path class="cls-1" d="M13.85,4.05a0,0,0,0,0,0,0s0,0,0,0h0Z"/><path class="cls-1" d="M3.8,6a.43.43,0,0,1,0,0h0l0,0V6h0Z"/><path class="cls-1" d="M12.68,3.4h0v0h0Z"/><path class="cls-1" d="M4.3,4.92V5l.18.2.08-.08s0,0,0,0h0l0,0a.08.08,0,0,1,0,0s0,0,0,0v0a1.54,1.54,0,0,0,.19.17l.14.08,0,0s0,0,0,0H5l.06-.06h0l0,0v0l0,0h0l.08,0,.09-.06s0,0,0-.06,0,0,0,0L5.49,5h.06a.15.15,0,0,1,0-.08.07.07,0,0,1,0-.06l0-.06a.16.16,0,0,0,0-.07.37.37,0,0,0,0-.15.39.39,0,0,0,0-.14.12.12,0,0,1-.07,0L5.4,4.25l-.06-.08,0,0h0l-.14,0a.2.2,0,0,0-.13,0l0,0h0l-.06,0h0l-.09,0a.36.36,0,0,0-.09.09.11.11,0,0,1,0,.06.18.18,0,0,1-.07,0l0,0,0,0a.32.32,0,0,0,0,.09.14.14,0,0,1,0,.09H4.34A.41.41,0,0,1,4.3,4.92Zm.41,0,.1-.09.54-.56,0,0a.79.79,0,0,1-.13.14l-.16.15-.16.16a1.14,1.14,0,0,0-.15.17.11.11,0,0,1,0,.08s0,0-.07,0L4.64,5A.46.46,0,0,1,4.71,4.92Z"/><path class="cls-1" d="M12.38,2.67l0,0a.07.07,0,0,0,0,0,.54.54,0,0,1-.06-.11,1.55,1.55,0,0,1,0-.15s0-.11-.05-.17a.75.75,0,0,0,0-.16c0-.12-.05-.19-.09-.19a.26.26,0,0,0-.14.09L11.93,2a.56.56,0,0,1,0,.08v.16h0v.06h0v0a0,0,0,0,1,0,0,.13.13,0,0,1-.06,0s0,0-.05.09,0,0,0,0a.35.35,0,0,0,0,.06h-.05l0,0s0,0,0,.07a.56.56,0,0,1,0,.07h-.07s0,0-.05,0h0a.1.1,0,0,1,0,0v.13s0,0,0,0h.09a.27.27,0,0,0,.09,0,.09.09,0,0,0,.06,0h.09s0,0,0,0h0s0,0,0,0S12,3,12,3s0,0,0,0a.13.13,0,0,1,.12,0l.09,0h.06s0,0,0,0h.05V3h-.06l.07,0,.06-.06a.56.56,0,0,0,0-.12Zm-.28-.41H12v0h.06Z"/><path class="cls-1" d="M11.62,3.09l0,0h0s0,0,0,0,0,0,0,0h0S11.63,3.09,11.62,3.09Z"/><rect class="cls-1" x="11.1" y="3.56" width="0.04" height="0.04" transform="matrix(0.04, -1, 1, 0.04, 7.15, 14.57)"/><path class="cls-1" d="M12.47,2.9V3s0,0,0,0S12.49,2.89,12.47,2.9Z"/><rect class="cls-1" x="12.67" y="3.49" width="0.04" height="0.03" transform="translate(8.74 16.07) rotate(-87.99)"/><path class="cls-1" d="M12.84,3.37h0l0,0h0Z"/><rect class="cls-1" x="12.83" y="3.59" width="0.04" height="0.04" transform="translate(8.79 16.32) rotate(-87.96)"/><path class="cls-1" d="M12.83,3.31s0,0,0,0l0,0,0,0s0,0,0,0h0A0,0,0,0,1,12.83,3.31Z"/><path class="cls-1" d="M12.75,3.43v0h0v0h0Z"/><path class="cls-1" d="M18.77,16.23h0l0,0,.11.06v-.06l-.06,0Z"/><path class="cls-1" d="M18.25,17.12v0l0,0,0,0v0Z"/><path class="cls-1" d="M18.2,17s0,0,0,0h0l0,0h0v0h0Z"/><path class="cls-1" d="M18.24,17.32l.07-.06h0s-.05,0-.06,0a.09.09,0,0,0,0-.06l0,0,0,.05Z"/><path class="cls-1" d="M18.7,14.49v0h0v0h0S18.71,14.49,18.7,14.49Z"/><path class="cls-1" d="M18.05,17.86l-.08,0-.08.06-.05.06v0l-.07.08h-.06a.1.1,0,0,1,.05.08.07.07,0,0,1,0,.06l0,.06h0l.1.06a.37.37,0,0,1,0-.11s0-.07,0-.08a.14.14,0,0,0,.09,0,.14.14,0,0,1,.09,0l0,0h.28l.11-.11,0,0,0,0v0l-.08-.06a.14.14,0,0,1-.05-.09s0,0,0-.06a.57.57,0,0,1,.24.14,1,1,0,0,1,.15.24l.05,0a.12.12,0,0,1,0,.1.18.18,0,0,0,0,.09l-.14.14-.15.15a.79.79,0,0,1-.15.12l-.14.06h-.18s0,0,0,0l-.1-.09h-.06v0h0v0a.42.42,0,0,1-.16,0h0l.06,0a.27.27,0,0,1,.07.08l.07.08A.23.23,0,0,0,18,19H18l.13,0a.33.33,0,0,0,.14,0l0,0h0l.06-.06s0,0,0,0l.1,0,.1-.08a.06.06,0,0,1,0-.07l.06,0,0,0,0,0a.23.23,0,0,0,0-.09.21.21,0,0,1,.05-.09H19l0,0s0-.07,0-.12a.5.5,0,0,1,0-.12h0s0,0,0,0a.33.33,0,0,0-.07-.16,1.68,1.68,0,0,0-.18-.21,1.8,1.8,0,0,0-.21-.19.35.35,0,0,0-.15-.1l0,0a.05.05,0,0,1-.05,0h-.07l-.06.06h0a.06.06,0,0,0-.05,0v0s0,0,0,0S18.08,17.85,18.05,17.86Z"/><path class="cls-1" d="M18,17.73h0v0l0,0S18,17.72,18,17.73Z"/><path class="cls-1" d="M17.06,17.91l0,0a0,0,0,0,1,0,0h0l0-.05,0,0Z"/><path class="cls-1" d="M17.5,18.11h-.05s0,0,0,0h.12s0,0,0,0Z"/><path class="cls-1" d="M17.81,17.94a0,0,0,0,0,0,0,0,0,0,0,0,0,0l0,0,0,0Z"/><path class="cls-1" d="M17.62,18l0,0a0,0,0,0,1,0,0h-.05l0,0Z"/><path class="cls-1" d="M17.62,16.35a.06.06,0,0,1,0,0h0l-.1-.05a0,0,0,0,1,0,0Z"/><rect class="cls-1" x="18.02" y="16.23" width="0.04" height="0.04" transform="translate(-5.05 23.75) rotate(-60)"/><path class="cls-1" d="M19.86,16.11,19.73,16s0,0,0,0l0,0v0h0a.09.09,0,0,1,0-.08.1.1,0,0,0-.05-.08h-.05l0,0a.43.43,0,0,1,0-.05,0,0,0,0,0,0,0l-.06,0-.06,0,0-.06a0,0,0,0,0,0,0h0s0,0,0,0l0,.05h-.09l0,0,0,0-.06,0-.06,0s0,.05,0,.08h0l0,0s0,.05,0,.05,0,0,0,.05v0a.17.17,0,0,1-.06.11l-.07.06a.16.16,0,0,0,0,.06h0a0,0,0,0,0,0,0l0,0,.05,0,0,0,.08.05-.06.11a.65.65,0,0,0,.24,0s0,0,0,0,0,0,0,0h.29l.18,0,.14.06.09-.05a.15.15,0,0,0,.08-.09l0-.09A.16.16,0,0,0,19.86,16.11Zm-.24.12h0l0-.06s0,0,0,0Z"/><path class="cls-1" d="M5.11,6.11s0,0,0,0h0s0,0,0,.05h0v0Z"/><path class="cls-1" d="M21.92,14.24c0-.11.17-.27.26-.26a.11.11,0,0,1,.11.07,10.74,10.74,0,0,0,.3-2.41l0,0,0,0a11.56,11.56,0,0,0-.34-2.78A12.25,12.25,0,0,0,21.6,7h-.09a.42.42,0,0,1-.16-.32.34.34,0,0,1,0-.12,11.14,11.14,0,0,0-5.06-4.94c.05.21,0,.42-.16.45s-.07-.2-.05-.32A.75.75,0,0,1,16,1.42,11,11,0,0,0,1.5,6.88l0,.35c-.05.8-.19,1.59-.24,2.39l.56,0a.91.91,0,0,1-.06-.29c0-.1-.16-.15-.11-.33S2,9,2.16,9l.2.07.14-.36.27,1,.86.06c0-.2-.09-.39-.14-.58.14,0,.19.08.25.19s0,0,0,0,.17,0,.22.09l.12.11a.76.76,0,0,0,.47,0,.6.6,0,0,1,.36,0A6.88,6.88,0,0,1,16.61,6.88s0-.11,0-.18c.15.14.28.27.16.4a6.9,6.9,0,0,1,1.41,2.73c.06.24.1.48.14.72a.69.69,0,0,1,.13-.11.35.35,0,0,1-.09.48,6.77,6.77,0,0,1-.11,2c.12,0,.21.17.25.48,0,.14.17.26.25.38.29-.06.44-.37.68-.52a1.55,1.55,0,0,0,0-.21h0v0s0,0,0,0l-.06,0-.08,0h-.07a.06.06,0,0,0-.05,0l0,0,0,0v0h-.05a.08.08,0,0,1,0-.07.29.29,0,0,1,0-.09h0l.05,0,0,0h0l0,0,0,0h.07l.05,0a.08.08,0,0,0,0-.06h.12a.1.1,0,0,1,.1,0l0,0a.54.54,0,0,1,.1-.18c.09-.12.17-.22.29-.11s0,.2-.06.28l-.06.06h.07l.07,0v0l.43.12a.17.17,0,0,1,.17,0l.23.06,1.07.28a.06.06,0,0,0,.06,0H22a.48.48,0,0,1,0,.17c0,.06,0,.13,0,.19l-.06.21c0,.07,0,.13-.06.19s0,0,0,0v.09a.09.09,0,0,1,0,.06h0a.15.15,0,0,0,0,.09v.08s0,0,0,.07a.16.16,0,0,0,0,.07l-.06.22h0a.12.12,0,0,0,0,.09.14.14,0,0,1-.05.08H21.4v.05l-.07,0-.11.07-.12.05-.07,0,0,0h0l0,0h-.13l0,0-.09,0a0,0,0,0,0,0,0L20.45,15v0a.14.14,0,0,0-.12,0,.28.28,0,0,1-.13,0,.08.08,0,0,0,0,0l0,0,0,0s0,0-.05,0,0,0,0-.06l-.08,0v0l-.06-.08a.56.56,0,0,1,0-.08h0a.11.11,0,0,1,0,0,.06.06,0,0,0,0,0l0,0h0a.18.18,0,0,0,0-.11.2.2,0,0,1,0-.08l0-.1v0h0s0-.05,0,0h0l0-.11,0,0a.11.11,0,0,1,0-.05.11.11,0,0,0,.09-.07l0,0h0l.1-.41s0,0,0,0,0,0,0-.06l0,0,0,0h-.11a.16.16,0,0,1-.11,0l0,0h-.09v0h0a.57.57,0,0,1,0,.14c.15.43-.06.56-.3.68h0l-.12.06c-.19.46-.37.61-.53,0h0c-.42-.46-.39,0-.46.32-.16.12-.18.49-.48.42a.43.43,0,0,0,0-.05,6.87,6.87,0,0,1-4.47,3.63l-.43.09a1.24,1.24,0,0,0,.14.6H13v0h0s.06,0,.07,0h0s0,0,0,0l.06,0a.39.39,0,0,0,.08.1l.08.06,0,.11.07.06a.2.2,0,0,0,.08,0h.05l0,0,0,0,.2-.07v0h0l.18-.06a.26.26,0,0,1,.09-.05.33.33,0,0,1,.12-.05l.13,0,.13,0s0,0,0,0,0,0,0,0v0a0,0,0,0,1,0,0,.1.1,0,0,1,0-.05l0-.06,0,0c-.28.05-.11-.25-.11-.4a.18.18,0,0,1,.15.07v0s0-.06.08-.09a.4.4,0,0,1,.12-.07h0a.3.3,0,0,0,.06.11.23.23,0,0,1,0,.09l0,0a.18.18,0,0,0,0,.1.14.14,0,0,1,0,.09l0,0a.09.09,0,0,0,0,.09.11.11,0,0,1,0,.07L15,19l0,.14s0,0,0,0l0,0a.07.07,0,0,0,0,.08.1.1,0,0,1,0,.09s0,0,0,0a0,0,0,0,0,0,0l0,.11s0,0,0,.05v0s0,0,0,0l0,.07h0l0,0a.16.16,0,0,0,0,.09.23.23,0,0,0,0,.11h0v0l0,.11,0,0h0v.05l0,0,0,.11,0,0,.05.13s0,0,0,.05a.11.11,0,0,0,0,.05l0,.11,0,0v.07s0,.07,0,.1,0,.07,0,.1l0,.06s0,0,0,0,0,0,0,0l0,.08s0,0,0,0,0,0,0,0v.1c0,.07,0,.12-.21.17l-.24.07-.06,0-.05,0,0-.05h-.06l-.08-.24h0v-.05h0l0-.06s0,0,0,0a.16.16,0,0,1,0-.09.12.12,0,0,0,0-.08H14l0,0,0-.05a.06.06,0,0,0,0-.05h-.09l0-.15h-.07l0-.09h0a.13.13,0,0,1,0-.1V20.2h-.07a.17.17,0,0,0,0-.05s0,0,0-.08a.14.14,0,0,1-.09,0L13.44,20v-.09h-.06l0-.08-.06,0,0,0v0s0,0,0,0h0a.33.33,0,0,1-.1.24L13,19.41v-.15h-.12a.46.46,0,0,1-.25-.29c0-.2-.08-.44.1-.65A6.91,6.91,0,0,1,5.6,15l0,0a.33.33,0,0,1-.08-.19,7.2,7.2,0,0,1-.63-1.6,6.85,6.85,0,0,1-.21-1.89.22.22,0,0,0,0,.08l0,.14h0a.17.17,0,0,0,0,.07.64.64,0,0,1-.06.28h0c.09.22,0,.48.1.69s0,.31-.11.35-.18-.17-.17-.26c.06-.36-.08-.53-.35-.6v0A.1.1,0,0,1,4,12L4,12l0-.06a1.21,1.21,0,0,1,0-.18c-.12-.21-.45-.22-.44-.55h0a.13.13,0,0,1-.1,0c-.1.18-.17.13-.23,0l0,.17L3,11.24a1.06,1.06,0,0,0-.06.19c-.06.19-.14.41-.33.26s0-.3.09-.45a1.52,1.52,0,0,0,0-.21l-.11-.1-.27-.22-.9.57.39-1-.65-.54a7.37,7.37,0,0,0,0,.94c0,.33-.31.72-.27,1.17s.07.73-.09,1.08c0,.08,0,.15,0,.23a3.34,3.34,0,0,1,0,.95l0,.14a11.38,11.38,0,0,0,.73,2h.1a.28.28,0,0,1,0,.19v0l.35.64c0-.2-.08-.43.17-.5s.35,0,.38.16-.17.07-.25.14l-.12.49a10.93,10.93,0,0,0,1,1.33,1.57,1.57,0,0,1,.09-.23c.45-.39.18.18.27.29s-.08.15-.13.2l.59.59s0,0,0-.05c0-.27.11-.55.17-.82l0,0s0,0,0,.06a.63.63,0,0,1,0,.58l.14.28a1.08,1.08,0,0,1,.21.43,11,11,0,0,0,17.58-5.56C22.06,14.47,21.83,14.5,21.92,14.24Zm-.29-4c.14.27.05.43-.19.57C21.37,10.51,21.43,10.35,21.63,10.25Zm-.56-3.62c.1.15.2.3,0,.46C20.92,6.94,20.89,6.79,21.07,6.63Zm-.36.6c.38-.09.14.47.38.52,0,.2-.13.31-.27.27s-.08-.17,0-.28S20.62,7.42,20.71,7.23Zm-.84-2.31h0c.19.13.56.16.22.58l-.23-.18a.27.27,0,0,1,0-.4Zm.31,1.4c-.31.14-.47-.05-.56-.39C19.89,5.9,20.13,5.91,20.18,6.32ZM20,6.86a.13.13,0,0,1,.11-.05c.07,0,.16,0,.22.29,0-.07-.09,0-.14,0H20.1a10.21,10.21,0,0,1,.66,1.59l-.43.21a9.15,9.15,0,0,0-1.7-3.17L19,5.4A9.85,9.85,0,0,1,20,6.86Zm-1.12-.75c0,.06,0,.11-.05.2,0-.08-.11-.12-.12-.18s0-.16,0-.17S18.88,6,18.88,6.11ZM15.1,3.17a1.5,1.5,0,0,1-.08-.3h0s0,0,0,0l0,0h0a.28.28,0,0,0,0-.08s0,0,0-.05l.06,0c0-.11.07-.19.23-.24h0C15.25,2.77,15.3,3,15.1,3.17ZM15,2.25a.28.28,0,0,1,0-.08l.06,0,0,.08a.11.11,0,0,1,0,.1l-.08,0a.1.1,0,0,0-.06,0,.13.13,0,0,1,0,.08.11.11,0,0,0,0,.07.35.35,0,0,0-.07.12s0,.11-.05.16a.84.84,0,0,1,0,.17.22.22,0,0,1-.1.13h-.05a.46.46,0,0,1,0-.16c0-.07,0-.14.07-.22a1.47,1.47,0,0,1,.1-.22,2.07,2.07,0,0,1,.08-.2l0,0a.16.16,0,0,0,0-.06Zm-1.9-.4s0,0,0,0v0h0Zm.17.14c.11,0,.2,0,.16.18s-.05.32-.22.25S13,2.28,13,2.2,13.13,2,13.24,2Zm-.44-.56h0v.08s0,0,0,0a.1.1,0,0,1,0,.07h0s-.07,0-.07-.08a.07.07,0,0,1,0-.05A.15.15,0,0,1,12.8,1.43Zm0-.07v0h0v0S12.76,1.38,12.77,1.36ZM12.52,1a0,0,0,0,0,0,0s0,0,0,0,0,0,0,0S12.52,1,12.52,1Zm0,.37h0v.06h0Zm-1.23.31h0v0h0Zm-.13.19h0v0h0Zm-.24.63,0,0s0,0,0,0h0v0s0,0,0,0l0,0Zm-.05.11h.05v0h0Zm0-.36,0,0s0,0,0,0h0s0,0,0,0,0,0,0-.06Zm-.15-.33s0,0,0,0l0,0,0,0a0,0,0,0,0,0,0h0l-.05,0,0,0s0,0,0,0l0-.1h0A.12.12,0,0,0,10.65,1.88Zm.1.34H10.7V2.17l0,0S10.74,2.2,10.75,2.22Zm-.14-.55h0l0,0,0-.05s0,0,0,0h0ZM9.47,2.93s0,0,0,0a0,0,0,0,1,0,0H9.42a.06.06,0,0,0,0,0v0h.06ZM9.41,1.27h0v.12h0a.05.05,0,0,1,0,0l0-.05Zm0,.16,0,.07h0l0-.07Zm-.14.47,0,.06h0V2s0,0,0-.07ZM9.19,2h0V2s0,0,0,0h0Zm0,.1s0,0,0,0h0V2.09Zm0,.6v0h0s0,0,0,0l0,0ZM9,2V2h0V2Zm-.09.41h0l0,0h0v0l0,0V2.38Zm-.12-.47h0v0h0v0ZM8.61,1.8v.07l0,0a.11.11,0,0,1,0,0ZM6.21,4.29h0l0,0a0,0,0,0,0,0,0l0,0H6.2A.09.09,0,0,0,6.21,4.29Zm-.06.13h0s0,0,0,0h0l0,0,0,0h.07ZM6,4.13l0-.06h0l0,0v0s0,.07,0,.12a.15.15,0,0,1,0,.11L6,4.29a.13.13,0,0,0,0-.06.09.09,0,0,1,0-.05A0,0,0,0,1,6,4.13Zm-1.37-.6,0,0,0,0h0Zm-.51.13a1.28,1.28,0,0,1,0-.27c.05,0,.12,0,.14.07a.26.26,0,0,1-.09.3C4.14,3.81,4.13,3.72,4.13,3.66Zm-1.32,3H3v0H3a.1.1,0,0,1-.1,0h0l-.06,0Zm-.08,0h0l0,0Zm-.13.2,0,0,0,0,0,0Zm-.32-.13s0,0,0,0,0,0,0,0l0,0Zm.15,1.44,0,0,0,0h0Zm.12.19h0v0h0Zm.58.55h0l0-.05,0,0Zm1.6.32c0-.36.07-.44.33-.26C5.09,9.32,4.94,9.33,4.73,9.23Zm.6-1.74a.06.06,0,0,0,0,0,.16.16,0,0,0,0,.06l0,0h0s0,.05,0,.05h0v0l0,0H4.85l-.1,0H4.66l-.09,0v0l0,0,0,0-.09.19h0l-.07.17a.36.36,0,0,1,0,.1.56.56,0,0,1,0,.12l-.06.13-.06.12s0,0,0,0v.06h0s0,0,0,0a.14.14,0,0,1,0,.07s0,.05,0,.06l.06,0a.06.06,0,0,0,0,0s0,0,0,0l.09,0s0,0,0,0v.05l.12,0a.14.14,0,0,1,0,.12,1.06,1.06,0,0,1,0,.14h0l-.12,0a.12.12,0,0,1-.09,0s0,0,0,0a.19.19,0,0,0-.09,0l0,0A.32.32,0,0,1,4,9.25a.38.38,0,0,1-.22-.41l-.06,0a.11.11,0,0,1-.08-.05V8.71l-.11-.05,0,0v0a.14.14,0,0,0-.11,0c-.12,0-.13-.16-.18-.27h0v0l-.11,0v0l0,0v0l-.11,0s0,0,0-.05l-.12-.06,0,0s0,0,0,0l-.1-.05v0l-.05,0-.08-.06-.09,0,0,0s0,0,0,0v0l-.07,0,0,0a.08.08,0,0,0,0,0l-.06-.07c-.07,0-.06-.12,0-.26L2.29,7l.07,0h.07l0,0,0,0,0,0,.23.1h0l0,0,0,0,.06,0,0,0A.12.12,0,0,1,3,7l.06,0V7c0-.11,0-.24.17-.23s.12,0,.07.13,0,.1-.06.16l0,0,0,0,0,0,.14.06,0,0s0,0,0,0l.08,0,0,0a.12.12,0,0,1,.09,0l.07.06s0,0,0,0l0,0,0,0a.14.14,0,0,0,.07,0s.05,0,.1,0h.11l.08,0,0,0h0l.07,0h.06l.06,0,0,0a.06.06,0,0,0,.1,0h.07a.08.08,0,0,0,0,0l0,0a.28.28,0,0,1,.24,0,1.88,1.88,0,0,1,.3.12v0S5.33,7.46,5.33,7.49ZM3.27,6.55h0v0s0,0,0,0ZM7,5.51s0,0,0,.06H7l0,0v0l0,0,0,0v0H6.79a0,0,0,0,1,0,0l0,0,0,0a.14.14,0,0,0-.11,0H6.54l-.06,0a.11.11,0,0,0-.08,0H6.33l-.06-.06h0l-.18.2A.1.1,0,0,1,6,5.7,0,0,0,0,1,6,5.7l-.07,0A.35.35,0,0,1,6,5.62l.09-.1.12-.12-.1,0A.2.2,0,0,1,6,5.31H6l0,0s0,0,0,0v0H6l0,0,0,0v0h0l-.09,0a.18.18,0,0,0-.1,0l0,0-.08,0-.08,0,0,0s0,0,0,.06,0,0,0,0h0l0,0a.31.31,0,0,1-.12.27.06.06,0,0,0,0,0l0,0s0,.06,0,.1a.47.47,0,0,0,.09.12l.13.12.11.1v0a.67.67,0,0,0,.15.14.26.26,0,0,1,.11.16l0,0,0,.06,0,0,0,0H5.72l0,0a.08.08,0,0,0,0,0h0l0,0a.13.13,0,0,1,0-.06.08.08,0,0,0,0,0h0a.05.05,0,0,1-.05,0s0,0,0,0,0,0,0,0h0l0,0,0,0-.21-.2s0,0,0,0a.11.11,0,0,0,0,0,.07.07,0,0,1-.06,0s0,0,0-.06l-.06-.07a.18.18,0,0,0-.07,0H4.81l0,0h0l-.62-.62c0,.12,0,.23,0,.34s0,.25,0,.31l.1.07.2.14a.65.65,0,0,0,.19.11,0,0,0,0,1,0,0s0,0,0,0L5,6.64H5l.24.16v0a.17.17,0,0,0,.06.06l.08,0,.08,0,.06,0s0,0,0,.06a.11.11,0,0,0,0,.07l0,0,0,0a.14.14,0,0,1,0,.06l0,.05s0,0,0,0l0,0a.05.05,0,0,1,0,0l0,0s0,0,0,0h0l-.06,0H5.25a.07.07,0,0,0,0-.07l-.09-.06-.07,0L4.94,7,4.83,7a.22.22,0,0,1-.07-.06.08.08,0,0,0,0,0l-.34-.23v0l0,0,0,0-.58-.39,0,0-.07,0-.08,0v0a.07.07,0,0,0-.08,0A.08.08,0,0,1,3.4,6L3.34,6s0,0,0,0a.27.27,0,0,0-.14-.13A.23.23,0,0,1,3,5.78.06.06,0,0,1,3,5.7a.54.54,0,0,1,.05-.11l.08-.1,0,0s0,0,0,0h0l.05,0,.08,0h0l0,0a.06.06,0,0,0,0,0l.16.11.1.06,0,0V5.7a2.64,2.64,0,0,1,0-.63l-.18-.18h0l0,0a.33.33,0,0,1,.07-.13l.13-.12.47-.48s.06,0,.09,0L4.42,4l.1-.12a.32.32,0,0,1,.09-.08h0l.09-.09h0l0,0H4.9l0,0h.13s0,0,0,0,0,0,0,0l0,0h.13a.25.25,0,0,1,.08.05l.06,0,0,0,0,0,0,0,0,0h.09a.21.21,0,0,0,0,.19h.06l.07,0,.06,0,0,0,0,0,0,0,0,0,0,0a.09.09,0,0,1,0,0,.08.08,0,0,0,0,0L6,4.36v.07l0,0a.13.13,0,0,0,0,.06,0,0,0,0,1,0,0l0,.05,0,0,0,0a.45.45,0,0,0,0,.08l0,0,0,0-.06.06v0s0,0,0,0h0l0,0a0,0,0,0,1,0-.06H6v.06L6,5h.09a.06.06,0,0,1,.07,0V5l0,0h.1l.08.08,0,0h.06L6.62,5l0,0-.06.07-.07.08.09,0,.1,0,0,0v0h0l0,0s.07,0,.08,0l.08,0s0,0,0,0l.09,0v.05a0,0,0,0,1,0,0A0,0,0,0,1,7,5.51Zm-1.16.24,0,0a.17.17,0,0,1,0,.05.05.05,0,0,0,0,0s0,0,0,0,0,0-.06,0l.13-.13h0ZM7.67,3.5a.91.91,0,0,1-.11.22c0-.05-.07-.1-.07-.14a1.52,1.52,0,0,1,.09-.33C7.64,3.4,7.68,3.46,7.67,3.5Zm0-.91c0-.12-.17-.23,0-.37s.14,0,.19,0S7.76,2.55,7.62,2.59Zm5.46,1.47,0,0h0s0,0,0,0h-.06V4h-.07a.08.08,0,0,1,0,0h-.06a.21.21,0,0,0,0-.11.93.93,0,0,1-.05-.1V3.6l0-.07-.06-.08h-.05l0,0,0,0h-.21v0H12l-.1,0h-.39s0,0,0,0l-.05,0a0,0,0,0,0,0,0s0,0,0,0a.09.09,0,0,1-.06,0,.07.07,0,0,0-.05,0v.06l0,0,0,0v.1l0,0,0,0v.13a.13.13,0,0,1-.1.06l-.15,0V4a.31.31,0,0,0,0-.09h-.07l-.07,0a.43.43,0,0,0,0-.05s0,0,0,0l0,0h0l-.05-.17a.61.61,0,0,1,0-.14.38.38,0,0,0,0-.17l0,0s0,0,0-.07l0,0a.15.15,0,0,0,0-.09.08.08,0,0,1,0-.08s0,0,0,0a0,0,0,0,0,0,0,.37.37,0,0,1-.17-.21,2,2,0,0,1-.1-.32h-.14l0,.06,0,0a.35.35,0,0,1,0,.16L10,2.83a.14.14,0,0,0,0,.09A.11.11,0,0,1,10,3h0l0,0v0a0,0,0,0,1,0,0l.06.07a.12.12,0,0,1,0,.1s0,0,0,0v0h0s0,0,0,0a.5.5,0,0,0,0,.12l0,.12c0,.06,0,.13,0,.2A1.34,1.34,0,0,1,10,4a.78.78,0,0,1-.05.18.25.25,0,0,1-.12.13l0,0,0,0h0a.58.58,0,0,1-.26-.21,1.06,1.06,0,0,1-.15-.28c-.19.12-.34,0-.48-.17a.52.52,0,0,1-.25,0v0a1.09,1.09,0,0,0,.05.17.4.4,0,0,0,.07.13.08.08,0,0,1,0,0s0,0,0,0,0,0,0,0v0h0a.23.23,0,0,1,.05.11.77.77,0,0,1,0,.15.66.66,0,0,1,0,.14.1.1,0,0,1-.05.07.06.06,0,0,0,0,0l-.08,0-.05,0,0,0-.08-.27a.17.17,0,0,0,0-.08.46.46,0,0,0,0-.09.51.51,0,0,1-.08-.22,1.07,1.07,0,0,0-.06-.27.19.19,0,0,0,0-.09s0,0-.06,0l-.13-.47c-.05-.19-.1-.39-.16-.6a4.56,4.56,0,0,0-.19-.56.61.61,0,0,1,.18-.08l.23-.07,0,0h.05l.06.08a.08.08,0,0,0,.09,0s0-.06,0-.09,0,0,.09,0l0,.05a.16.16,0,0,0-.06.08l0,.08A.66.66,0,0,0,8.49,2a.86.86,0,0,0,.13.14h0a.19.19,0,0,1,0,.08.16.16,0,0,0,0,.09l.14.18L9,2.68,9,2.8h.08l0,.08a.07.07,0,0,0,.06,0s0,0,.06.06a.14.14,0,0,0,0,.07.19.19,0,0,0,0,.08l.09.06.06.09.06.12.06.11h0a.1.1,0,0,0,0,0v0l.06-.05.05-.06a.2.2,0,0,0,0-.08v-.1l.09,0A.41.41,0,0,0,9.69,3a.16.16,0,0,1,0-.12.17.17,0,0,1,0-.05l0,0,0-.15a.83.83,0,0,1,0-.13.39.39,0,0,0,0-.14l0-.11,0,0,0,0,0-.11,0,0,0,0,0-.12,0,0s0,0,0,0l0-.11a1.54,1.54,0,0,1,0-.19,1.62,1.62,0,0,0,0-.19.13.13,0,0,0,0-.09.11.11,0,0,1,0-.08l.08,0,.12,0,.12,0,.11,0s0,.05.06,0h.07s0,0,0,0a.08.08,0,0,0,0,0s0,0,0,.05a.13.13,0,0,0,0,.06l.09,0,.08,0s0,.06,0,.07l-.1,0s0,0,0,0h0a0,0,0,0,1,0,0v0a.23.23,0,0,1,.11.14,1,1,0,0,1,.06.25,2.34,2.34,0,0,1,0,.26c0,.08,0,.15,0,.19l0,0a.06.06,0,0,1,0,.07.06.06,0,0,0,0,.06.14.14,0,0,0,0,.06l0,0,0,0,0,.06a.09.09,0,0,0,0,.11s0,0,0,0a.39.39,0,0,0,0,.06h-.06v0l.06.06.05.07,0,0a.13.13,0,0,1,0,.05.15.15,0,0,1,.06.09.11.11,0,0,1,0,.11h0l.12.22v0h0a.14.14,0,0,0,0-.09.23.23,0,0,1,0-.07l.07-.07V3.21h.06s0,0,0-.09,0-.07,0-.09l0,0s0,0,0,0V2.86l0,0,0,0s0,0,0,0a.56.56,0,0,0,0-.07l0,0v0a.12.12,0,0,0,.06-.08.2.2,0,0,0,0-.11h0V2.31h0v0l0,0V2.12l0,0V2l0,0,0,0V1.75h0a.39.39,0,0,1,0-.06.36.36,0,0,0,0-.1.44.44,0,0,0,0-.1.18.18,0,0,0,0-.06s0,0,0,0,0,0,0,0l0-.08,0,0s0,0,0,0l0-.08c0-.07.09-.1.25-.09h.26l0,.06,0,.06v0l0,0s0,0,0,0v.25h0v.05h0v.07h0a.1.1,0,0,1,0,.09.1.1,0,0,0,0,.09l0,0h0l0,0a.43.43,0,0,1,0,.05.08.08,0,0,0-.05,0,0,0,0,0,0,0,.05l0,0,0,0v.16l0,0s0,0,0,0v.09h0a.2.2,0,0,1,0,.11.16.16,0,0,0,0,.08h0l0,0,0,0s0,0,0,.08,0,0,.08.08l0,.1,0,.1h0l0,0v.09l0,0,0,0s0,0,0,0a.06.06,0,0,0,0,.06s0,0,0,0,0,0,0,.06a.08.08,0,0,0,0,0v.06a.26.26,0,0,1,.1.21C13.08,3.85,13.08,4,13.08,4.06Zm.58-.59,0,0h0l-.06.28h0a.11.11,0,0,0,0,.08s0,.06,0,.09v.15l-.07,0s0,0,0,0l0,0v0h0l-.07,0s0,0,0,0l0,0a.09.09,0,0,1,0,0s0,0,0,0h-.06a.08.08,0,0,0,0-.07.35.35,0,0,1,0-.06.06.06,0,0,0,.06-.05.52.52,0,0,1,0-.11v-.2s0-.09,0-.12a.46.46,0,0,1,0-.09h0L13.42,3h0a0,0,0,0,1,0-.05.13.13,0,0,1,0-.06l.14-.68a.18.18,0,0,1,0-.06V2h0a.1.1,0,0,0,0-.09.08.08,0,0,1,0-.08s0,0,0-.06a.15.15,0,0,1,0-.06.37.37,0,0,0,.07-.19.24.24,0,0,1,0-.12s0-.05.07-.06h.12a.34.34,0,0,1,.12,0l.07,0,0,0s0,0,0,0a.39.39,0,0,1,0,.06s0,.07,0,.09,0,0,0,0h0l0,.06h0L14,1.85A.23.23,0,0,1,14,2s0,.11,0,.18l-.05.2a1.57,1.57,0,0,1,0,.16c0,.17,0,.33,0,.49h-.14l-.1.47A0,0,0,0,0,13.66,3.47Zm1.65,1.38h0s-.05,0-.05,0h0l-.12,0h0a.06.06,0,0,1-.06,0s0,0,0,0h0l-.27-.1v0a.12.12,0,0,0-.1,0h-.07l-.15-.06v0s-.05,0-.08,0h-.05L14,4.44v0l0,0s0,0,0,0l0,0,0,0v0s0,0,0,0l-.06,0-.07,0s0,0,0,0a.05.05,0,0,0,0,0l0,0s0,0,0,0l0-.08s0,0,0,0a.07.07,0,0,1,0-.05.05.05,0,0,0,.05,0,.13.13,0,0,1,0-.07l0,0s0,0,0,0h0a0,0,0,0,0,0,0l0,0a.14.14,0,0,1,0-.13.16.16,0,0,0,.07-.09.24.24,0,0,0,0-.1s0,0,0-.1H14a.43.43,0,0,0,0-.07s0,0,0,0,0,0,0-.07h0s0,0,0,0h0L14.16,3h0s0,0,0,0l0-.08,0,0V2.81a.13.13,0,0,0,.12-.1c0-.06,0-.13.07-.2l.34-.9a.13.13,0,0,1,0-.06.36.36,0,0,1,0-.09.38.38,0,0,1,.19,0l.21.09a.36.36,0,0,1-.06.22h0l0,0s0,0,0,0,0,0,0,0h.06v0h0a.08.08,0,0,1,0,0s0,0,0,.05l-.06,0a.07.07,0,0,1,0,0h0A.13.13,0,0,0,15,2a.5.5,0,0,0-.07.13h0v0s0,0,0,.05a.21.21,0,0,0-.06.08l-.19.5A2.2,2.2,0,0,1,14.6,3l-.08.18-.08.19-.09.2-.12.33h0s0,.05,0,.09a.14.14,0,0,0,0,.1s0,0,0,0,0,0,.06,0a.11.11,0,0,1,0,0,.11.11,0,0,0,0,.05h0a.08.08,0,0,1,.08,0l.09,0,.09.06a.19.19,0,0,0,.09,0h0l0,0a.1.1,0,0,1,.1,0l.06.06.11,0h.07l.06,0,.07,0,.07,0,0,0,0,0,0,0h0v0h0a.28.28,0,0,1,0,.09A.26.26,0,0,1,15.31,4.85ZM17.1,5,16,5.1l.79-.72-.29-.65a2.22,2.22,0,0,1-.28.33.41.41,0,0,1-.34-.35.47.47,0,0,1,.44-.41c.11,0,.24-.08.24.16v.07l.72.41.79-.71-.1.46a2.16,2.16,0,0,1,.06.68l.74.43-1.06.11-.22,1Zm.6,1.35.39-.27a7.62,7.62,0,0,1,.48.64s.07.09.09.13h0a8.71,8.71,0,0,1,1.07,2.31l-.43.19A8.11,8.11,0,0,0,17.7,6.33Zm2,4.39c-.28-.18-.26-.45-.17-.75C19.81,10.14,19.51,10.5,19.66,10.72Zm1.09.68-.46,1-.2-1L19,11.17l.68-.36s0-.08,0-.12l.15,0h0l.12-.06-.19-1.05.77.73.94-.51-.46,1,.77.73Zm-7.43,7.43c-.14,0-.19-.2-.17-.32,0-.4.33-.19.52-.28C13.64,18.54,13.58,18.82,13.32,18.83Zm.47.28s-.06.08-.12.14-.08-.14-.08-.19.07-.16.15-.12S13.8,19.05,13.79,19.11Zm-6-1.21h0l0,0v0Zm-1.18.86,0,0,0,0a.1.1,0,0,0,0,0H6.64S6.64,18.76,6.64,18.76ZM3.46,11.84a8.1,8.1,0,0,0,.24,1.68,8,8,0,0,0,.46,1.3l-.46.12a9.5,9.5,0,0,1-.45-1.3A9,9,0,0,1,3,12ZM2.29,14.47c-.08,0-.15.14-.24,0A.26.26,0,0,1,2,14.09c.07-.1.16-.08.24,0s0-.1-.05-.16a9.53,9.53,0,0,1-.27-1.67l.46-.12c0,.13,0,.27,0,.4a.39.39,0,0,1,.05.13.24.24,0,0,0,0,.08,8.36,8.36,0,0,0,.2,1.07c.06.24.13.48.21.71A.31.31,0,0,1,3,14.39a.41.41,0,0,1,0,.46H3a2.6,2.6,0,0,0,.1.25l-.46.11c-.1-.24-.19-.49-.27-.74Zm1.6,2.71L3.15,18,3.3,16.9l-1-.47,1-.18.15-1.06.5.94,1-.19-.74.77.51.94Zm1.17,2.48L5,19.61l0,0,0,0h0a.06.06,0,0,0,0,.06Zm.37.42a.77.77,0,0,1-.22.06c0-.26.19-.42.3-.36S5.53,20,5.43,20.08Zm.17-.56a.37.37,0,0,1,0,.11l0,0,0,0,0,0v0h0s0,0,0,0v0l0,0h.06l.05,0v0A.34.34,0,0,1,5.6,19.52Zm.22.34,0,0h0l-.06,0s0,0,0,0h0a0,0,0,0,1,0,0s0,0,0,0,0,0,0,0,0,0,0,0h0l0,0,0,0a.11.11,0,0,1,.06,0l.07,0s0,0,0,0Zm0-.2s0,0,0,0H5.75a.11.11,0,0,1-.08,0l0,0s0,0,.06,0a.06.06,0,0,1,.07,0Zm-.15-1s0,0,0,0h0v0h0a0,0,0,0,1,0,0h0l0,0Zm.18-.34-.06,0,0,0s0,0-.06,0v0l0,0h0l0,0a.18.18,0,0,0,.1,0,.16.16,0,0,1,.09,0,0,0,0,0,1,0,0s0,0,0,0H5.9Zm.1.12h0l0,0,0,0H6s0,0,0,0Zm1,.77-.08.13,0,.1,0,.05,0,0,0,0s0,0,0,0v0l-.06.07s0,0,0,0,0,0,0,.05a.19.19,0,0,0-.12,0l-.11.12-.11.15c0,.06-.07.1-.09.14a.15.15,0,0,1,0,.07l0,.06a.44.44,0,0,1-.15-.08l-.14-.12s0,0,0,0,0,0,0,0a.13.13,0,0,1,0-.06.08.08,0,0,0,0-.06.39.39,0,0,0,0-.06.11.11,0,0,1,0,0l0-.07a.2.2,0,0,0,0-.07v-.08l0,0s0,0,0,0l0,0,0,0v-.12H6s0,0,0-.05a.06.06,0,0,1,0,0l0-.07,0-.08A.17.17,0,0,1,6,19l0,0v0a.22.22,0,0,1,0-.08.25.25,0,0,0,0-.07l0,0s0,0,0,0l0,0a.06.06,0,0,0,0,0s0,0,0,0l.07-.1a.23.23,0,0,0,0-.07l0-.06a.2.2,0,0,0,0-.07.1.1,0,0,1,0-.06.31.31,0,0,1,0-.08s0-.05,0-.08a.11.11,0,0,0,0-.08.12.12,0,0,0,0-.08l.07,0s0,0,0,0h0s0,0,0,0-.08,0-.12,0L6,17.69v0l0,0a.15.15,0,0,1,0,.11.49.49,0,0,1-.06.13.57.57,0,0,1-.08.13.62.62,0,0,1-.09.12s0,.06,0,.07a.11.11,0,0,1,0,.05s0,0,0,0h0l-.73,1s0,0,0,0H4.77s0,0,0,0v0l0-.05-.06,0,0,0a.15.15,0,0,1,0-.07.09.09,0,0,1,0-.06l0-.06s0,0,.06,0l0-.08a.41.41,0,0,1,0-.09.16.16,0,0,1,.07-.09h0l0,0s0,0,0-.05a.09.09,0,0,1,0-.05.05.05,0,0,1,0,0H5l.24-.32s0,0,0,0v-.06s0,0,0,0h0l0-.05,0-.07a.43.43,0,0,1,0-.07.08.08,0,0,1,0-.05h0s0,0,0,0a0,0,0,0,0,0,0s0,0,0,0h.05a.09.09,0,0,0,0-.06.81.81,0,0,1,.12-.22L6,17.16l.06-.05s0,0,0,0a0,0,0,0,0,0,0v0l.09-.12s0,0,0,0l0,0s0,0,0,0,0,0,0,0l.08-.1.08,0,.09,0a.08.08,0,0,0,0,.07s0,0,0,0l0,.05a.43.43,0,0,1,0,.05s0,0,0,.06l0,.05s0,0,0,0a.08.08,0,0,1,0,0l0,.07s0,0,0,0,0,0,0,0a.1.1,0,0,1,0,0,.07.07,0,0,0,0,.05l0,0,0,.05a.43.43,0,0,1,0,.05l0,.06,0,.05h0v0a.13.13,0,0,1,0,.06s0,0,0,.05h0a.13.13,0,0,1,0,.06V18a0,0,0,0,0,0,0v0a.05.05,0,0,1,0,.06H6.43a.15.15,0,0,1,0,.06A1.26,1.26,0,0,0,6.59,18c0,.32,0,.46-.15.58v0a.06.06,0,0,1,0,0,.08.08,0,0,1,0,.06.14.14,0,0,0,0,.06l0,.06a.11.11,0,0,1,0,.05l0,.05h0v0c.05,0,.11.07.12.13h0l.24-.33a.13.13,0,0,0,.08,0L7,18.7a.39.39,0,0,0,.08-.1.27.27,0,0,0,.06-.1s0,0,0,0a0,0,0,0,1,0,0l.29-.38h0A.1.1,0,0,0,7.54,18l0-.08,0-.07.07,0a.13.13,0,0,1,.07,0v0a0,0,0,0,1,0,0l0,0s0,0,0,0,0,0,0,0l0,0,0,0a.11.11,0,0,0,0,.09l0,.11h0l0,0h0l0,0a0,0,0,0,1,0,0,.37.37,0,0,0-.14.14.75.75,0,0,1-.15.2l0,0s0,0,0,0v.05a.22.22,0,0,1-.07.09.24.24,0,0,0-.09.06l0,0v0a.75.75,0,0,0-.09.09A.83.83,0,0,0,7,19.24Zm.2.56,0,0,0,0a.45.45,0,0,1,0-.08h0s0,0,0,0S7.2,19.77,7.2,19.8Zm2.5,0,0,0,0,0a.11.11,0,0,1,0,0l-.1.26s0,0,0,0,0,0,0,0l0,0,0,.05a.41.41,0,0,0,0,.09l0,.05v.07l0,0,0,.05,0,0s0,0,0,0a.17.17,0,0,0,0,.05s0,0,0,.06L9.27,21a2.14,2.14,0,0,1-.13.19L9,21.32a.56.56,0,0,1-.19.09l-.16,0H8.5l-.18-.06,0,0a.27.27,0,0,1-.12,0l-.1,0L8,21.3a.09.09,0,0,0-.07,0,1.17,1.17,0,0,1-.37-.19,1.18,1.18,0,0,1-.25-.25,1.2,1.2,0,0,1-.13-.31,2,2,0,0,1,0-.35h0v0a.07.07,0,0,0,0-.05h.09s0,0,.06-.09a.19.19,0,0,1,0-.09.44.44,0,0,1,0-.1s.06,0,.08,0a.13.13,0,0,0,.07-.06.06.06,0,0,1,0-.08.12.12,0,0,0,0-.09h0v0a.09.09,0,0,1,0-.05l0-.05,0,0,0,0,.1-.26s0,0,0,0,0,0,0,0V19a.22.22,0,0,1,0-.11h0a.08.08,0,0,0,0-.05v-.06a.06.06,0,0,1,0-.07l.06,0a.09.09,0,0,0,.06,0s0,0,0-.06a.11.11,0,0,1,0-.07l.09,0,.07-.06.06,0h.13l.06,0,.09,0h.09s0,0,0,0a.48.48,0,0,1,.17,0l.2.06.12.05.05,0s0,0,.06,0v0l.14.05s0,0,0,0,0,0,0,0h.17l0,0a1,1,0,0,1,.22.34,1.17,1.17,0,0,1,.09.42.12.12,0,0,1,0,.08.1.1,0,0,0-.06.08s0,.05,0,.07a.26.26,0,0,1,0,.1S9.7,19.75,9.7,19.76Zm.83-.59a.41.41,0,0,1,0,.11v.33s0,.06,0,.08h0l-.06.4h0a.07.07,0,0,1,0,.05s0,0,0,.06l-.11.69v.21h0a.08.08,0,0,0,0,.09.06.06,0,0,1,0,.07s0,0,0,.07a.15.15,0,0,1,0,.06.28.28,0,0,0-.06.19.24.24,0,0,1,0,.12.07.07,0,0,1-.07.06H10l-.13,0-.07,0s0,0,0,0a.08.08,0,0,0,0,0,.1.1,0,0,1,0-.06.28.28,0,0,0,0-.09s0,0,0,0h0v-.06h0l0-.19a.54.54,0,0,1,0-.11q0-.07,0-.18l0-.2c0-.07,0-.13,0-.17s0-.16,0-.25a.58.58,0,0,0,0-.22h0l.07-.48h0s0,0,0,0h0l.05-.28,0,0,0-.07V19l.07,0a.09.09,0,0,0,0-.06s0,0,0,0v0h.12s0,0,0,0,0,0,0,0,0,0,0,0v0h.06a.11.11,0,0,0,0,.06.13.13,0,0,1,0,.06S10.54,19.14,10.53,19.17Zm1,2.8h-.12v0l0,0s0,0,0,0l0,0S11.53,22,11.53,22Zm.28-.42s0,.05,0,.08h0s0,0,0,0a.31.31,0,0,1,0-.25s0,0,0,0h0v0a.34.34,0,0,1,0,.12A.13.13,0,0,0,11.81,21.55Zm.1-.18h0v0h.05A.08.08,0,0,1,11.91,21.37Zm0-1.2.07,0a.08.08,0,0,0,0,0l.06,0,.05.05a.15.15,0,0,1,0,.07.37.37,0,0,1-.14-.07A.19.19,0,0,1,11.91,20.17Zm.29,1.12a.45.45,0,0,1-.09-.1.35.35,0,0,1,0-.16l0,0,.05,0,0,0v0a.21.21,0,0,1,0,.13A.33.33,0,0,1,12.2,21.29Zm.21-.1a.09.09,0,0,0,0-.05v0s0,0,0,0h0l0,.05a.08.08,0,0,1,0,.06Zm.79-.62-.37.07,0,0v.11a.05.05,0,0,0,0,0l0,.05h0c.17,0,.34-.07.48.14-.09.15-.18.14-.27.09a.34.34,0,0,1,0,.08.1.1,0,0,1-.08-.06.08.08,0,0,1,0-.05L12.94,21s0,0,0,0,0,0,0,.07l0,0v0a.27.27,0,0,1,0,.11c0,.06.05.13.08.2l.06.21a.66.66,0,0,1,0,.13l-.06.05h-.1l-.1,0h-.13c0-.05,0-.11-.07-.17a1.66,1.66,0,0,1-.06-.16v-.11a.5.5,0,0,0,0-.07.33.33,0,0,1-.06-.08s0,0,0,0h0a.77.77,0,0,1-.07-.26l0,0V20.8l-.06-.05a0,0,0,0,1,0,0,.14.14,0,0,0,0-.06.46.46,0,0,0,0-.09.25.25,0,0,1,0-.07v-.18a.13.13,0,0,0-.05-.06.2.2,0,0,1-.06-.07.14.14,0,0,1,0-.09V20l-.45,0v.23c0,.1-.07.2-.1.32l-.11.3V21l0,.1a.46.46,0,0,1-.05.1v.16l0,.05,0,0v.14s0,0,0,0l0,0v.11a.2.2,0,0,1,0,.08l0,.1h-.37l0,0a.08.08,0,0,1,0-.06.29.29,0,0,0,.07-.19h0l-.08.12a.13.13,0,0,1-.11.08l0,0s0,0,0,0a.62.62,0,0,0,.08-.12.24.24,0,0,1,.09-.11h0l0,0v-.07a.12.12,0,0,0,.07-.07.29.29,0,0,0,0-.11l0-.12a.37.37,0,0,1,0-.12c0-.09.06-.19.1-.29a1.82,1.82,0,0,1,.11-.28v-.09s0,0,0,0l0,0a.35.35,0,0,0,0-.18V20l.05,0a.09.09,0,0,0,0-.08,0,0,0,0,1,0,0s0,0,0,0l.06,0a.15.15,0,0,0,0-.07.09.09,0,0,1,0-.06.14.14,0,0,1,0-.06.25.25,0,0,1,0-.07.14.14,0,0,0,0-.07.11.11,0,0,1,0-.06s0,0,0,0,0,0,0,0,0,0,0,0v-.16a.6.6,0,0,1,.13-.21.35.35,0,0,1,.25-.09,0,0,0,0,0,.05,0l.08,0a.26.26,0,0,0,0,.07.11.11,0,0,0,0,.05l.11.05a.32.32,0,0,0,0,.09.12.12,0,0,1,0,.08.23.23,0,0,1,0,.16c0,.06,0,.12,0,.18h.06a.49.49,0,0,0,0,.11l0,.09v.14l.12-.16a.27.27,0,0,1,.11.25h.12s0,0,0,0h-.15a.76.76,0,0,0,0,.15c0,.06-.07.06-.11.05v.05a.77.77,0,0,0,.09.13l.08.13v0l.29-.12s0-.07,0-.11.31-.1.36.05S13.31,20.54,13.2,20.57Zm.38.46h0v0Zm.37.32s0,0,0,0a.08.08,0,0,0,0-.05l-.05,0a.19.19,0,0,1,0-.06h0a.1.1,0,0,1,.09,0l0,.05a.2.2,0,0,1,0,.07Zm.1,0a0,0,0,0,1,0,0h0v0h0Zm.23,0,0-.06h0l0,0Zm.11.32s0,0,0,0,0,0,0,0v0Zm6.1-5.91,0,0,0,0,0,0Zm-.1-.21h0v0l0,0Zm-.52-.6h0l0,0h0Zm-4.53,5.69v0h0v0Zm.07-.23v0h0v0Zm0-.79v0l0,0v0Zm1.64-.85h0l0,0a0,0,0,0,1,0,0,.08.08,0,0,1,0,0h.07S17.05,18.75,17.05,18.77Zm.11.19v0a.49.49,0,0,1,0-.12.19.19,0,0,1,0-.12l.07.07a.18.18,0,0,0,0,.06.11.11,0,0,1,0,.05v.05s0,0,0,.07h0Zm0-.32h0v0s0,0,0,0,0,0,.06,0l0,0h-.07Zm1.49.91,0,0,.05,0h0ZM20,17.26l0,0h-.1s0,0-.07,0v0h0a.1.1,0,0,1,.1,0,.06.06,0,0,1,.05,0,.11.11,0,0,1,.05,0Zm.09,0h0v0s0,0,0,0h0v0Zm.14-.19-.05,0,0,0,0,0Zm.31.16s0,0,0,0,0,0,0,0h0Zm0-.23h-.14l0,0h0l0,0-.22-.12h0l0,0h0s0,0,0,0l-.05,0,0,0a.1.1,0,0,1-.09,0,.1.1,0,0,0-.08,0h-.08l0,0a.14.14,0,0,0,0-.06.05.05,0,0,0,0,0l0,0-.05,0-.13-.08,0,0h0l-.08,0h0a.11.11,0,0,1-.09-.05A.17.17,0,0,0,19,16.6s0,0,0,0l0,0s0,0,0,0,0,0-.06-.05a.13.13,0,0,1-.1,0h-.12l-.08-.06,0,0-.07,0h-.11l0,0s0,0-.05,0a0,0,0,0,0,0,0h-.09s0,0,0,0l-.06,0a.27.27,0,0,1-.23,0l-.1-.05s0,0,0,0,0,0,0,.05h.05s0,0,.05.05a0,0,0,0,1,0,0s0,0,0,0h.05s0,0,0,0,0,0,0,0l.2.2s0,0,0,0,0,0,0,.05,0,0,.05,0l.06.05a.35.35,0,0,0,.05.08.18.18,0,0,0,.07,0h.05l.05,0h0l1.08,1.09h0s0,0,0,0a.38.38,0,0,1-.08.13l-.12.12L19,19a.12.12,0,0,0-.09,0,.94.94,0,0,0-.1.1l-.1.12a.17.17,0,0,1-.1.07h0l-.09.09h0l0,0h-.08l0,0h-.13a0,0,0,0,0,0,0s0,0,0,0h0l0,0H18l-.07-.05-.06,0a0,0,0,0,1,0,0h0l0,0h0l0,0h0a6,6,0,0,0-.21,1.23c-.36-.18-.34-.5-.18-.81s.21-.35.13-.59a.14.14,0,0,1,0-.09h0l-.05,0s0,0,0-.05v0l0,0a.05.05,0,0,1,0,0s0,0,0,0a.08.08,0,0,0,0,0l-.06-.06s0,0,0,0v0a0,0,0,0,1,0,0l-.05,0s0,0,0-.05v-.06l0,0h0v0l0,0,0-.08s0,0,0,0l0-.05.06-.06,0,0s0,0,0,0h0v0l0,0h0v0s0,0,0,0l0,0h-.08l-.08,0a0,0,0,0,1,0,0s0,0,0,0H17L16.92,18l-.18-.05-.17-.07a.13.13,0,0,0,0-.06h-.05l0,0-.08,0a.09.09,0,0,1-.08,0s0,0,0,0l-.09,0v-.05s0,0,0,0v0l.05-.06s0,0,0,0l0,0,0,0,0,0v0h.07a.08.08,0,0,0,0,0v0l0,0a.14.14,0,0,0,.11,0h.09l.06.06H17l.06.06.07,0h.06l.08,0,.08.06v0h0s0,0,0,0v0h.05s0,0,0,0l.05,0v0h.1a.15.15,0,0,0,.09,0l.05,0,.08-.05.09-.05s0,0,0,0a.07.07,0,0,0,0,0,.13.13,0,0,1,.06-.07h0s0,0,.05,0,0-.17.12-.26l-.05,0H18a.08.08,0,0,0,0-.1A.77.77,0,0,0,17.9,17l-.13-.12-.1-.1v0s0,0,0,0a.27.27,0,0,0-.07-.08l-.07-.06a.19.19,0,0,1-.06-.07.18.18,0,0,1,0-.09,0,0,0,0,0,0,0l0-.05a.09.09,0,0,0,0-.05l0,0h.06l0,0s0,0,0,0a.18.18,0,0,1,0-.05l.05,0,0-.05,0,0h0l.05-.06h0v0h0l0-.05a.17.17,0,0,0,.12,0H18l.11.06h.08l.09,0,0,0,.05,0,.05,0,.1-.18h0l.09-.16a.23.23,0,0,1,0-.11l0-.11.07-.11a.75.75,0,0,0,.07-.12s0,0,0,0a.11.11,0,0,0,0-.06l0,0,0,0a.06.06,0,0,1,0-.06.15.15,0,0,0,0-.07l-.06,0v0a.08.08,0,0,1,0,0l-.09-.05v-.08l-.12-.07V14.5s0-.06,0-.08a.16.16,0,0,1,0-.06h0l.12,0a.13.13,0,0,1,.09,0s0,0,0,0v0a.22.22,0,0,0,.07.06.14.14,0,0,1,.07.06v0a.07.07,0,0,0,.07,0l.08,0,0,.1,0,0-.09-.19c.46,0,.53.42.7.7a.85.85,0,0,1,.34.47l0,0s0,0,0,0l0,.05.1.06v0l0,0,.08.08.08.06.05,0v0l.07.05,0,.08.1.06v0s0,0,0,0Zm-1,.31h0v0ZM21.68,15s0,0,0,0l0,0v0a0,0,0,0,0,0,0h.05Z"/><rect class="cls-1" x="18.86" y="14.71" width="0.03" height="0.04" transform="translate(-3.35 23.63) rotate(-59.79)"/><polygon class="cls-1" points="18.2 16.12 18.18 16.16 18.21 16.17 18.23 16.14 18.2 16.12"/><path class="cls-1" d="M18.24,16.32h0l0,0v0A0,0,0,0,0,18.24,16.32Z"/><path class="cls-1" d="M18.25,16.24l0,0s0,0,0,0v0h0Z"/><path class="cls-1" d="M18.32,16.17l0,0s0,0,0,0l0,0S18.31,16.16,18.32,16.17Z"/><path class="cls-1" d="M18.33,16.31h0v0l0,0,0,0,0,0s0,0,0,0S18.35,16.33,18.33,16.31Z"/><path class="cls-1" d="M19.07,15.46l0,0s0,0,0,0l0,0v0a0,0,0,0,0,0,0Z"/><path class="cls-1" d="M11.47,20l0,0h0Z"/><path class="cls-1" d="M19.91,13.59v0h0a0,0,0,0,1,0,0s0,0,0,0l0,0h-.07Z"/><path class="cls-1" d="M2.2.8l0,0Z"/><path class="cls-1" d="M21.7.39a.32.32,0,0,0,0-.09Z"/><path class="cls-1" d="M20.4,14.76v0h0v0h0Z"/><path class="cls-1" d="M11.66,19.91h0v-.05S11.66,19.9,11.66,19.91Z"/><polygon class="cls-1" points="11.51 20.01 11.52 20.06 11.55 20.06 11.55 20 11.51 20.01"/><path class="cls-1" d="M10,21.12l0,0,0,0h0l0,0v0Z"/><path class="cls-1" d="M20.31,14.91h0v0h0Z"/><path class="cls-1" d="M10.42,19.06h0S10.41,19.06,10.42,19.06Z"/><path class="cls-1" d="M10,20.9l0,0,0,0h0l0,0v0Z"/><path class="cls-1" d="M20,13.07s0,0,0,0l.09,0s0,0,0,0l0,0L20,13Z"/><path class="cls-1" d="M20.31,13h0l0,0h0Z"/><path class="cls-1" d="M10,21h0l0,0h0l0,0,0,0Z"/><path class="cls-1" d="M20.18,13.29s0,0,0,.05v0s0,0,0-.06,0,0-.05,0v0S20.18,13.27,20.18,13.29Z"/><path class="cls-1" d="M20.24,13.7h0a.14.14,0,0,0,0,.06.13.13,0,0,0,0,.06v.05s0,0,0,0h0a.15.15,0,0,0,0,.1.51.51,0,0,0,0,.13.49.49,0,0,0,0,.12s0,.06,0,.07h0a0,0,0,0,1,0,0,0,0,0,0,1,0,0,0,0,0,0,0,0,0,.07.07,0,0,0,0,.05l.06,0a.05.05,0,0,0,0,0v0h0s0,0,0,0l0,.06h0v0h0l.06,0h.06v0l.18,0,0,0h.05s0,0,0,0h.05a.75.75,0,0,1,.18-.07.32.32,0,0,0,.17-.1v0h0v-.06h0l0-.08.05-.05s0,0,0-.08h0l0,0,0-.13h.05s0,0,0-.05a.06.06,0,0,1,0,0,.11.11,0,0,1,0-.05l0,0,0-.05a.27.27,0,0,1-.07-.08.23.23,0,0,1,0-.11h0l0,0,0,0,0,0,0,0h0a.08.08,0,0,0,0-.07l-.23-.06h0a.06.06,0,0,1-.07,0h0v0l-.08,0-.11,0-.09,0s-.06,0-.07,0h0s0,0,0,0l-.08,0h0l0,.08s0,0,0,.06h-.1a.28.28,0,0,1,0,.11A.19.19,0,0,1,20.24,13.7Zm.77-.23a.08.08,0,0,0,0,0,.1.1,0,0,1,.05,0l0,0s0,0,0,0l.07,0a.1.1,0,0,1,0-.05l.06,0a.38.38,0,0,1,0,.1.06.06,0,0,0,0,0,.31.31,0,0,1,0,.08.15.15,0,0,1,.07.07.17.17,0,0,1,0,.12l-.06,0h-.06v0h0v0s0,0,0,0h.05l0-.09-.05-.07s0-.05-.07-.07a.16.16,0,0,1,0-.06.15.15,0,0,1,0-.06l-.1,0a.14.14,0,0,0,0-.07s0,0,0-.07Zm-.27.52h0a1.21,1.21,0,0,0,.05-.18h0l0-.1h0a0,0,0,0,0,0,0,0,0,0,0,1,0,0,.09.09,0,0,1,0-.08s0,0,.06,0a.1.1,0,0,1,0,0,.25.25,0,0,1,0,.12l0,.13-.2.76h0s0,0,0,0a.11.11,0,0,1,0,0h0l0-.08h0s0-.09,0-.15A.75.75,0,0,0,20.74,14Zm-.2-.59h.06l.07,0v0l-.06,0h-.08Z"/><path class="cls-1" d="M20.24,13v0h0v0h0Z"/><path class="cls-1" d="M12.13,19.8a.49.49,0,0,1,0-.11H12A.38.38,0,0,0,12,19.6a.17.17,0,0,0-.12-.06l0,0s0,.07,0,.08a.1.1,0,0,1,0,.07.4.4,0,0,1,0,.15l-.06.15h.43a.45.45,0,0,0,0-.08A.36.36,0,0,0,12.13,19.8Z"/><path class="cls-2" d="M18.05,11.43l-.1.1a6.21,6.21,0,0,1-.19,1.55l.08-.05a.57.57,0,0,1,.44-.15,6.77,6.77,0,0,0,.11-2L18.3,11Z"/><path class="cls-2" d="M5.2,10.13h0c.05.1,0,.17-.07.18-.26,0-.26.18-.17.4s.06.44-.16.55a.23.23,0,0,0-.14.07,6.85,6.85,0,0,0,.21,1.89,7.2,7.2,0,0,0,.63,1.6v-.05a.24.24,0,0,1,0-.13c.16.07.19.15.19.25s0,.15-.11.14a6.91,6.91,0,0,0,7.09,3.28.68.68,0,0,1,.12-.12.31.31,0,0,1,0,.1l.43-.09a6.87,6.87,0,0,0,4.47-3.63,1.15,1.15,0,0,1,.24-.69,1.36,1.36,0,0,0-.3-.41A6.42,6.42,0,1,1,9.94,5.3l.82-.15a1,1,0,0,1,0-.43.46.46,0,0,1,.29.41l.26,0a.37.37,0,0,1,0-.15c0-.15.05-.23.17-.22s.25,0,.25.23a.32.32,0,0,1,0,.14,6.42,6.42,0,0,1,6.1,4.83c0,.12.06.23.08.34h0s.09.11.08.15a.19.19,0,0,1-.05.09c0,.16,0,.31.06.46a.23.23,0,0,1,.22-.16.79.79,0,0,1,.2-.27c0-.24-.08-.48-.14-.72A6.9,6.9,0,0,0,16.8,7.1s0,0,0,0c-.16.13-.18-.07-.17-.2v0A6.88,6.88,0,0,0,4.93,9.57C5.09,9.65,5.17,9.84,5.2,10.13Z"/><rect class="cls-2" x="2.41" y="8.13" width="0.04" height="0.03" transform="translate(-5.99 6.99) rotate(-65.65)"/><path class="cls-2" d="M2.73,6.68h0Z"/><path class="cls-2" d="M2.9,6.71a.1.1,0,0,0,.1,0H3v0h-.2l0,0,.06,0Z"/><path class="cls-2" d="M3.26,7.61l0,0h0v0l0-.07h0Z"/><path class="cls-2" d="M5.33,7.4A1.88,1.88,0,0,0,5,7.28a.28.28,0,0,0-.24,0l0,0a.08.08,0,0,1,0,0H4.65a.06.06,0,0,1-.1,0l0,0-.06,0H4.4l-.07,0h0l0,0-.08,0H4.08s-.09,0-.1,0a.14.14,0,0,1-.07,0l0,0,0,0s0,0,0,0l-.07-.06a.12.12,0,0,0-.09,0l0,0-.08,0s0,0,0,0l0,0-.14-.06,0,0,0,0,0,0a.15.15,0,0,1-.12.09S3.09,7.08,3.09,7L3,7a.12.12,0,0,0-.09,0l0,0L2.86,7l0,0,0,0h0l-.23-.1,0,0,0,0,0,0H2.36L2.29,7l-.1.23c-.07.14-.08.23,0,.26l.06.07a.08.08,0,0,1,0,0l0,0,.07,0v0s0,0,0,0l0,0,.09,0,.08.06.05,0v0l.1.05s0,0,0,0l0,0,.12.06s0,0,0,.05l.11,0v0l0,0v0l.11,0v0h0a.16.16,0,0,0,0-.07c0-.15.12-.27.24-.2h0V8.09l0,0a.06.06,0,0,0,0,0S3.27,8,3.27,8a.16.16,0,0,0,0-.08h0v0l0,0v0L3,7.75a.35.35,0,0,0,0-.08L2.92,7.6c0-.08,0-.13,0-.17s.08,0,.21,0h.16l.18,0,.15,0,.12,0,0,0s0,0,0,0H4s0,0,0,0,0,0,0,0L4,7.52l0,.07v.08s0,0,0,0h0l0,0,0,0h0a.18.18,0,0,0,0,.06L4,7.82a.13.13,0,0,0-.05.11L4,8s0,0,0,0,0,0,0,.05l0,0,0,0,0,.08a.1.1,0,0,1-.05,0l0,.08,0,0s0,0,0,0h0l-.06,0-.06,0h0a2.85,2.85,0,0,0,0,.29l0,0,.11.05v.06a.11.11,0,0,0,.08.05l.06,0v0H4.1A1.67,1.67,0,0,0,4.15,9h0V9a.18.18,0,0,1,0,.16l0,0a.19.19,0,0,1,.09,0s0,0,0,0a.12.12,0,0,0,.09,0l.12,0h0a1.06,1.06,0,0,0,0-.14.14.14,0,0,0,0-.12l-.12,0V9s0,0,0,0l-.09,0s0,0,0,0a.06.06,0,0,1,0,0l-.06,0s0,0,0-.06a.14.14,0,0,0,0-.07s0,0,0,0h0V8.6s0,0,0,0l.06-.12.06-.13a.56.56,0,0,0,0-.12.36.36,0,0,0,0-.1l.07-.17h0l.09-.19,0,0,0,0v0l.09,0h.09l.1,0h.23l0,0v0h0s0,0,0-.05h0l0,0a.16.16,0,0,1,0-.06.06.06,0,0,1,0,0s0,0,0,0Zm-1.43,1,0,0s0,0,0,0l0,0,0,0,0,0Zm.42.83h0s0,0,0,0v0l0,0Zm.22-1.85h0l0,0a0,0,0,0,1,0,0l0,0,0,0a0,0,0,0,0,0,0Zm0,.15v0l0,0Zm0-.17s0,0,0,0l0,0,0,0Zm0,.09,0,0h0v.05Zm.07.11,0,0v0l0,0Zm.15-.11,0,0,0,0,0,0Z"/><path class="cls-2" d="M3.5,8.21a.24.24,0,0,1,0,.08l0,0Z"/><rect class="cls-2" x="2.59" y="6.86" width="0.05" height="0.06" transform="translate(-4.74 6.43) rotate(-65.66)"/><rect class="cls-2" x="2.54" y="8.33" width="0.02" height="0.02" transform="matrix(0.41, -0.91, 0.91, 0.41, -6.11, 7.22)"/><rect class="cls-2" x="3.11" y="8.87" width="0.05" height="0.03" transform="translate(-6.25 8.06) rotate(-65.59)"/><path class="cls-2" d="M2.29,6.74s0,0,0,0h0l0,0S2.29,6.76,2.29,6.74Z"/><path class="cls-2" d="M3.3,6.55h0s0,0,0,0Z"/><path class="cls-2" d="M3.85,6V6l0,0h0a.43.43,0,0,0,0,0V6h0a.48.48,0,0,1-.06-.18l0,0-.1-.06-.16-.11a.06.06,0,0,1,0,0l0,0h0l-.08,0-.05,0h0s0,0,0,0l0,0-.08.1A.54.54,0,0,0,3,5.7a.06.06,0,0,0,0,.08.23.23,0,0,0,.12.06A.27.27,0,0,1,3.29,6s0,0,0,0L3.4,6a.08.08,0,0,0,.07,0,.07.07,0,0,1,.08,0v0l.08,0,.07,0,0,0,.58.39,0,0,0,0v0l.34.23a.08.08,0,0,1,0,0A.22.22,0,0,0,4.83,7l.11,0,.11,0,.07,0,.09.06a.07.07,0,0,1,0,.07h.06l.06,0h0s0,0,0,0l0,0a.05.05,0,0,0,0,0l0,0s0,0,0,0l0-.05a.14.14,0,0,0,0-.06l0,0,0,0a.11.11,0,0,1,0-.07s0,0,0-.06L5.49,7l-.08,0-.08,0a.17.17,0,0,1-.06-.06v0L5,6.63H5l-.39-.27s0,0,0,0a0,0,0,0,0,0,0,.65.65,0,0,1-.19-.11l-.2-.14L4.09,6,4,6A.19.19,0,0,1,3.85,6Zm-.46-.24H3.34a.08.08,0,0,1,0,0v0h0l0,.06Zm.07.07h0v0h0s0,0,0,0,0,0,0,0h0v0Zm.11,0a0,0,0,0,0,0,0h0v0l0,0h.05S3.57,5.81,3.57,5.82Zm.08.1h0a.1.1,0,0,1,0,0v0h0v0Zm.11,0V6h0V5.91h.06Zm1.6,1.15h0v0h0Z"/><path class="cls-2" d="M7,5.44V5.39l-.09,0s-.05,0,0,0l-.08,0s0,0-.08,0l0,0h0v0l0,0-.1,0-.09,0,.07-.08L6.65,5l0,0-.15.15H6.41l0,0L6.28,5h-.1l0,0V5a.06.06,0,0,0-.07,0H6l0,0V4.86H6a0,0,0,0,0,0,.06l0,0h0s0,0,0,0v0l.06-.06,0,0,0,0a.45.45,0,0,1,0-.08l0,0,0,0,0-.05a0,0,0,0,0,0,0,.13.13,0,0,1,0-.06l0,0V4.36L5.92,4.3a.08.08,0,0,1,0,0,.09.09,0,0,0,0,0l0,0,0,0,0,0,0,0,0,0L5.76,4,5.69,4H5.63a.21.21,0,0,1,0-.19H5.54l0,0,0,0,0,0,0,0-.06,0a.25.25,0,0,0-.08-.05H5.13l0,0s0,0,0,0,0,0,0,0H4.93l0,0H4.82l0,0h0l-.09.09h0a.32.32,0,0,0-.09.08L4.42,4l-.09.1s-.06,0-.09,0l-.47.48-.13.12a.33.33,0,0,0-.07.13l0,0h0l.18.18A1.14,1.14,0,0,1,4,4.61c0-.14,0-.33.24-.42a3.18,3.18,0,0,0,.1.33h.07a.14.14,0,0,0,0-.09.32.32,0,0,1,0-.09l0,0,0,0a.18.18,0,0,0,.07,0,.11.11,0,0,0,0-.06.36.36,0,0,1,.09-.09l.09,0h0l.06,0h0l0,0a.2.2,0,0,1,.13,0l.14,0h0l0,0,.06.08.08.08a.12.12,0,0,0,.07,0,.39.39,0,0,1,0,.14.37.37,0,0,1,0,.15.16.16,0,0,1,0,.07l0,.06a.07.07,0,0,0,0,.06.15.15,0,0,0,0,.08H5.49L5.42,5s0,0,0,0,0,0,0,.06l-.09.06-.08,0h0l0,0v0l0,0h0L5,5.38H4.94s0,0,0,0l0,0-.14-.08a1.54,1.54,0,0,1-.19-.17v0s0,0,0,0a.08.08,0,0,0,0,0l0,0h0s0,0,0,0l-.08.08L4.31,5v0L4.22,5a.48.48,0,0,0-.11.34L4.73,6h0l0,0h.05a.18.18,0,0,1,.07,0L5,6.12s0,0,0,.06a.07.07,0,0,0,.06,0,.11.11,0,0,1,0,0s0,0,0,0l.21.2,0,0,0,0h0s0,0,0,0,0,0,0,0a.05.05,0,0,0,.05,0h0a.08.08,0,0,1,0,0,.13.13,0,0,0,0,.06l0,0h0a.08.08,0,0,1,0,0l0,0h.06l0,0,0,0,0-.06,0,0a.26.26,0,0,0-.11-.16.67.67,0,0,1-.15-.14v0l-.11-.1-.13-.12A.47.47,0,0,1,5.3,6s0-.07,0-.1l0,0a.06.06,0,0,1,0,0,.31.31,0,0,0,.12-.27l0,0h0s0,0,0,0,0-.05,0-.06l0,0,.08,0,.08,0,0,0a.18.18,0,0,1,.1,0l.09,0h0v0l0,0,0,0H6v0s0,0,0,0l0,0H6a.2.2,0,0,0,.11.07l.1,0-.12.12L6,5.62a.35.35,0,0,0-.08.1L6,5.7A0,0,0,0,0,6,5.7a.1.1,0,0,0,0-.09l.18-.2h0l.06.06H6.4a.11.11,0,0,1,.08,0l.06,0h.09a.14.14,0,0,1,.11,0l0,0,0,0a0,0,0,0,0,0,0h.07v0l0,0,0,0v0l0,0H7s0,0,0-.06a0,0,0,0,0,0,0A0,0,0,0,0,7,5.44ZM5.05,6,5,6h0V6Zm0,.14s0,0,0-.05h0s0,0,0,0v0Zm0-.25,0-.06s0,0-.06,0l0,0,0,0,0,0,0,0,0,0Zm.23-.51s0,0,0,0h0Zm.19-.2,0,0v0l0,0,0,0Zm.18,0h0s0,0,0,0,0,0,0,0l0,0h0v0Zm.1-.2a.07.07,0,0,0-.06,0V5a0,0,0,0,1,0,0h.08Zm.45.19h0l0,0h0v0h0Z"/><path class="cls-2" d="M4.77,5a.11.11,0,0,0,0-.08,1.14,1.14,0,0,1,.15-.17l.16-.16.16-.15a.79.79,0,0,0,.13-.14l0,0-.54.56-.1.09a.46.46,0,0,0-.07.1L4.7,5S4.75,5,4.77,5Z"/><path class="cls-2" d="M6.26,4.35l0,0a0,0,0,0,1,0,0l0,0h0a.09.09,0,0,1,0,0h.06Z"/><path class="cls-2" d="M4.67,3.56l0,0,0,.06h0Z"/><path class="cls-2" d="M6,4.29l.07.06a.15.15,0,0,0,0-.11s0-.08,0-.12v0l0,0h0l0,.06a0,0,0,0,0,0,0,.09.09,0,0,0,0,.05A.13.13,0,0,1,6,4.29Z"/><path class="cls-2" d="M6.08,4.41l0,0,0,0h0s0,0,0,0H6.08Z"/><path class="cls-2" d="M5.84,5.76l-.13.13s0,0,.06,0,0,0,0,0a.05.05,0,0,1,0,0,.17.17,0,0,0,0-.05l0,0h0Z"/><path class="cls-2" d="M9.42,1.38h0V1.26h0l0,0,0,.05A.05.05,0,0,0,9.42,1.38Z"/><rect class="cls-2" x="9.37" y="1.44" width="0.03" height="0.07" transform="translate(-0.05 2.57) rotate(-15.53)"/><path class="cls-2" d="M9.24,2h0l0-.06h0s0,.05,0,.07Z"/><path class="cls-2" d="M9.2,2s0,0,0,0V2h0V2Z"/><path class="cls-2" d="M9.14,2.14h0s0,0,0,0h0v.05Z"/><path class="cls-2" d="M10.59,1.83l0,.1s0,0,0,0l0,0,.05,0h0a0,0,0,0,1,0,0l0,0,0,0s0,0,0,0a.12.12,0,0,1,0-.07h0Z"/><path class="cls-2" d="M9.13,2.77h0v0H9.1l0,0S9.13,2.76,9.13,2.77Z"/><path class="cls-2" d="M10.82,2.31h0s0,0,0,0l0,0h0s0,0,0,.06S10.81,2.29,10.82,2.31Z"/><path class="cls-2" d="M9.41,3a.06.06,0,0,1,0,0H9.5a0,0,0,0,0,0,0s0,0,0,0H9.41Z"/><path class="cls-2" d="M10.53,1.65l0,.05,0,0h0l0,0h0S10.54,1.65,10.53,1.65Z"/><path class="cls-2" d="M10.72,2.19l0,0v.06h.05S10.73,2.19,10.72,2.19Z"/><path class="cls-2" d="M10.92,2.53v0h0s0,0,0,0l0,0h0l0,0S10.9,2.52,10.92,2.53Z"/><path class="cls-2" d="M11,3.82h0v0h0l0,0Z"/><polygon class="cls-2" points="8.96 1.97 8.95 1.95 8.93 1.95 8.94 1.97 8.96 1.97"/><path class="cls-2" d="M8.61,1.87V1.8H8.55a.11.11,0,0,0,0,0Z"/><path class="cls-2" d="M8.88,2.42v0h0l0,0h0l0,0v.06Z"/><path class="cls-2" d="M10.9,3.79h0a.3.3,0,0,0,0-.1.08.08,0,0,1,0-.07v0l-.12-.22h0a.11.11,0,0,0,0-.11.15.15,0,0,0-.06-.09.13.13,0,0,0,0-.05l0,0L10.77,3l-.06-.06v0h.06a.39.39,0,0,1,0-.06s0,0,0,0a.09.09,0,0,1,0-.11l0-.06,0,0,0,0a.14.14,0,0,1,0-.06.06.06,0,0,1,0-.06.06.06,0,0,0,0-.07l0,0s0-.11,0-.19a2.34,2.34,0,0,0,0-.26,1,1,0,0,0-.06-.25.23.23,0,0,0-.11-.14v0a0,0,0,0,0,0,0h0s0,0,0,0l.1,0s0,0,0-.07l-.08,0-.09,0a.13.13,0,0,1,0-.06s0,0,0-.05a.08.08,0,0,1,0,0s0,0,0,0h-.07s0,0-.06,0l-.11,0-.12,0-.12,0-.08,0a.11.11,0,0,0,0,.08.13.13,0,0,1,0,.09,1.62,1.62,0,0,1,0,.19,1.54,1.54,0,0,0,0,.19l0,.11s0,0,0,0l0,0,0,.12,0,0,0,0,0,.11,0,0,0,0,0,.11a.39.39,0,0,1,0,.14.83.83,0,0,0,0,.13l0,.15,0,0a.17.17,0,0,0,0,.05.16.16,0,0,0,0,.12.41.41,0,0,1,.07.11l-.09,0v.1a.2.2,0,0,1,0,.08l-.05.06-.06.05v0a.1.1,0,0,1,0,0h0l-.06-.11L9.38,3.3l-.06-.09-.09-.06a.19.19,0,0,1,0-.08.14.14,0,0,1,0-.07s0-.06-.06-.06a.07.07,0,0,1-.06,0l0-.08H9l0-.12-.13-.17-.14-.18a.16.16,0,0,1,0-.09.19.19,0,0,0,0-.08h0A.86.86,0,0,1,8.49,2a.66.66,0,0,1-.09-.19l0-.08a.16.16,0,0,1,.06-.08l0-.05c-.05,0-.08,0-.09,0s0,.06,0,.09a.08.08,0,0,1-.09,0l-.06-.08H8.18l0,0-.23.07a.61.61,0,0,0-.18.08,4.56,4.56,0,0,1,.19.56c.06.21.11.41.16.6l.13.47s0,0,.06,0a.19.19,0,0,1,0,.09,1.07,1.07,0,0,1,.06.27A.51.51,0,0,0,8.44,4a.46.46,0,0,1,0,.09.17.17,0,0,1,0,.08l.08.27,0,0,.05,0,.08,0a.06.06,0,0,1,0,0,.1.1,0,0,0,.05-.07.66.66,0,0,0,0-.14.77.77,0,0,0,0-.15.23.23,0,0,0-.05-.11h0V4s0,0,0,0,0,0,0,0a.08.08,0,0,0,0,0,.4.4,0,0,1-.07-.13,1.09,1.09,0,0,1-.05-.17v0a.42.42,0,0,1-.23-.24.37.37,0,0,1,.21-.08s0-.1,0-.16a1.16,1.16,0,0,1,0-.18.05.05,0,0,1,0,0s0,0,0,0l.08,0,.08,0a.25.25,0,0,0,0,.1l.09,0,.05.15s0,0,0-.06,0,0,0,0H9a.08.08,0,0,1,0,.07l-.06,0,.06.1.06.06c.12,0,.27,0,.35.16a.22.22,0,0,1-.06.16l0,0a1.06,1.06,0,0,0,.15.28.58.58,0,0,0,.26.21h0l0,0,0,0a.25.25,0,0,0,.12-.13A.78.78,0,0,0,10,4a1.34,1.34,0,0,0,0-.2c0-.07,0-.14,0-.2l0-.12a.5.5,0,0,1,0-.12s0,0,0,0h0v0s0,0,0,0a.12.12,0,0,0,0-.1L10,3.08a0,0,0,0,0,0,0V3l0,0h0a.11.11,0,0,0,0-.08.14.14,0,0,1,0-.09l.05-.11a.35.35,0,0,0,0-.16l0,0,0-.06h.14a2,2,0,0,0,.1.32.37.37,0,0,0,.17.21,0,0,0,0,1,0,0s0,0,0,0a.08.08,0,0,0,0,.08.15.15,0,0,1,0,.09l0,0s0,.06,0,.07l0,0a.38.38,0,0,1,0,.17.61.61,0,0,0,0,.14l.05.17h0l0,0s0,0,0,0a.43.43,0,0,1,0,.05l.07,0h.07v0A.14.14,0,0,1,10.9,3.79ZM9.12,3.3v0a0,0,0,0,1,0,0h0l0,0Zm.32.2h0l0,0,.06,0v0h0Zm.06.4h0v0Zm.13-.32.06,0h0l0,.05C9.67,3.62,9.63,3.61,9.63,3.58Zm.14-.12h0v0s0,0,0,0h0v0Zm.08.27H9.79s0,0,0,0v0h0v0S9.85,3.72,9.85,3.73Zm.05-.44h0v0h0Zm0-.13h0V3.1h0S9.93,3.15,9.92,3.16Zm.73.1v0h0v0Zm0-.39,0,0v0h0l0,0,.05,0v0Zm.1.27v0h0v0Z"/><path class="cls-2" d="M8.75,1.93h0v0h0v0Z"/><path class="cls-2" d="M12.53,1s0,0,0,0a0,0,0,0,1,0,0s0,0,0,0S12.52,1,12.53,1Z"/><polygon class="cls-2" points="12.54 1.33 12.49 1.33 12.49 1.39 12.54 1.39 12.54 1.33"/><rect class="cls-2" x="11.27" y="1.64" width="0.03" height="0.04" transform="translate(9.23 12.88) rotate(-87.96)"/><rect class="cls-2" x="11.14" y="1.83" width="0.02" height="0.02" transform="matrix(0.04, -1, 1, 0.04, 8.88, 12.91)"/><rect class="cls-2" x="10.86" y="2.56" width="0.03" height="0.05" transform="translate(7.87 13.35) rotate(-87.81)"/><path class="cls-2" d="M12.05,2.22v0h.06v0h-.06Z"/><path class="cls-2" d="M13.08,1.83s0,0,0,0v0h0Z"/><path class="cls-2" d="M12.77,1.4h0v0s0,0,0,0v0Z"/><path class="cls-2" d="M12.87,1.63h0a.1.1,0,0,0,0-.07s0,0,0,0V1.44h0a.15.15,0,0,0,0,.07.07.07,0,0,0,0,.05S12.83,1.61,12.87,1.63Z"/><path class="cls-2" d="M13,3.53V3.47a.08.08,0,0,1,0,0s0-.06,0-.06,0,0,0,0a.06.06,0,0,1,0-.06s0,0,0,0l0,0,0,0V3.05l0,0h0l0-.1,0-.1s-.05-.07-.08-.08,0-.07,0-.08l0,0,0,0h0a.16.16,0,0,1,0-.08.2.2,0,0,0,0-.11h0V2.32s0,0,0,0l0,0V2.12l0,0,0,0a0,0,0,0,1,0-.05.08.08,0,0,1,.05,0,.43.43,0,0,0,0-.05l0,0h0l0,0a.1.1,0,0,1,0-.09.1.1,0,0,0,0-.09h0V1.62h0V1.56h0V1.29s0,0,0,0l0,0v0l0-.06,0-.06h-.26c-.16,0-.24,0-.25.09l0,.08s0,0,0,0l0,0,0,.08s0,0,0,0,0,0,0,0a.18.18,0,0,1,0,.06.44.44,0,0,1,0,.1.36.36,0,0,1,0,.1.39.39,0,0,0,0,.06h0v.12l0,0,0,0v.14l0,0v.11l0,0v0h0v.12h0a.2.2,0,0,1,0,.11.12.12,0,0,1-.06.08v0l0,0a.56.56,0,0,1,0,.07s0,0,0,0l0,0,0,0V3s0,0,0,0l0,0s0,.05,0,.09,0,.07,0,.09h-.06v.14L11,3.42a.23.23,0,0,0,0,.07.14.14,0,0,1,0,.09h0v0a.08.08,0,0,0,0,.07.3.3,0,0,1,0,.1h0a.14.14,0,0,0,0,.09v0a.31.31,0,0,1,0,.09V4l.15,0a.13.13,0,0,0,.1-.06V3.8l0,0,0,0v-.1l0,0,0,0V3.55a.07.07,0,0,1,.05,0,.09.09,0,0,0,.06,0s0,0,0,0a0,0,0,0,1,0,0l.05,0s0,0,0,0h.39l.1,0h.19v0h.21l0,0,0,0h.05l.06.08,0,.07v.11a.93.93,0,0,0,.05.1.21.21,0,0,1,0,.11h.06a.08.08,0,0,0,0,0h.07v.06H13s0,0,0,0h0l0,0c0-.11,0-.21,0-.32A.26.26,0,0,0,13,3.53Zm-2,.32h0v0h0Zm.15-.25h0v0h0Zm.52-.5s0,0,0,0h0l0,0s0,0,0,0h0S11.66,3.09,11.66,3.1ZM12.47,3V2.9L12.41,3l-.07,0h.06v.06h-.05s0,0,0,0h-.06l-.09,0a.13.13,0,0,0-.12,0s0,0,0,0S12,3,12,3s0,0,0,0h0s0,0,0,0h-.09a.09.09,0,0,1-.06,0,.27.27,0,0,1-.09,0h-.09s0,0,0,0V2.79a.1.1,0,0,0,0,0h0s0,0,.05,0h.07a.56.56,0,0,0,0-.07s0-.06,0-.07l0,0h.05a.35.35,0,0,1,0-.06s0,0,0,0,0-.08.05-.09a.13.13,0,0,0,.06,0,0,0,0,0,0,0,0v0h0V2.22h0V2.06a.56.56,0,0,0,0-.08L12,1.91a.26.26,0,0,1,.14-.09s.07.07.09.19a.75.75,0,0,1,0,.16c0,.06,0,.12.05.17a1.55,1.55,0,0,0,0,.15.54.54,0,0,0,.06.11.07.07,0,0,1,0,0l0,0,0,.11a.56.56,0,0,1,0,.12s0,0,0,0S12.48,3,12.47,3Zm.19.48h0v0h0v0Zm.05.1h0v0h0Zm.06-.07h0v0h0Zm0-.14s0,0,0,0l0,0,0,0s0,0,0,0a0,0,0,0,0,0,0h0Zm0,.07,0,0h0v0Zm.07.24h0v0h0Z"/><path class="cls-2" d="M13.61,3c-.23-.33-.09-.62.14-.9l0,.08h.05l0,0,0,0h0a1.32,1.32,0,0,1,.08.33,1.57,1.57,0,0,0,0-.16l.05-.2C14,2.07,14,2,14,2a.23.23,0,0,0,0-.11l.05-.19h0l0-.06h0s0,0,0,0,0-.05,0-.09a.39.39,0,0,0,0-.06s0,0,0,0l0,0-.07,0a.34.34,0,0,0-.12,0h-.12s-.06,0-.07.06a.24.24,0,0,0,0,.12.37.37,0,0,1-.07.19.15.15,0,0,0,0,.06s0,.06,0,.06a.08.08,0,0,0,0,.08.1.1,0,0,1,0,.09h0V2.1a.18.18,0,0,0,0,.06l-.14.68a.13.13,0,0,0,0,.06,0,0,0,0,0,0,.05h0l-.09.41h0a.46.46,0,0,0,0,.09s0,.07,0,.12v.2a.52.52,0,0,0,0,.11.06.06,0,0,1-.06.05.35.35,0,0,0,0,.06.08.08,0,0,1,0,.07h.06s0,0,0,0a.09.09,0,0,0,0,0l0,0s0,0,0,0l.07,0h0v0l0,0s0,0,0,0l.07,0V4s0-.06,0-.09a.11.11,0,0,1,0-.08h0l.06-.28h0l0,0a0,0,0,0,1,0,0l.1-.47C13.69,3,13.63,3,13.61,3Zm.29-1.38h0l0,0,0,0h0l0,0A.05.05,0,0,1,13.9,1.57Zm-.06.12h0s0,0,0,0l0,0,0,0h-.05v0h0Zm0,.1h.05v.05h-.07l0,0Zm0,.12h0l0,0,0,0h0v0Zm0,.09h0l0,0h-.06l0,0Zm-.45,2h0V4h0A0,0,0,0,0,13.36,4Z"/><path class="cls-2" d="M15,2.82,15,2.8s0,0,0,.05a.28.28,0,0,1,0,.08h0l0,0s0,0,0,0h0Z"/><path class="cls-2" d="M14.93,2.38a2.07,2.07,0,0,0-.08.2,1.47,1.47,0,0,0-.1.22c0,.08-.05.15-.07.22a.46.46,0,0,0,0,.16h.05a.22.22,0,0,0,.1-.13.84.84,0,0,0,0-.17c0-.05,0-.11.05-.16A.35.35,0,0,1,15,2.61a.11.11,0,0,1,0-.07.13.13,0,0,0,0-.08.1.1,0,0,1,.06,0l.08,0a.11.11,0,0,0,0-.1l0-.08-.06,0a.28.28,0,0,0,0,.08l0,0a.16.16,0,0,1,0,.06Z"/><path class="cls-2" d="M15.29,4.65v0h0l0,0,0,0,0,0-.07,0-.07,0-.06,0H15l-.11,0-.06-.06a.1.1,0,0,0-.1,0l0,0h0a.19.19,0,0,1-.09,0l-.09-.06-.09,0a.08.08,0,0,0-.08,0h0a.11.11,0,0,1,0-.05.11.11,0,0,0,0,0s0,0-.06,0,0,0,0,0a.14.14,0,0,1,0-.1s0-.07,0-.09h0l.12-.33.09-.2.08-.19L14.6,3a2.2,2.2,0,0,0,.09-.21l.19-.5a.21.21,0,0,1,.06-.08s0,0,0-.05v0h0A.5.5,0,0,1,15,2a.13.13,0,0,1,.09,0h0a.07.07,0,0,0,0,0l.06,0s0,0,0-.05a.08.08,0,0,0,0,0h0v0h-.06s0,0,0,0,0,0,0,0l0,0h0a.36.36,0,0,0,.06-.22l-.21-.09a.38.38,0,0,0-.19,0,.36.36,0,0,0,0,.09.13.13,0,0,0,0,.06l-.34.9c0,.07-.05.14-.07.2a.13.13,0,0,1-.12.1V2.9l0,0,0,.08s0,0,0,0h0l-.06.17h0s0,0,0,0h0s0,.06,0,.07,0,0,0,0a.43.43,0,0,1,0,.07H14c0,.05,0,.08,0,.1a.24.24,0,0,1,0,.1.16.16,0,0,1-.07.09.14.14,0,0,0,0,.13l0,0a0,0,0,0,1,0,0h0s0,0,0,0l0,0a.13.13,0,0,0,0,.07.05.05,0,0,1-.05,0,.07.07,0,0,0,0,.05s0,0,0,0l0,.08s0,0,0,0l0,0a.05.05,0,0,1,0,0s0,0,0,0l.07,0,.06,0s0,0,0,0v0l0,0,0,0s0,0,0,0l0,0v0l.17.06h.05s0,0,.08,0v0l.15.06h.07a.12.12,0,0,1,.1,0v0l.27.1h0s0,0,0,0a.06.06,0,0,0,.06,0h0l.12,0h0s0,0,.05,0h0a.26.26,0,0,0,0-.1.28.28,0,0,0,0-.09Zm-1.43-.57h0s0,0,0,0a0,0,0,0,1,0,0h0Zm0,.1h0v0h0Zm.16-.11,0,0h0a0,0,0,0,0,0,0h0s0,0,0,0A.1.1,0,0,1,14.06,4.07Zm0,.09,0,0v0h0Zm.14.13-.06,0h0s0,0,0,0h.05l0,0h0Zm.07.18s0,0,0,0v0h0Zm.08,0h0a0,0,0,0,1,0,0v0l0,0Zm.71.28,0,0v0h0s0,0,0,0Z"/><polygon class="cls-2" points="19.32 13.85 19.32 13.85 19.31 13.85 19.32 13.85"/><path class="cls-2" d="M21,13.6l.1,0s0,0,0,0l0,0a.1.1,0,0,0-.05,0,.08.08,0,0,1,0,0h-.08s0,.06,0,.07A.14.14,0,0,1,21,13.6Z"/><path class="cls-2" d="M20.64,14.3l0,.08h0a.11.11,0,0,0,0,0s0,0,0,0h0l.2-.76,0-.13a.25.25,0,0,0,0-.12.1.1,0,0,0,0,0s-.06,0-.06,0a.09.09,0,0,0,0,.08,0,0,0,0,0,0,0,0,0,0,0,1,0,0h0l0,.1h0a1.21,1.21,0,0,1-.05.18h0a.75.75,0,0,1,0,.16c0,.06,0,.11,0,.15Z"/><path class="cls-2" d="M20.6,13.48l.06,0v0l-.07,0h-.06l0,.08Z"/><path class="cls-2" d="M19.52,13.13a1.25,1.25,0,0,1,0-.51l0,0a.1.1,0,0,0-.1,0h-.12a.08.08,0,0,1,0,.06l-.05,0h-.07l0,0,0,0h0l0,0-.05,0h0a.29.29,0,0,0,0,.09.08.08,0,0,0,0,.07h.05v0l0,0,0,0a.06.06,0,0,1,.05,0h.07l.08,0,.06,0s0,0,0,0v0h0a1.55,1.55,0,0,1,0,.21l0,0Zm-.12-.35h0v0h0Z"/><path class="cls-2" d="M19.66,13v0h.09l0,0a.16.16,0,0,0,.11,0H20l0,0,0,0s0,0,0,.06,0,0,0,0l-.1.41h0l0,0a.11.11,0,0,1-.09.07.11.11,0,0,0,0,.05l0,0,0,.11h0s0,0,0,0h0v0l0,.1a.2.2,0,0,0,0,.08.18.18,0,0,1,0,.11h0l0,0a.06.06,0,0,1,0,0,.11.11,0,0,0,0,0h0a.56.56,0,0,0,0,.08l.06.08v0l.08,0s0,0,0,.06,0,0,.05,0l0,0,0,0a.08.08,0,0,1,0,0,.28.28,0,0,0,.13,0,.14.14,0,0,1,.12,0v0l.25.07a0,0,0,0,1,0,0l.09,0,0,0h.13l0,0h0l0,0,.07,0,.12-.05.11-.07.07,0v-.05h.07a.14.14,0,0,0,.05-.08.12.12,0,0,1,0-.09h0l.06-.22a.16.16,0,0,1,0-.07s0-.05,0-.07v-.08a.15.15,0,0,1,0-.09h0a.09.09,0,0,0,0-.06V14s0,0,0,0,0-.12.06-.19l.06-.21c0-.06,0-.13,0-.19a.48.48,0,0,0,0-.17H21.9a.06.06,0,0,1-.06,0l-1.07-.28-.23-.06a.17.17,0,0,0-.17,0l-.43-.12v0l-.07,0h-.07a1,1,0,0,0-.13.36Zm.3.56s0,0,0,0a0,0,0,0,0,0,0h0v0H20Zm.39,1.32h0l0,0h0Zm.07-.15h0v0h0ZM20.3,13h0v0h0Zm.06.52s0-.06,0-.06l0-.08h0l.08,0s0,0,0,0h0s0,0,.07,0l.09,0,.11,0,.08,0v0h0a.06.06,0,0,0,.07,0h0l.23.06a.08.08,0,0,1,0,.07h0l0,0,0,0,0,0,0,0h0a.23.23,0,0,0,0,.11.27.27,0,0,0,.07.08l0,.05,0,0a.11.11,0,0,0,0,.05.06.06,0,0,0,0,0s0,.05,0,.05h-.05l0,.13,0,0h0s0,.07,0,.08l-.05.05,0,.08h0v.06h0v0a.32.32,0,0,1-.17.1.75.75,0,0,0-.18.07h-.05s0,0,0,0h-.05l0,0-.18,0v0h-.06l-.06,0h0v0h0l0-.06s0,0,0,0h0v0a.05.05,0,0,1,0,0l-.06,0a.07.07,0,0,1,0-.05,0,0,0,0,1,0,0,0,0,0,0,0,0,0,0,0,0,0,0,0,0h0s0,0,0-.07a.49.49,0,0,1,0-.12.51.51,0,0,1,0-.13.15.15,0,0,1,0-.1h0s0,0,0,0v-.05a.13.13,0,0,1,0-.06.14.14,0,0,1,0-.06h0a.19.19,0,0,0,0-.13.28.28,0,0,0,0-.11ZM20.2,13h0v0h0Zm0,.26s0,0,0,.06v0s0,0,0-.05,0,0,0,0v0S20.19,13.24,20.2,13.26Zm-.07-.15s0,0,0,0l-.09,0s0,0,0,0v0l.11.05ZM20,12.94l0,0,0,0h0L20,13s0,0,0,0Z"/><path class="cls-2" d="M21,13.74s.07,0,.07.07l.05.07,0,.09H21s0,0,0,0v0h0v0h.06l.06,0a.17.17,0,0,0,0-.12.15.15,0,0,0-.07-.07.31.31,0,0,0,0-.08.06.06,0,0,1,0,0,.38.38,0,0,0,0-.1l-.06,0a.1.1,0,0,0,0,.05l-.07,0a.15.15,0,0,0,0,.06A.16.16,0,0,0,21,13.74Z"/><path class="cls-2" d="M21.63,15a0,0,0,0,1,0,0v0l0,0s0,0,0,0v0h-.05Z"/><path class="cls-2" d="M20,17.21s0,0,0,0v0h0v0Z"/><polygon class="cls-2" points="20.14 17.01 20.19 17.04 20.22 17 20.17 16.97 20.14 17.01"/><rect class="cls-2" x="19.85" y="14.97" width="0.05" height="0.02" transform="translate(-3.06 24.65) rotate(-59.88)"/><path class="cls-2" d="M20.49,17.19s0,0,0,0h0S20.49,17.17,20.49,17.19Z"/><path class="cls-2" d="M19.88,17.16a.1.1,0,0,0-.1,0h0v0s.06,0,.07,0h.1l0,0,0,0a.11.11,0,0,0-.05,0A.06.06,0,0,0,19.88,17.16Z"/><rect class="cls-2" x="20.38" y="15.56" width="0.03" height="0.02" transform="translate(-3.3 25.4) rotate(-59.88)"/><polygon class="cls-2" points="20.52 15.78 20.49 15.76 20.47 15.79 20.5 15.81 20.52 15.78"/><path class="cls-2" d="M20.73,16.49v0l-.1-.06,0-.08-.07-.05v0l-.05,0-.08-.06-.08-.08,0,0v0l-.1-.06,0-.05s0,0,0,0l0,0a.29.29,0,0,1,0,.09c-.31.07-.41-.16-.5-.43a1.75,1.75,0,0,1-.47-.64l0,0,0-.1-.08,0a.07.07,0,0,1-.07,0v0a.14.14,0,0,0-.07-.06.22.22,0,0,1-.07-.06v0s0,0,0,0a.13.13,0,0,0-.09,0l-.12,0h0a.16.16,0,0,0,0,.06s0,.05,0,.08v.12l.12.07v.08l.09.05a.08.08,0,0,0,0,0v0l.06,0a.15.15,0,0,1,0,.07.06.06,0,0,0,0,.06l0,0,0,0a.11.11,0,0,1,0,.06s0,0,0,0a.75.75,0,0,1-.07.12l-.07.11,0,.11a.23.23,0,0,0,0,.11l-.09.16h0l-.1.18-.05,0-.05,0,0,0-.09,0h-.08L18,16h-.1a.17.17,0,0,1-.12,0l0,.05h0v0h0l-.05.06h0l0,0,0,.05-.05,0a.18.18,0,0,0,0,.05s0,0,0,0l0,0h0l.1.05,0,0a0,0,0,0,1,0,0l.1.05a.27.27,0,0,0,.23,0l.06,0s0,0,0,0h.09a0,0,0,0,1,0,0s0,0,.05,0l0,0h.11l.07,0,0,0,.08.06h.12a.13.13,0,0,0,.1,0s.06,0,.06.05,0,0,0,0l0,0s0,0,0,0a.17.17,0,0,1,.06.06.11.11,0,0,0,.09.05h0l.08,0h0l0,0,.13.08.05,0,0,0a.05.05,0,0,1,0,0,.14.14,0,0,1,0,.06l0,0h.08a.1.1,0,0,1,.08,0,.1.1,0,0,0,.09,0l0,0,.05,0s0,0,0,0h0l0,0h0l.22.12,0,0h0l0,0h.14l.25-.44S20.72,16.49,20.73,16.49Zm-2-2h0v0s0,0,0,0h0ZM18,16.27l0,0,0,0,0,0Zm.14-.11v0l0,0,0,0Zm0,.08s0,0,0,0l0,0v0h0Zm.05.11,0,0h0a0,0,0,0,1,0,0v0Zm0-.18s0,0,0,0l0,0s0,0,0,0Zm.06.23,0,0,0,0v0h0s0,0,0,0,0,0,0,0Zm.71-1,0,0s0,0,0,0l0,0,0,0a0,0,0,0,1,0,0Zm-.2-.64,0,0,0,0,0,0Zm1,1.65-.09.05-.14-.06-.18,0h-.29s0,0,0,0,0,0,0,0a.65.65,0,0,1-.24,0v.06l-.11-.06,0,0h0l.06,0,.06-.11-.08-.05,0,0-.05,0,0,0a0,0,0,0,1,0,0h0a.16.16,0,0,1,0-.06l.07-.06a.17.17,0,0,0,.06-.11v0s0,0,0-.05,0,0,0-.05l0,0h0s0-.05,0-.08l.06,0,.06,0,0,0,0,0h.09l0-.05s0,0,0,0h0a0,0,0,0,1,0,0l0,.06.06,0,.06,0a0,0,0,0,1,0,0,.43.43,0,0,0,0,.05l0,0h.05a.1.1,0,0,1,.05.08.09.09,0,0,0,0,.08h0v0l0,0s0,0,0,0l.13.07a.16.16,0,0,1,0,.09l0,.09A.15.15,0,0,1,19.84,16.38Z"/><path class="cls-2" d="M19.47,17.28h0l0,0Z"/><path class="cls-2" d="M19.62,16.16l0,.06h0l0,0S19.62,16.17,19.62,16.16Z"/><path class="cls-2" d="M17.19,18.66l0,0s0,0-.06,0,0,0,0,0v0h.07Z"/><path class="cls-2" d="M18.63,19.48l-.05,0,0,0,.05-.05h0Z"/><path class="cls-2" d="M17,18.7a.08.08,0,0,0,0,0,0,0,0,0,0,0,0l0,0h0s0,0,0-.05H17Z"/><path class="cls-2" d="M17.87,18.72v0h0v0h.06l.1.09s0,0,0,0h.18l.14-.06a.79.79,0,0,0,.15-.12l.15-.15.14-.14a.18.18,0,0,1,0-.09.12.12,0,0,0,0-.1l-.05,0a1,1,0,0,0-.15-.24.57.57,0,0,0-.24-.14s0,0,0,.06a.14.14,0,0,0,.05.09l.08.06v0l0,0,0,0-.11.11h-.28l0,0a.14.14,0,0,0-.09,0,.14.14,0,0,1-.09,0s0,0,0,.08a.37.37,0,0,0,0,.11l.24.14C18,18.68,17.94,18.72,17.87,18.72Z"/><path class="cls-2" d="M17.25,18.93v-.05a.11.11,0,0,0,0-.05.18.18,0,0,1,0-.06l-.07-.07a.19.19,0,0,0,0,.12.49.49,0,0,0,0,.12v0l0,0h0S17.25,19,17.25,18.93Z"/><path class="cls-2" d="M17.69,16.32h0a.06.06,0,0,0,0,0l0-.05a0,0,0,0,0,0,0h-.07l0,0a.09.09,0,0,1,0,.05l0,.05a0,0,0,0,1,0,0,.18.18,0,0,0,0,.09.19.19,0,0,0,.06.07l.07.06a.27.27,0,0,1,.07.08s0,0,0,0v0l.1.1.13.12a.77.77,0,0,1,.09.13.08.08,0,0,1,0,.1h.05l.05,0c-.1.09-.14.17-.12.26s0,0-.05,0h0a.13.13,0,0,0-.06.07.07.07,0,0,1,0,0s0,0,0,0l-.09.05-.08.05-.05,0a.15.15,0,0,1-.09,0h-.1v0l-.05,0s0,0,0,0h-.05v0s0,0,0,0h0v0l-.08-.06-.08,0h-.06l-.07,0L17,17.58H16.8l-.06-.06h-.09a.14.14,0,0,1-.11,0l0,0v0a.08.08,0,0,1,0,0h-.07v0l0,0,0,0,0,0s0,0,0,0l-.05.06v0s0,0,0,0v.05l.09,0s.05,0,0,0a.09.09,0,0,0,.08,0l.08,0,0,0h.05a.13.13,0,0,1,0,.06l.17.07.18.05L17,18h.09s0,0,0,0a0,0,0,0,0,0,0l.08,0h.08l0,0s0,0,0,0v0h0l0,0v0h0s0,0,0,0l0,0-.06.06,0,.05s0,0,0,0l0,.08,0,0v0h0l0,0v.06s0,0,0,.05l.05,0a0,0,0,0,0,0,0v0s0,0,0,0l.06.06a.08.08,0,0,1,0,0s0,0,0,0a.05.05,0,0,0,0,0l0,0v0s0,0,0,.05l.05,0h0c0-.09.07-.12.16-.09s.14.18.11.33v0h0l0,0h0l0,0h0a0,0,0,0,0,0,0l.06,0,.07.05h.11l0,0h0s0,0,0,0a0,0,0,0,1,0,0h.13l0,0h.08l0,0h0l.09-.09h0a.17.17,0,0,0,.1-.07l.1-.12a.94.94,0,0,1,.1-.1A.12.12,0,0,1,19,19l.48-.47.12-.12a.38.38,0,0,0,.08-.13s0,0,0,0h0l-1.08-1.09h0l-.05,0h-.05a.18.18,0,0,1-.07,0,.35.35,0,0,1-.05-.08l-.06-.05s0,0-.05,0,0,0,0-.05,0,0,0,0l-.2-.2s0,0,0,0,0,0,0,0h-.05s0,0,0,0a0,0,0,0,0,0,0s0-.05-.05-.05h-.05s-.05,0,0-.05,0,0,0,0a0,0,0,0,0,0,0ZM17.06,18h0a0,0,0,0,0,0,0l0,0,0,0,0,0Zm.46.18h-.06s0,0,0,0h.11s0,0,0,0Zm.47-.45v0h0s0,0,0,0Zm-.2.19a0,0,0,0,1,0,0,0,0,0,0,1,0,0l0,0,0,0Zm-.18,0h0a0,0,0,0,0,0,0l0,0h0l0,0Zm.63-.84,0,0v0h0v0Zm-.06-.14h0l0,0h0s0,0,0,0l0,0h0Zm0,.25a.09.09,0,0,1,0,.06s0,0,.06,0h0l-.07.06,0-.05,0-.05Zm-.09.6a.06.06,0,0,1,.05,0h0l.06-.06h.07a.05.05,0,0,0,.05,0l0,0a.35.35,0,0,1,.15.1,1.8,1.8,0,0,1,.21.19,1.68,1.68,0,0,1,.18.21.33.33,0,0,1,.07.16s0,0,0,0h0a.5.5,0,0,0,0,.12s0,.09,0,.12l0,0h-.09a.21.21,0,0,0-.05.09.23.23,0,0,1,0,.09l0,0,0,0-.06,0a.06.06,0,0,0,0,.07l-.1.08-.1,0s0,0,0,0l-.06.06h0l0,0a.33.33,0,0,1-.14,0L18,19H18a.23.23,0,0,1,0-.05l-.07-.08a.27.27,0,0,0-.07-.08l-.06,0h0l0,0c-.17-.09,0-.23,0-.35l0,0h0l0-.06a.07.07,0,0,0,0-.06.1.1,0,0,0-.05-.08h.06l.07-.08v0l.05-.06.08-.06.08,0s.05,0,.06,0,0,0,0,0Z"/><rect class="cls-2" x="14.27" y="21.28" width="0.05" height="0.06" transform="translate(-5.72 5.25) rotate(-17.4)"/><rect class="cls-2" x="15.33" y="20.61" width="0.04" height="0.03" transform="translate(-5.48 5.55) rotate(-17.46)"/><path class="cls-2" d="M14.4,20.36l0,0h0v0l-.06,0v0Z"/><path class="cls-2" d="M14,21.36h0v0h0a0,0,0,0,0,0,0v0Z"/><path class="cls-2" d="M14,21.22a.1.1,0,0,0-.09,0h0a.19.19,0,0,0,0,.06l.05,0a.08.08,0,0,1,0,.05s0,0,0,0H14a.2.2,0,0,0,0-.07Z"/><path class="cls-2" d="M14.39,21.66s0,0,0,0l0,0v0S14.4,21.64,14.39,21.66Z"/><path class="cls-2" d="M13.23,19.28v0h0l.08.1a.12.12,0,0,1-.09,0,.49.49,0,0,0,0,.12h0s0,0,0,0v0l0,0,.06,0,0,.08h.06V20l.09.08a.14.14,0,0,0,.09,0s0,.07,0,.08a.17.17,0,0,1,0,.05h.07v.09a.13.13,0,0,0,0,.1h0l0,.09h.07l0,.15H14a.06.06,0,0,1,0,.05l0,.05,0,0h.08a.12.12,0,0,1,0,.08.16.16,0,0,0,0,.09s0,0,0,0l0,.06h0v.05h0l.08.24h.06l0,.05.05,0,.06,0,.24-.07c.16-.05.23-.1.21-.17v-.1s0,0,0,0,0,0,0,0L15,21s0,0,0,0,0,0,0,0l0-.06s0-.06,0-.1,0-.07,0-.1v-.07l0,0,0-.11a.11.11,0,0,1,0-.05s0,0,0-.05L15,20.28l0,0,0-.11,0,0v-.05h0l0,0,0-.11v0h0a.23.23,0,0,1,0-.11.16.16,0,0,1,0-.09l0,0h0l0-.07s0,0,0,0v0s0,0,0-.05l0-.11a0,0,0,0,1,0,0s0,0,0,0a.1.1,0,0,0,0-.09.07.07,0,0,1,0-.08l0,0s0,0,0,0L15,19l0-.08a.11.11,0,0,0,0-.07.09.09,0,0,1,0-.09l0,0a.14.14,0,0,0,0-.09.18.18,0,0,1,0-.1l0,0a.23.23,0,0,0,0-.09.3.3,0,0,1-.06-.11h0a.4.4,0,0,0-.12.07c-.06,0-.08.07-.08.09v0a.58.58,0,0,1,.05.31l-.09,0,0,0,0,.06a.1.1,0,0,0,0,.05,0,0,0,0,0,0,0v0s0,0,0,0,0,0,0,0l-.13,0-.13,0a.33.33,0,0,0-.12.05.26.26,0,0,0-.09.05l-.18.06h0v0l-.2.07,0,0,0,0h-.05a.2.2,0,0,1-.08,0l-.07-.06,0-.11-.08-.06a.39.39,0,0,1-.08-.1l-.06,0s0,0,0,0h0s0,0-.07,0h0v0h-.1a2.7,2.7,0,0,0,.27.39Zm1.67-.83s0,0,0,0v0h0A0,0,0,0,1,14.9,18.45Zm0,.28v0h0v0Zm-.35.65v0h0s0,0,0,0v0h0S14.51,19.39,14.52,19.38Zm-.72.41,0,.06,0-.08.06-.05h-.05l0-.06h.06s0,0,0,0l.05,0h.1a.12.12,0,0,0,.11,0,.11.11,0,0,0,0,0,.06.06,0,0,1,.05,0s0,0,0,0h.07l.09,0h.07l.07,0h.1s0,0,0,0l0,.06,0,.06,0,0h0s0,0,0,0h-.07a.25.25,0,0,0,0,.08.32.32,0,0,0,0,.06s0,0,0,0l0,0a.35.35,0,0,0,0,.06s0,0,0,0a.09.09,0,0,1,0,.09.16.16,0,0,0,0,.07v0h0l0,0,0,.06,0,0,.05.15,0,.09a.24.24,0,0,1,0,.08c0,.08-.07.12-.1.13s-.09,0-.15-.15a.45.45,0,0,1-.1-.13l-.1-.14a.45.45,0,0,0-.1-.13.29.29,0,0,0-.08-.08s0,0,0-.05v0L13.9,20l-.08-.1s0,0,0,0S13.78,19.79,13.8,19.79Zm-.41-.2a0,0,0,0,0,0,0h0s0,0,0,0a0,0,0,0,1,0,0h0Zm.07-.18h0v0l0,0,0,0Zm0-.09v0h0v0Zm-.07.1h0v0h0Zm0,.1h0v0h0Z"/><rect class="cls-2" x="15.41" y="19.59" width="0.05" height="0.03" transform="translate(-5.14 5.48) rotate(-17.32)"/><path class="cls-2" d="M13.6,21h0l0,0v0Z"/><rect class="cls-2" x="15.41" y="20.39" width="0.02" height="0.02" transform="translate(-5.37 5.51) rotate(-17.3)"/><path class="cls-2" d="M12.13,20.28l-.05-.05-.06,0a.08.08,0,0,1,0,0l-.07,0a.19.19,0,0,0,.09.11.37.37,0,0,0,.14.07A.15.15,0,0,0,12.13,20.28Z"/><path class="cls-2" d="M11.49,21.9s0,0,0,0l0,0v0h.12s0,0,0,0Z"/><path class="cls-2" d="M12.49,20.47c.08-.14.11,0,.15,0a.19.19,0,0,1,0,.08l.13-.06v0l-.08-.13a.77.77,0,0,1-.09-.13v-.05s-.09-.05-.13-.05l0-.26h0v-.14l0-.09a.49.49,0,0,1,0-.11h-.06c0-.06,0-.12,0-.18a.23.23,0,0,0,0-.16.12.12,0,0,0,0-.08.32.32,0,0,1,0-.09L12.13,19a.11.11,0,0,1,0-.05.26.26,0,0,1,0-.07l-.08,0a0,0,0,0,1-.05,0,.35.35,0,0,0-.25.09.6.6,0,0,0-.13.21v.16s0,0,0,0,0,0,0,0,0,0,0,0a.11.11,0,0,0,0,.06.14.14,0,0,1,0,.07.25.25,0,0,0,0,.07.14.14,0,0,0,0,.06.09.09,0,0,0,0,.06.15.15,0,0,1,0,.07l-.06,0s0,0,0,0a0,0,0,0,0,0,0,.09.09,0,0,1,0,.08l-.05,0v.22a.35.35,0,0,1,0,.18l0,0s0,0,0,0v.09a1.82,1.82,0,0,0-.11.28c0,.1-.07.2-.1.29a.37.37,0,0,0,0,.12l0,.12a.29.29,0,0,1,0,.11.12.12,0,0,1-.07.07v.07l0,0h0a.24.24,0,0,0-.09.11.62.62,0,0,1-.08.12s0,0,0,0l0,0a.13.13,0,0,0,.11-.08l.08-.12h0a.29.29,0,0,1-.07.19.08.08,0,0,0,0,.06l0,0h.37l0-.1a.2.2,0,0,0,0-.08v-.11l0,0s0,0,0,0v-.14l0,0,0-.05v-.16a.46.46,0,0,0,.05-.1l0-.1v-.12l.11-.3c0-.12.07-.22.1-.32V20l.45,0v.11a.14.14,0,0,0,0,.09.2.2,0,0,0,.06.07.13.13,0,0,1,.05.06v.18a.25.25,0,0,0,0,.07.46.46,0,0,1,0,.09.14.14,0,0,1,0,.06,0,0,0,0,0,0,0l.06.05v.14l0,0A1.63,1.63,0,0,1,12.49,20.47Zm-1-.51h0l0,0v0Zm.06.1v0h0v.06Zm.16-.12h0s0,0,0,0v.05Zm.3,0h-.21l.06-.15a.4.4,0,0,0,0-.15.1.1,0,0,0,0-.07s0,0,0-.08l0,0a.17.17,0,0,1,.12.06.38.38,0,0,1,.09.09h.05a.49.49,0,0,0,0,.11.36.36,0,0,1,0,.09.45.45,0,0,1,0,.08Z"/><path class="cls-2" d="M12.18,21l0,0-.05,0,0,0a.35.35,0,0,0,0,.16.45.45,0,0,0,.09.1.33.33,0,0,0,0-.12.21.21,0,0,0,0-.13Z"/><path class="cls-2" d="M12.86,21a.37.37,0,0,1-.3.2s0,0,0,0a.33.33,0,0,0,.06.08.5.5,0,0,1,0,.07v.11a1.66,1.66,0,0,0,.06.16c0,.06.05.12.07.17H13l.1,0h.1l.06-.05a.66.66,0,0,0,0-.13l-.06-.21c0-.07,0-.14-.08-.2a.27.27,0,0,0,0-.11v0l0,0s0-.06,0-.07,0,0,0,0Z"/><path class="cls-2" d="M11.82,21.35h0s0,0,0,0a.31.31,0,0,0,0,.25s0,0,0,0h0s0-.06,0-.08a.13.13,0,0,1,0-.06.34.34,0,0,0,0-.12Z"/><path class="cls-2" d="M13.08,21.12a.1.1,0,0,0,.08.06.34.34,0,0,0,0-.08l-.07,0A.08.08,0,0,0,13.08,21.12Z"/><path class="cls-2" d="M11.87,21.36h0a.08.08,0,0,0,0,0h-.05Z"/><path class="cls-2" d="M12.82,20.88h.1l0-.05a.05.05,0,0,1,0,0v-.11l0,0-.2,0Z"/><path class="cls-2" d="M12.43,21.08h0s0,0,0,0v0a.09.09,0,0,1,0,.05h.08a.08.08,0,0,0,0-.06Z"/><path class="cls-2" d="M12.86,20s0,0,0,0H12.7v0Z"/><path class="cls-2" d="M10.57,19h-.06v0s0,0,0,0,0,0,0,0,0,0,0,0H10.3v0s0,0,0,0a.09.09,0,0,1,0,.06l-.07,0v.24l0,.07,0,0-.05.28h0s0,0,0,0h0l-.07.48h0a.58.58,0,0,1,0,.22c0,.09,0,.17,0,.25s0,.1,0,.17l0,.2q0,.11,0,.18a.54.54,0,0,0,0,.11l0,.19h0v.06h0s0,0,0,0a.28.28,0,0,1,0,.09.1.1,0,0,0,0,.06.08.08,0,0,1,0,0s0,0,0,0l.07,0,.13,0h.11a.07.07,0,0,0,.07-.06.24.24,0,0,0,0-.12.28.28,0,0,1,.06-.19.15.15,0,0,0,0-.06s0-.06,0-.07a.06.06,0,0,0,0-.07.08.08,0,0,1,0-.09h0v-.21l.11-.69s0,0,0-.06a.07.07,0,0,0,0-.05h0l.06-.4h0s0-.05,0-.08v-.33a.41.41,0,0,0,0-.11s0-.05.05-.06a.13.13,0,0,0,0-.06A.11.11,0,0,1,10.57,19ZM10,21.51l0,0,0,0,0,0h0l0,0Zm0-.12H10l0,0,0,0h0l0,0h0Zm0-.1h0v0H10l0,0Zm0-.12h0l0,0,0,0h.05v0Zm0-.09h0l0,0h.06l0,0Zm0-.12h0l0,0,0,0h.05v0Zm.33-1.88h0s0,0,0,0Z"/><path class="cls-2" d="M8.61,20.51s0,0,0,0H8.43a0,0,0,0,0,0,0,0,0,0,0,1,0,0l.16.06A0,0,0,0,0,8.61,20.51Z"/><path class="cls-2" d="M7.15,19.7a.45.45,0,0,0,0,.08l0,0,0,0s0,0,0-.05,0,0,0,0Z"/><path class="cls-2" d="M9,19.81a.1.1,0,0,0-.09,0,.83.83,0,0,1-.21-.06l-.22-.08-.2-.09-.19-.06v0l.73.26.14.05.11,0,0-.05A0,0,0,0,0,9,19.81Z"/><path class="cls-2" d="M9.75,19.57a.1.1,0,0,1,.06-.08.12.12,0,0,0,0-.08A1.17,1.17,0,0,0,9.76,19a1,1,0,0,0-.22-.34l0,0H9.32s0,0,0,0,0,0,0,0l-.14-.05v0s0,0-.06,0l-.05,0-.12-.05-.2-.06a.48.48,0,0,0-.17,0s0,0,0,0H8.42l-.09,0-.06,0H8.14l-.06,0L8,18.43l-.09,0a.11.11,0,0,0,0,.07s0,0,0,.06a.09.09,0,0,1-.06,0l-.06,0a.06.06,0,0,0,0,.07v.06a.08.08,0,0,1,0,.05h0a.22.22,0,0,0,0,.11v.09s0,0,0,0,0,0,0,0l-.1.26,0,0,0,0,0,.05a.09.09,0,0,0,0,.05v0h0a.12.12,0,0,1,0,.09.06.06,0,0,0,0,.08.13.13,0,0,1-.07.06s0,0-.08,0a.44.44,0,0,0,0,.1.19.19,0,0,0,0,.09q0,.09-.06.09H7.1a.07.07,0,0,1,0,.05v0h0a2,2,0,0,0,0,.35,1.2,1.2,0,0,0,.13.31,1.18,1.18,0,0,0,.25.25,1.17,1.17,0,0,0,.37.19.09.09,0,0,1,.07,0l.09,0,.1,0a.27.27,0,0,0,.12,0l0,0,.18.06h.13l.16,0A.56.56,0,0,0,9,21.32l.16-.16A2.14,2.14,0,0,0,9.27,21l.13-.18s0,0,0-.06a.17.17,0,0,1,0-.05s0,0,0,0l0,0,0-.05,0,0v-.07l0-.05a.41.41,0,0,1,0-.09l0-.05,0,0s0,0,0,0,0,0,0,0l.1-.26a.11.11,0,0,0,0,0l0,0,0,0s0,0,.05,0a.26.26,0,0,0,0-.1S9.77,19.59,9.75,19.57Zm-.14-.29h0l0,0h0Zm-.38-.76h0v0h0v0ZM8,18.74h0s0,0,0,0H8Zm-.08,0H8v0h0Zm-.14,0h0v0l0,0Zm1.69.62,0,0-.05.14a.11.11,0,0,1,0,.08.14.14,0,0,1,0,.06.1.1,0,0,0,0,.05.09.09,0,0,0,0,.07.14.14,0,0,0,0,.09H9.29l-.06,0v0H9.17s0,0-.05,0h0l0,0,.08,0c0,.1-.08.21-.11.31a1.82,1.82,0,0,1-.11.28,1,1,0,0,1-.15.24.45.45,0,0,1-.2.16l-.05,0-.06,0H8.47l-.08,0-.07,0s0,0-.06,0h0a0,0,0,0,1,0,0l-.06,0L8.1,21H8l0,0s0,0-.06-.06l-.07-.06-.11,0a.41.41,0,0,1,0-.09.1.1,0,0,0-.06-.05.41.41,0,0,0,0-.16,1,1,0,0,1-.05-.16.26.26,0,0,1,0-.11l.55.2.13.05.12,0a.12.12,0,0,0-.05,0s0-.06,0-.06a.08.08,0,0,0-.08,0,1.46,1.46,0,0,1-.32-.1l-.31-.13a.31.31,0,0,1,0-.1l0-.07a.52.52,0,0,1,0-.11l0-.12s0-.08,0-.13a.44.44,0,0,0,0-.1.14.14,0,0,0,0-.1.13.13,0,0,0,0-.08l0-.05s0,0,0-.07a.43.43,0,0,1,0,0,.23.23,0,0,1,0-.07.17.17,0,0,1,0-.05L8,19,8,18.91l0,0v0l0,0a.46.46,0,0,1,.1-.1c.05,0,.08-.06.11-.06l.06,0a.27.27,0,0,0,.1-.06.28.28,0,0,1,.12,0l.08,0,.1,0,.16,0,.16,0,.1.06a0,0,0,0,1,0,0v0l.09,0a.06.06,0,0,0,0,0l0,.05.06.08a.59.59,0,0,1,0,.08.29.29,0,0,1,0,.09l0,.1.05,0,0,0h0l0,0Zm.07.15h0v0h0Zm0,.44h0l0-.06h0v0Zm0-.27h0v-.05l0,0Zm.06-.45,0,0,0,0h0v0l.05,0Z"/><path class="cls-2" d="M5.08,19.58h0l0,0,0,0,.08.05,0,0A.06.06,0,0,1,5.08,19.58Z"/><path class="cls-2" d="M5.77,19.63s0,0-.06,0l0,0a.11.11,0,0,0,.08,0h.06s0,0,0,0v0A.06.06,0,0,0,5.77,19.63Z"/><path class="cls-2" d="M5.61,19.4l-.05,0H5.5l0,0v0s0,0,0,0h0v0l0,0,0,0,0,0a.37.37,0,0,0,0-.11.34.34,0,0,0,0-.1Z"/><path class="cls-2" d="M5.83,19.83l-.07,0a.11.11,0,0,0-.06,0l0,0,0,0h0s0,0,0,0,0,0,0,0,0,0,0,0a0,0,0,0,0,0,0h0s0,0,0,0l.06,0h0l0,0h0S5.83,19.85,5.83,19.83Z"/><path class="cls-2" d="M6.69,18.8a.1.1,0,0,1,0,0l0,0,0,0s0,0,0,0Z"/><path class="cls-2" d="M5.73,18.72a0,0,0,0,0,0,0h0v0h0s0,0,0,0v0l0,0Z"/><rect class="cls-2" x="7.81" y="17.9" width="0.02" height="0.02" transform="translate(-11.21 13.44) rotate(-53.19)"/><path class="cls-2" d="M7.17,19v0l0,0a.24.24,0,0,1,.09-.06.22.22,0,0,0,.07-.09v-.05s0,0,0,0l0,0a.75.75,0,0,0,.15-.2.37.37,0,0,1,.14-.14,0,0,0,0,0,0,0l0,0h0l0,0h0l0-.11a.11.11,0,0,1,0-.09l0,0,0,0s0,0,0,0,0,0,0,0l0,0a0,0,0,0,0,0,0v0a.13.13,0,0,0-.07,0l-.07,0,0,.07,0,.08a.1.1,0,0,1-.06.05h0l-.29.38a0,0,0,0,0,0,0s0,0,0,0a.27.27,0,0,1-.06.1.39.39,0,0,1-.08.1l-.1.08a.13.13,0,0,1-.08,0l-.24.33h0a.2.2,0,0,1,0,.13h0l-.07.07c0,.17,0,.58-.29.22-.26-.2-.06-.42,0-.6s.15,0,.24,0l0,0v0h0l0-.05a.11.11,0,0,0,0-.05l0-.06a.14.14,0,0,1,0-.06.08.08,0,0,0,0-.06.06.06,0,0,0,0,0v0s0,0,0,0a.4.4,0,0,1,.06-.45.15.15,0,0,0,0-.06h.06a.05.05,0,0,0,0-.06v0a0,0,0,0,1,0,0V18a.13.13,0,0,0,0-.06h0s0,0,0-.05a.13.13,0,0,0,0-.06v0h0l0-.05,0-.06a.43.43,0,0,0,0-.05l0-.05,0,0a.07.07,0,0,1,0-.05.1.1,0,0,0,0,0s0,0,0,0,0,0,0,0l0-.07a.08.08,0,0,0,0,0s0,0,0,0l0-.05s0,0,0-.06a.43.43,0,0,0,0-.05l0-.05s0,0,0,0a.08.08,0,0,1,0-.07l-.09,0-.08,0-.08.1s0,0,0,0,0,0,0,0l0,0s0,0,0,0L6.09,17v0a0,0,0,0,1,0,0s0,0,0,0L6,17.16l-.18.23a.81.81,0,0,0-.12.22.09.09,0,0,1,0,.06H5.6s0,0,0,0a0,0,0,0,1,0,0s0,0,0,0h0a.08.08,0,0,0,0,.05.43.43,0,0,0,0,.07l0,.07,0,.05h0s0,0,0,0v.06s0,0,0,0L5,18.46H5a.05.05,0,0,0,0,0,.09.09,0,0,0,0,.05s0,0,0,.05l0,0h0a.16.16,0,0,0-.07.09.41.41,0,0,0,0,.09l0,.08s0,0-.06,0l0,.06a.09.09,0,0,0,0,.06.15.15,0,0,0,0,.07l0,0,.06,0,0,.05v0s0,0,0,0h.05s0,0,0,0l.73-1h0s0,0,0,0a.11.11,0,0,0,0-.05s0,0,0-.07a.62.62,0,0,0,.09-.12A.57.57,0,0,0,5.86,18a.49.49,0,0,0,.06-.13.15.15,0,0,0,0-.11l0,0v0l.12.11c0,.05.08.06.12,0s0,0,0,0h0s0,0,0,0l-.07,0a.12.12,0,0,1,0,.08.11.11,0,0,1,0,.08s0,.06,0,.08a.31.31,0,0,0,0,.08.1.1,0,0,0,0,.06.2.2,0,0,1,0,.07l0,.06a.23.23,0,0,1,0,.07l-.07.1s0,0,0,0a.06.06,0,0,1,0,0l0,0s0,0,0,0l0,0a.25.25,0,0,1,0,.07.22.22,0,0,0,0,.08v0l0,0a.17.17,0,0,0,0,.08l0,.08,0,.07a.06.06,0,0,0,0,0s0,0,0,.05H6v.12l0,0,0,0s0,0,0,0l0,0v.08a.2.2,0,0,1,0,.07l0,.07a.11.11,0,0,0,0,0,.39.39,0,0,1,0,.06.08.08,0,0,1,0,.06.13.13,0,0,0,0,.06s0,0,0,0,0,0,0,0l.14.12a.44.44,0,0,0,.15.08l0-.06a.15.15,0,0,0,0-.07s.06-.08.09-.14l.11-.15.11-.12a.19.19,0,0,1,.12,0s0-.05,0-.05,0,0,0,0l.06-.07v0s0,0,0,0l0,0,0,0,0-.05,0-.1L7,19.24a.83.83,0,0,1,.08-.12A.75.75,0,0,1,7.17,19ZM7.6,18h0V18a.08.08,0,0,1,0,0h0ZM6,17.65v0h0l0,0H6l0,0Zm.36,1.2h0l0,0,0-.05.06,0ZM6.4,18l0,0,0,0h0l0,0Zm-.07-1h0v0h0l0,0,0,0Zm0,1.13h0s0,0,0,0h0l0,0Zm-.07-1.08V17l0,0Zm0,1.29h0v0l0,0Z"/><path class="cls-2" d="M6,18.34s0,0,0,0a0,0,0,0,0,0,0,.16.16,0,0,0-.09,0,.18.18,0,0,1-.1,0l0,0h0l0,0v0s0,0,.06,0l0,0,.06,0,0,0H6Z"/><path class="cls-2" d="M6,18.44h0l0,0,0,0H6S6,18.45,6,18.44Z"/><path class="cls-2" d="M21.6,7a12.25,12.25,0,0,1,.65,1.85,11.56,11.56,0,0,1,.34,2.78.44.44,0,0,1,.12-.15s.1.06.11.11-.06.15-.16.18l-.07-.08a10.74,10.74,0,0,1-.3,2.41c.06.11,0,.32.13.39s.18,0,.24.08a11.43,11.43,0,0,0,0-5.84A12,12,0,0,0,22,6.6a2,2,0,0,1-.26.07C21.68,6.78,21.67,6.92,21.6,7Zm.56.63.06.06c.24.13.19.39.18.62v.1C21.8,8.34,22.25,7.83,22.16,7.58Z"/><path class="cls-2" d="M8.8.81A11,11,0,0,1,16,1.42,1.83,1.83,0,0,1,16,1l.07,0A11.48,11.48,0,0,0,12.56.05a.56.56,0,0,1,0,.12A.25.25,0,0,1,12.35,0,11.23,11.23,0,0,0,8.68.36,11.41,11.41,0,0,0,2.31,4.62a.62.62,0,0,1,0,.63.53.53,0,0,1-.13-.44c-.21.29-.4.58-.58.88L1.5,6.88A11,11,0,0,1,8.8.81Zm2.06-.7A.15.15,0,0,1,11,.23c0,.1-.07.17-.16.15S10.73.3,10.69.27,10.79.1,10.86.11Z"/><path class="cls-2" d="M16.36,1.42a.5.5,0,0,0,0,.13v0a11.14,11.14,0,0,1,5.06,4.94c.05-.11.17-.1.29,0s.11-.05.17-.09c-.11-.21-.21-.41-.33-.61a.38.38,0,0,1-.21,0v-.3l0,0a11.5,11.5,0,0,0-4.93-4.37A.72.72,0,0,1,16.36,1.42Z"/><path class="cls-2" d="M22.19,14.61l0,0A11,11,0,0,1,4.58,20.12l0,.16c-.06.17-.16.24-.28.24a11.51,11.51,0,0,0,18.27-5.8C22.46,14.76,22.3,14.88,22.19,14.61Zm-5,6.79c0-.16-.08-.41.2-.38C17.42,21.19,17.63,21.53,17.22,21.4Z"/><path class="cls-2" d="M3.4,19a.08.08,0,0,1-.13,0,.22.22,0,0,1-.1-.26,10.93,10.93,0,0,1-1-1.33l0,.1c-.1.24-.21.24-.35.19a11.64,11.64,0,0,0,2,2.33c0-.17.16-.29.21-.44Z"/><path class="cls-2" d="M2,17.15l-.35-.64c-.1.25-.25.19-.42,0,.07-.18.18-.27.31-.27a11.38,11.38,0,0,1-.73-2l0-.14-.05.09c-.19.18-.07.49-.18.71l-.05,0A11.61,11.61,0,0,0,1.67,17.5l.25-.1A.25.25,0,0,0,2,17.15Z"/><path class="cls-2" d="M.47,13.46c-.14-.29-.25-.58,0-.87l0-.09A10.93,10.93,0,0,1,.87,8.58c.05-.3.11-.6.15-.9s.09-.77.13-1.15a11.39,11.39,0,0,0-.79,7.83v0A2.54,2.54,0,0,1,.47,13.46Z"/><path class="cls-2" d="M.38,14.34h0Z"/><path class="cls-2" d="M2.3,14.18c.1.11.32-.14.34.1s-.16.25-.32.2c.08.25.17.5.27.74l.46-.11a2.6,2.6,0,0,1-.1-.25s-.12,0-.13,0a.38.38,0,0,1,0-.33c-.08-.23-.15-.47-.21-.71a8.36,8.36,0,0,1-.2-1.07c0,.06-.06.1-.13.1s-.12-.09-.12-.18,0-.18.13-.18a.11.11,0,0,1,.09,0c0-.13,0-.27,0-.4l-.46.12a9.53,9.53,0,0,0,.27,1.67c0,.06,0,.11.05.16Z"/><path class="cls-2" d="M20.33,8.84l.43-.21A10.21,10.21,0,0,0,20.1,7,.17.17,0,0,1,20,7a.13.13,0,0,1,0-.12A9.85,9.85,0,0,0,19,5.4l-.38.27A9.15,9.15,0,0,1,20.33,8.84Z"/><path class="cls-2" d="M3.7,14.94l.46-.12a8,8,0,0,1-.46-1.3,8.1,8.1,0,0,1-.24-1.68L3,12a9,9,0,0,0,.25,1.68A9.5,9.5,0,0,0,3.7,14.94Z"/><path class="cls-2" d="M19.73,9.14a8.71,8.71,0,0,0-1.07-2.31C18.6,7,18.5,7,18.4,7s-.18,0-.1-.16a.39.39,0,0,1,.27-.1h0a7.62,7.62,0,0,0-.48-.64l-.39.27a8.11,8.11,0,0,1,1.6,3Z"/><path class="cls-2" d="M13.77,14.15l-1-.2v-.26a.3.3,0,0,1-.32,0c-.29.09-.45,0-.37-.39.14-.15.27-.33.47-.13,0,0,0,.08,0,.11l.19,0c0-.33-.07-.7-.12-1-.06,0-.12.11-.15.1s0-.25,0-.38a.14.14,0,0,1,.13,0c-.09-.59-.18-1.05-.18-1.05l3.53.26-.19-.78A1,1,0,0,0,15,9.75l-1.53-.32a0,0,0,0,1,0,0c0,.35-.29.32-.4.52l.23.16c.14,0,.34-.15.38.09s-.14.17-.26.16,0,.35-.23.31-.18.5-.37.09c-.07-.15-.25-.4.11-.4,0-.14,0-.27,0-.41s0-.12,0-.17.14-.35.28-.43l-1-.22a1.11,1.11,0,0,1,0,.26.11.11,0,0,1-.2,0,.69.69,0,0,1-.17-.52c-.76-2.84-1.74-3.06-1.74-3.06s-.79.69,0,3.67l-.36.31.18,0a.56.56,0,0,1,.38.58.31.31,0,0,1-.54,0,.33.33,0,0,0-.27-.11.51.51,0,0,1,0-.37L7.62,11.63a1,1,0,0,0-.32,1l.2.78,1-.61A5.15,5.15,0,0,0,8.3,12c-.08-.23-.18-.5-.05-.66s.23.33.46.23a.18.18,0,0,1,0,.27.36.36,0,0,0,0,.46c0,.1.06.2.08.29l1.7-1.09a18,18,0,0,0,1.09,2.76l-.76.63a.66.66,0,0,0-.18.64l.07.27s.06.06.07.16a.07.07,0,0,1,0,.06l.12.47,1.57-1.37,2,.45-.24-1A.66.66,0,0,0,13.77,14.15ZM9.56,11.72c-.07.09-.11.24-.25.18-.1-.5-.1-.5.54-.44C9.86,11.72,9.65,11.62,9.56,11.72Zm1.74,3.8a1.08,1.08,0,0,1-.14.25c-.05-.06-.11-.1-.12-.14a.19.19,0,0,1,.11-.22C11.23,15.38,11.33,15.37,11.3,15.52ZM11.2,9c0-.08,0-.14.09-.11a.2.2,0,0,1,.12.12c0,.08,0,.1-.16.12A.34.34,0,0,1,11.2,9Zm.13,1.32c0-.09-.07-.21,0-.27.15-.31.39-.17.6-.21l0,.18Zm.87,2.61a.25.25,0,0,1-.09.26L11.74,13C11.85,12.72,12.05,13,12.2,12.92Z"/><path class="cls-2" d="M18.81,4.8l-.74-.43a.83.83,0,0,1-.06.21c-.27-.5-.6-.88,0-1.25a.88.88,0,0,0,0,.36l.1-.46-.79.71-.72-.41a.66.66,0,0,1-.06.2l.29.65L16,5.1,17.1,5l.43,1,.22-1Z"/><path class="cls-2" d="M21.49,9.84l-.94.51-.77-.73L20,10.67l-.12.06c0,.17.17.33,0,.52-.2-.09-.15-.28-.15-.44l-.68.36,1.05.14.2,1,.46-1,1.05.14L21,10.81Z"/><path class="cls-2" d="M1.48,11.28l.9-.57.27.22a.27.27,0,0,1,0-.27s.1,0,.15,0,.13-.2.2-.29v0l.72-.46V9.84l0-.07-.86-.06-.27-1L2.36,9c.2.07.19.12.15.34a1.1,1.1,0,0,0-.26.15c-.2.23-.37.37-.46.13l-.56,0a.62.62,0,0,0,0,.13l.65.54Z"/><path class="cls-2" d="M3,11.24l.17.14,0-.17s0,0,0-.05A.15.15,0,0,0,3,11.24Z"/><polygon class="cls-2" points="4.34 16.71 5.08 15.94 4.03 16.13 3.53 15.19 3.38 16.25 2.34 16.43 3.29 16.9 3.15 17.95 3.89 17.18 4.85 17.65 4.34 16.71"/></g></g></svg>