<svg xmlns="http://www.w3.org/2000/svg" viewBox="0 0 26.03 23.49"><defs><style>.cls-1{fill:#2f444f;}</style></defs><g id="레이어_2" data-name="레이어 2"><g id="_迹_1" data-name="卵迹_1"><polygon class="cls-1" points="9.7 6.09 9.67 5.75 9.61 4.8 10.21 4.76 10.18 4.42 9.58 4.46 9.51 3.51 10.2 3.46 10.17 3.12 9.49 3.17 9.14 3.2 9.36 6.11 9.7 6.09"/><rect class="cls-1" x="10.53" y="3.09" width="0.33" height="2.92" transform="translate(-0.3 0.78) rotate(-4.14)"/><path class="cls-1" d="M11.09,3.14l0,.26,0,.57c0,.41,0,.59.07,1l.06.88V6s0,0,0,0h.34s0,0,0,0L11.57,5V4.75s0-.1,0-.06h0l0,0a.3.3,0,0,0,0,.1c.06.2.13.51.19.71l.1.33v0s0,0,0,0h.33a.08.08,0,0,1,0,0s0-.1-.05-.15-.06-.24-.09-.34-.13-.5-.19-.7a.35.35,0,0,0,.32-.31c0-.06,0-.12,0-.17v0l0-.18a.23.23,0,0,1,0-.17.3.3,0,0,1,0-.12l0-.3a.44.44,0,0,0-.09-.27.4.4,0,0,0-.18-.1.63.63,0,0,1-.07.48l.06.82-.34,0-.07-1,.27,0a.83.83,0,0,1-.1-.34h-.13l-.22,0h-.19v.08Z"/><path class="cls-1" d="M12.43,3.22a.45.45,0,0,0,0,.12l0,.47,0,.31a.9.9,0,0,0,0,.16.39.39,0,0,0,.23.19,1.36,1.36,0,0,0,.35,0h.1s0,0,0,0v.25l0,.72v0h-.35l0-.38V4.75s0,0,0,0h-.34v0c0,.23,0,.47.05.7a.37.37,0,0,0,.19.29.51.51,0,0,0,.17,0l.23,0a.46.46,0,0,0,.35-.12.39.39,0,0,0,.09-.33l-.06-.75V4.51a.49.49,0,0,0,0-.24.36.36,0,0,0-.33-.16h-.33s0,0,0,0v0c0-.17,0-.35,0-.52V3.29a0,0,0,0,1,0,0h0l.27,0h0c.09,0,.25,0,.26.1a1.52,1.52,0,0,1,0,.23h.13s0,0,0,0h0V3.37c0-.09,0-.18,0-.21a.34.34,0,0,0-.25-.24,1.14,1.14,0,0,0-.37,0,.44.44,0,0,0-.31.11h0A.3.3,0,0,1,12.43,3.22Z"/><polygon class="cls-1" points="14.05 3.2 14.24 5.78 14.59 5.75 14.4 3.18 14.74 3.15 14.72 2.81 13.69 2.88 13.71 3.23 14.05 3.2"/><path class="cls-1" d="M11.41,20.05l0-.3v-.08s0,0,0,0H11s0,0,0,0V20h-.34s0,0,0,0V20l0-.29c0-.21,0-.42,0-.63l-.09-1.22.3,0h0s0,0,0,0h0V18h.35v0a.58.58,0,0,0-.06-.29.37.37,0,0,0-.27-.15l-.3,0a.48.48,0,0,0-.28.08.41.41,0,0,0-.13.27c0,.06,0,.11,0,.17s0,.09,0,.14l0,.31,0,.6v.09c0,.18,0,.36,0,.54l0,.3a.53.53,0,0,0,.06.27.37.37,0,0,0,.26.15,2.81,2.81,0,0,0,.29,0,.49.49,0,0,0,.29-.08A.38.38,0,0,0,11.41,20.05Z"/><polygon class="cls-1" points="11.95 19.98 11.76 17.41 11.42 17.43 11.63 20.35 12.66 20.27 12.63 19.93 11.95 19.98"/><path class="cls-1" d="M13.26,17.28h0l-.31,0a.35.35,0,0,0-.24.2.61.61,0,0,0,0,.33l.09,1.27c0,.22,0,.45.05.68l0,.3v.16h.34s0,0,0,0v-.07l0-.29c0-.23,0-.46-.05-.69V19s0,0,0,0h.34v0c0,.22,0,.45.05.67l0,.33,0,.16v.1h.33s0,0,0,0,0-.21,0-.31l-.09-1.27,0-.43h-.11a.44.44,0,0,1-.22.19l0,.25-.35,0L13,17.65l.27,0v0c.07-.13.1,0,.14,0a.22.22,0,0,1,0,.08l.27-.12a.06.06,0,0,0,0,0,.31.31,0,0,0-.14-.22.11.11,0,0,0-.07,0C13.41,17.39,13.34,17.29,13.26,17.28Z"/><path class="cls-1" d="M13.71,17.75l-.3.05.18.19h.13v-.09S13.71,17.8,13.71,17.75Z"/><path class="cls-1" d="M14.18,17.49c0,.09-.12.18-.23.21L14,18a.35.35,0,0,1,.17.14.27.27,0,0,1-.15.11v.16a.45.45,0,0,0,0,.16.39.39,0,0,0,.23.19,1.37,1.37,0,0,0,.35,0h.1s0,0,0,0V19c0,.24,0,.47,0,.71v.05h-.32s0,0,0,0l0-.39V19s0,0,0,0h-.33v0l0,.71a.34.34,0,0,0,.19.28.35.35,0,0,0,.17,0l.23,0A.46.46,0,0,0,15,20a.39.39,0,0,0,.08-.33c0-.25,0-.5,0-.75v-.12a.65.65,0,0,0-.06-.24.34.34,0,0,0-.32-.16h-.34v0l0-.52v-.29s0,0,0,0h0l.26,0h0v.14l0,.17v0s0,0,0,0H15s0,0,0,0h0v-.18a1.69,1.69,0,0,0,0-.21.33.33,0,0,0-.24-.24,1.2,1.2,0,0,0-.38,0,.43.43,0,0,0-.3.11.25.25,0,0,0-.07.12C14.05,17.41,14.15,17.39,14.18,17.49Z"/><path class="cls-1" d="M16.39,18.81v-.12a.57.57,0,0,0-.06-.24.33.33,0,0,0-.32-.17l-.18,0h-.15s0,0,0,0v0l0-.52v-.27h0v0h0l.27,0h0v.13l0,.18v0s0,0,0,0h.34s0,0,0,0h0v-.19a1.69,1.69,0,0,0,0-.21.34.34,0,0,0-.24-.24,2.38,2.38,0,0,0-.38,0,.4.4,0,0,0-.3.12.31.31,0,0,0-.09.29c0,.16,0,.32,0,.47a3,3,0,0,0,0,.31.41.41,0,0,0,0,.16.33.33,0,0,0,.23.19,1,1,0,0,0,.35,0H16s0,0,0,0v.24l.05.72v0h-.32s0,0,0,0l0-.38v-.37a0,0,0,0,0,0,0h-.33s0,0,0,0h0V19c0,.23,0,.47.05.7a.35.35,0,0,0,.19.29.34.34,0,0,0,.17,0H16a.43.43,0,0,0,.35-.13.36.36,0,0,0,.08-.33Z"/><path class="cls-1" d="M5.29,16.76l0-.12-.49-.73c0,.07,0,.12,0,.15s-.11.29-.25.19-.07-.3,0-.46a.59.59,0,0,1,.11-.08l-1-1.43h0c0,.19-.09.38-.13.56a.36.36,0,0,1,0,.09l1.59,2.35C5,17.08,5.26,16.94,5.29,16.76Z"/><path class="cls-1" d="M21.63,15.73a1.86,1.86,0,0,1,.1-.66c.15-.18.09-.42.12-.63l-2.08,4.29s.09,0,.14,0h0a2.25,2.25,0,0,1,.07.68c-.05.19-.16.23-.3.17a.59.59,0,0,1,0-.45l0-.29-.76,1.58-10.51.76L5.85,17.43a.28.28,0,0,1-.38.21s0,0-.08-.06a.19.19,0,0,0,0,.13s0,0,0,0l.44.66.15.05a1,1,0,0,1,0,.1l2.19,3.24,2.29-.16c.09,0,.21-.06.27-.13.12-.58.47,0,.66-.24-.12.2-.36,0-.46.28v.05l8.38-.6,1.59-3.29a.2.2,0,0,1-.08,0c0-.23,0-.42,0-.61s.2-.42.45-.39l0,.11.52-1.08A.25.25,0,0,0,21.63,15.73Z"/><path class="cls-1" d="M24.08,10.83c0,.11,0,.24,0,.35l.12-.24Z"/><path class="cls-1" d="M2.73,13.81a.31.31,0,0,1,.33-.14.25.25,0,0,1,0,.18C3,14,3,14,2.89,14l.45.66c.18-.17-.11-.57.2-.68l-1-1.52,1.05-2.16a.28.28,0,0,1,0-.09c0-.09,0-.18.12-.18h0L4,9.36l0,0c-.23-.18,0-.29.08-.43a1.2,1.2,0,0,0,0-.2C4,8.63,3.9,8.54,4,8.37c0,0,.09,0,.14,0s.14-.58.4-.14l.07,0,.36-.75c0-.17-.09-.35-.13-.53.13,0,.18.08.23.18l0,0,.07,0L5.19,7a.31.31,0,0,1-.12-.34h.28L7.11,3l10.5-.76,4.07,6a.32.32,0,0,1,.2-.28.32.32,0,0,1-.08.46L23.52,11l-1.6,3.31a.2.2,0,0,1,.08-.08.32.32,0,0,1,.3.19.67.67,0,0,1,0,.31l1.59-3.28a2.24,2.24,0,0,1-.05-.9h0L23,9.23a.17.17,0,0,1-.14.14s-.09-.09-.09-.11a.7.7,0,0,1,.13-.17h0L18.49,2.58s0,0,0,.06c-.08-.15-.17-.3-.23-.43l-.35-.52-.77.06a1,1,0,0,1-.3.4.37.37,0,0,1-.32-.32.08.08,0,0,0,0,0L6.75,2.5,2.08,12.13a.53.53,0,0,1-.05.25l0,0-.1.2ZM19.17,3.94c.1,0,.13.06.13.15a.78.78,0,0,1-.06.19.66.66,0,0,1-.1-.17A.29.29,0,0,1,19.17,3.94Z"/><path class="cls-1" d="M23.74,8.57l1.55,2.29-.9,1.86a.75.75,0,0,0,.15.31c0-.22,0-.46.19-.61.15.3,0,.61.05.91l0,0v0L26,10.8,24.6,8.69a.2.2,0,0,0-.18.12c-.2-.16-.22-.19,0-.36l-.68-1a.55.55,0,0,1-.11.15Zm1,.66.21.15c0,.09,0,.2-.11.18S24.77,9.35,24.78,9.23Z"/><path class="cls-1" d="M4.93,19.61l0,0c0-.1,0-.27-.15-.31a.39.39,0,0,0-.21.17l.4.58S5,20,5,20C4.85,19.94,5,19.74,4.93,19.61Z"/><path class="cls-1" d="M20.76,20.38a.36.36,0,0,1,.06-.24l.09-.12h0l0,0-.16.33A.18.18,0,0,0,20.76,20.38Z"/><path class="cls-1" d="M22.68,16.9l.1-.11a1.48,1.48,0,0,1,0-.21.7.7,0,0,0-.15-.24l-.37.75A2.17,2.17,0,0,0,22.68,16.9Z"/><path class="cls-1" d="M3.58,17.83s0-.09,0-.12.11-.41.23-.48l-.55-.8c-.07.24-.22.46-.29.72l.78,1.14v-.18C3.76,18,3.71,17.86,3.58,17.83Z"/><path class="cls-1" d="M14.59.94,15.71.86a.33.33,0,0,1,.17-.1h0V.85L18.39.67l5,7.41a1.41,1.41,0,0,1,0-.5c0-.18,0-.36-.05-.54h.11l-.17-.24,0,0a.49.49,0,0,1-.1-.25l-.27-.39h-.31c-.57,0-.14-.49-.23-.73l.06.06h0l-.53-.79c0,.09-.06.17-.16.14a.4.4,0,0,1-.15-.31.22.22,0,0,1,.08-.16L18.71,0,16.86.13a.18.18,0,0,1-.12.11s-.07,0-.07-.09L14.48.31A1.38,1.38,0,0,1,14.59.94Zm6.77,3.64c.09.14.19.28,0,.43C21.21,4.86,21.18,4.72,21.36,4.58ZM20.23,3h0c.18.12.52.14.2.54l-.21-.17a.26.26,0,0,1,0-.37Z"/><path class="cls-1" d="M24.29,13.49a.85.85,0,0,1-.11-.34l-.49,1c.23-.13,0,.29.12.37s-.1.29-.24.2a.22.22,0,0,1-.09-.13L23,15.7h0c.27.14.17.48,0,.75s.1.15.17.21l1.2-2.47c-.08-.23,0-.49-.09-.72Z"/><path class="cls-1" d="M22.2,18.49a.27.27,0,0,0,0-.12l-.32.13c0,.12-.13.13-.22.15l0,.26c.06.24.07.44-.22.41s-.19.22-.17.4a.12.12,0,0,1,0,.14L21,20l-.09.55a5,5,0,0,0-.17,1.09l1.5-3.09v0Z"/><path class="cls-1" d="M4.72,18.94a.47.47,0,0,1,0-.36l-.61-.9A1.32,1.32,0,0,1,4,18c0,.16.15.15.21.26h.09c.36.27,0,.59,0,.88l.11.17.08-.11Z"/><path class="cls-1" d="M19.74,22.05a.31.31,0,0,0,0-.1l-6.79.49a.78.78,0,0,0,0,.27,1.12,1.12,0,0,0-.08-.26l-5.15.37-2.51-3.7v.08c0,.14.08.28.11.42s.23.25,0,.41-.18.23,0,.33.18.21.13.31l1.91,2.82h.11c.08-.1.16-.15.24,0l.71-.05c.09-.23.15-.22.79-.1l0,.05,10.44-.76a.74.74,0,0,0,.16-.3A1,1,0,0,0,19.74,22.05Z"/><path class="cls-1" d="M2.88,15.93a.2.2,0,0,0,0-.08l-2-2.94H.86c-.14,0-.16-.14-.12-.27h0v0L.8,12.5,2.07,9.89c0-.18,0-.35,0-.52l0-.42A.6.6,0,0,1,2,8.5L.5,11.65a.33.33,0,0,1-.11.26v0l-.39.8,2.73,4a.43.43,0,0,0,0-.11C2.91,16.41,2.84,16.15,2.88,15.93Z"/><path class="cls-1" d="M2.66,8.4a1.83,1.83,0,0,1-.18.65l.75-1.56a.78.78,0,0,1-.09-.33c0-.1-.15-.14-.1-.31s.34,0,.51-.07h0L4.44,5a.11.11,0,0,1,0-.07c0-.1,0-.22.15-.21l.5-1h0a1.83,1.83,0,0,1,.21-1c0-.13,0-.31.23-.39a1.92,1.92,0,0,0,.09.32l.51-1L14.26,1a.68.68,0,0,1,.16-.66l-.28,0a.06.06,0,0,1,0,0c-.05.11-.05.3-.2.24s-.2-.14-.2-.21,0,0,0,0l-5,.36L8.69.77s0,0,0,0l-3,.21-3,6.2A7.53,7.53,0,0,0,2.66,8.4ZM5.45,1.52s.12,0,.13.07a.25.25,0,0,1-.08.29c-.09,0-.1,0-.1-.1S5.44,1.61,5.45,1.52Z"/><path class="cls-1" d="M13.58,15.57l.33.14c.06-.3.31-.13.48-.21a1.7,1.7,0,0,1-.08.37l.65.27-.07-.85a.57.57,0,0,0-.32-.48l-.81-.31a1.43,1.43,0,0,0,0-.22c-.07.05-.16,0-.27,0s-.39-.06-.26-.39c.14-.11.28-.24.43,0a.31.31,0,0,0,0,.1l.15.05c0-.28,0-.6.05-.9-.06,0-.12.08-.14.06s0-.21,0-.32a.14.14,0,0,1,.11,0c0-.51,0-.92,0-.92l1.32.33c-.06-.14,0-.31,0-.46h.07s-.05,0-.07,0c0-.17,0-.33-.06-.69.18.33.29.48.13.7,0,.16.12.3.1.5l1.47.36L16.82,12a.88.88,0,0,0-.25-.54.63.63,0,0,0-.11.12c-.08.16-.17.29-.35.26a.42.42,0,0,1-.14-.49c0-.16.18,0,.26.06l.21,0,0,0a1.18,1.18,0,0,0-.19-.11L15,10.74a.06.06,0,0,1,0,0c0,.29-.3.22-.43.37l.18.18c.12,0,.31-.08.31.13s-.15.12-.25.1-.07.3-.24.22-.23.41-.33,0c0-.14-.15-.38.16-.32l.06-.35c-.05-.07,0-.11,0-.15s.17-.28.31-.32L14,10.32a.91.91,0,0,1,0,.23.1.1,0,0,1-.18,0,.58.58,0,0,1-.07-.47,7,7,0,0,0-.11-.89.22.22,0,0,1-.07-.09.25.25,0,0,1,0-.07c-.32-1.57-.88-1.81-.88-1.81a.86.86,0,0,0-.28.38c.11,0,.23,0,.34,0l0,.17L12.22,8a6.79,6.79,0,0,0-.13,2.32l-.36.21.15.06a.5.5,0,0,1,.24.56.27.27,0,0,1-.47-.05.29.29,0,0,0-.21-.14.46.46,0,0,1,.09-.31L9.7,11.75a.86.86,0,0,0-.43.82l.05.69.91-.38a5.4,5.4,0,0,0,0-.7c0-.21-.08-.46,0-.57s.15.31.36.26a.16.16,0,0,1-.05.23.31.31,0,0,0-.07.39,2.6,2.6,0,0,1,0,.26l1.61-.68a16.25,16.25,0,0,0,.52,2.52l-.74.42a.58.58,0,0,0-.25.52v.25s.05.05.05.14l0,.05,0,.42,1.55-.94.21.09.08-.07A.33.33,0,0,0,13.58,15.57Zm-2.24-3.46c-.07.07-.13.19-.25.12,0-.44,0-.44.53-.29C11.59,12.16,11.43,12,11.34,12.11Zm.91,3.51c0,.06-.09.11-.15.19a.63.63,0,0,1-.09-.14.18.18,0,0,1,.13-.17C12.22,15.48,12.3,15.49,12.25,15.62Zm1-6c.14,0,.19.09.2.24s-.15.13-.17.11S13.27,9.77,13.27,9.65Zm0,.3a.19.19,0,0,1,.09.12c0,.08-.05.08-.16.08a.55.55,0,0,1,0-.12C13.14,10,13.18,9.92,13.23,10Zm-.66.65c.1-.29.3,0,.43-.11a.23.23,0,0,1-.09.25Zm.35.27c.13-.14.25-.31.44-.12,0,0,0,0,0,.06l.24,0v0h0c0-.19.06-.37.28-.27s.18.14.14.25-.24.11-.38.08c0,.31-.17.36-.39.28C13,11.33,12.84,11.25,12.92,10.87Zm.49,2.66a.21.21,0,0,1-.12.21L13,13.55C13.14,13.31,13.27,13.58,13.41,13.53Z"/><path class="cls-1" d="M9.48,6.63c.15-.07.26,0,.36.13s0,.17,0,.25l2.2-.16a.43.43,0,0,0,0,0c0-.08,0-.13.08-.11a.22.22,0,0,1,.12.11v0l.39,0a.86.86,0,0,1,.12-.39c.06.14.13.26.17.37l4.77-.34,0-.55-3.15.23v.14c0,.09,0,.19-.12.17s-.15-.15-.13-.27v0L10,6.44a.18.18,0,0,1,0,.07l-.05-.06-2.73.2,0,.55L9.57,7A.56.56,0,0,1,9.48,6.63Z"/><path class="cls-1" d="M18.42,16.22l-.24,0a.36.36,0,0,1,0,.23,1.26,1.26,0,0,0-.1.33l.37,0Z"/><path class="cls-1" d="M17.93,16.34a.19.19,0,0,1,0-.08L14,16.54l.06.08a.1.1,0,0,1-.09,0c0,.12,0,.25-.1.35,0-.14-.11-.27-.16-.4v-.05L7.93,17l0,.55,5.28-.38V17l.12-.15c.09.05.1.14.11.24l4.37-.32A.49.49,0,0,0,17.93,16.34Z"/><path class="cls-1" d="M5.73,10.54H5.66l-.3.75-1.31.28,1,.87-.14,1.33,1.14-.71,1.23.54L7,12.31l.89-1-1.34-.1-.68-1.15-.05.12a0,0,0,0,1,0,0C5.85,10.34,5.87,10.5,5.73,10.54Zm1,1.59c.15.06.18.14.18.23s-.07.17-.14.11a.29.29,0,0,1-.08-.22A.31.31,0,0,1,6.71,12.13Z"/><path class="cls-1" d="M20.21,10.2c-.16.13-.15.36-.22.53.17.49-.15.57-.41.7-.17.43-.35.58-.5,0h0c-.2-.21-.29-.21-.35-.11l.18.15-.13,1.33.77-.48-.09-.18a.41.41,0,0,1,.28.07l.18-.12,1.23.54-.32-1.3.89-1-1.34-.1-.07-.13A.29.29,0,0,1,20.21,10.2Z"/><path class="cls-1" d="M18.08,10.74a.89.89,0,0,1,.23-.13c.31-.23.58-.29.65.31,0,.13.16.23.24.35.29-.06.44-.4.7-.52a.9.9,0,0,1,.09-.7c.07-.09.13-.17.21-.14l-.5-.86-.5,1.25-1.31.28Z"/></g></g></svg>