<svg xmlns="http://www.w3.org/2000/svg" viewBox="0 0 22.7 23.09"><defs><style>.cls-1{fill:#2f444f;}</style></defs><g id="레이어_2" data-name="레이어 2"><g id="_迹_1" data-name="卵迹_1"><path class="cls-1" d="M9.6,8.66l.06,0V8.59S9.61,8.63,9.6,8.66Z"/><path class="cls-1" d="M7.27,8.6a.44.44,0,0,1,.25.25h0V8.26a1.33,1.33,0,0,0,0-.29.74.74,0,0,1,0-.26.25.25,0,0,0,0-.12.11.11,0,0,1,0-.12c0-.07,0-.12,0-.15a.36.36,0,0,1,0-.09l.06-.05.1-.06a.38.38,0,0,1,0-.1V7c-.06,0-.1,0-.11.06l-.06.1H7.54V7.08s0,0,0,0,0-.16,0-.19a.1.1,0,0,0-.09,0H7.31a.2.2,0,0,1-.14,0l-.06,0,0,0V7.2c0,.12,0,.23,0,.35v.71s0,.05,0,.08l0,.12s0,.09,0,.14v0l0-.07Z"/><path class="cls-1" d="M7.14,9.06A.17.17,0,0,0,7,9V9a.16.16,0,0,0,.06.08.15.15,0,0,0,0,.07.64.64,0,0,1,0,.07l0,0a.11.11,0,0,0,0,.08A.24.24,0,0,1,7,9.4a.31.31,0,0,1,0,.08.1.1,0,0,1,0,.08.5.5,0,0,0,0,.13s0,0,0,0h.15c0,.12,0,.13-.11.15h0l0,.07.06.06v.07s0,.06.09.09l.14.11.15.1.12.06a.08.08,0,0,0,.07,0h.1l.08,0h.06a.08.08,0,0,1,0,0v0l.12,0h.09l.1,0h.11l0,0,0,0,0,0h.05l.05,0,0,0a1.31,1.31,0,0,1,.28-.09l.09,0c0-.06,0-.13,0-.19a.12.12,0,0,1,.14.1.3.3,0,0,0,.09-.1A.33.33,0,0,0,9.47,10V9.88a.36.36,0,0,1,.07-.09.34.34,0,0,0,.09-.12.16.16,0,0,0,0-.1.69.69,0,0,0,0-.13l0-.11a.15.15,0,0,1,0-.06c-.05.08-.09.16-.17,0S9.24,9,9.5,9v-.3c-.05,0,0-.09,0-.12s.09-.19.14-.26a.59.59,0,0,1,0-.14.51.51,0,0,1,0-.13.46.46,0,0,1,0-.09.28.28,0,0,0,0-.09l0-.07a.28.28,0,0,1,0-.09.35.35,0,0,1,0-.12.08.08,0,0,0,0-.08l0,0a.43.43,0,0,0,0,0s0,0,0-.06V7.05a.31.31,0,0,0,0-.2H9.41l-.07,0a.09.09,0,0,0-.06,0l0,0c0,.21,0,.45,0,.72s0,.53,0,.8a.86.86,0,0,1,0,.16v.16a.59.59,0,0,0,0,.14.17.17,0,0,0,.06.1s0,.06,0,.07l0,0s0,0,0,0a0,0,0,0,1,0,0,.14.14,0,0,1,0,.09.29.29,0,0,1,0,.09.29.29,0,0,0,0,.09.15.15,0,0,0,0,.07h0a.56.56,0,0,1,0,.07l0,0,0,0,0,0v.14s0,0,0,0H9.07a.26.26,0,0,0,0,.07L9,9.93l-.1.06-.1.07-.06,0a.62.62,0,0,1-.22,0l-.29,0a1.28,1.28,0,0,1-.27,0A.52.52,0,0,1,7.79,10l0,0-.08-.09-.08-.08,0,0v-.1a.17.17,0,0,0-.06-.06l0-.07V9.13A.27.27,0,0,1,7.14,9.06Zm.07.21h0v0h0Zm.07.44H7.2l0-.08h.06s0,0,0,0A.2.2,0,0,0,7.28,9.71Zm2.2-.16v0h0s0,0,0,0Zm-.06-.19h0v0h0Zm-.05.3v0h0c.07,0,.12,0,.15.08s0,.09-.06.11-.12,0-.16-.09,0,0,0-.06Zm-.08.05h0v0H9.28S9.3,9.71,9.29,9.71Zm-.08.06h0v0h0Zm-.55.54v0s0,0,0,0,0,0,0,0Zm-.09.1h0v0h0ZM8,10.35H8v0h0a.09.09,0,0,1,0-.05Zm-.56-.56h0v0l0,0v0Z"/><path class="cls-1" d="M7.67,7.43h0a.19.19,0,0,0,0,.1.17.17,0,0,0,.1.09h0l0,0a.17.17,0,0,0-.06-.1Z"/><path class="cls-1" d="M7.79,7.91h0a1.42,1.42,0,0,0,0,.19v.21a1.15,1.15,0,0,1,0,.19.19.19,0,0,1,0,.11.14.14,0,0,0,0,.09l0,.06s0,0,0,0l0,0,0,0h.17v0l0-.05,0,0a.22.22,0,0,1,0-.1h0c.06,0,.1,0,.12,0a.09.09,0,0,0,0-.06s0-.06,0-.08a.18.18,0,0,1,.07-.09.18.18,0,0,1,0-.06l0,0H8a.17.17,0,0,1-.13,0,.14.14,0,0,1,0-.07.36.36,0,0,1,0-.11s0-.07,0-.11Zm0,.56v0h0v.06h0v0Z"/><polygon class="cls-1" points="8.28 8.83 8.21 8.82 8.21 8.85 8.28 8.85 8.28 8.83"/><path class="cls-1" d="M8.64,8.82H8.58v0h.06a.09.09,0,0,0,.07,0h0v0l0,0,0,0Z"/><path class="cls-1" d="M9,6.94V6.88a.06.06,0,0,1,0,0s0,0,0,0v0H8.93v0l0,0a.1.1,0,0,1,0,.07l0,0a.7.7,0,0,1,0,.21l0,0h0l0-.06A.25.25,0,0,0,9,7,.25.25,0,0,0,9,6.94Z"/><path class="cls-1" d="M8.43,8.4H8.35v0h.05l0,0Z"/><path class="cls-1" d="M10.13,7.52c0,.07,0,.15-.09.13l-.07,0,0,.12,0,0s0,0,0,0l0,0C10,7.91,10,8,10,8s0,.1,0,.15a.32.32,0,0,0,0,.06s0,0,.06.05l.05,0v.07a.05.05,0,0,0,0,0,.07.07,0,0,1,.06,0l0,0s0,0,0,0h0l.06.08h.05l.07.08.08,0s0,0,.07,0l0,0a.05.05,0,0,0,0,0h.19l0,0,0,0h.29l0,0v0h.1L11.5,9l.1.06h.05l0,0,0,0s0,0,.07,0a.1.1,0,0,1,.07,0,.61.61,0,0,1,.15.24.53.53,0,0,1,0,.25.45.45,0,0,1-.11.23.63.63,0,0,1-.21.18l-.07.08h-.17l-.07,0-.06,0h-.1l-.13,0-.15,0s0,0,0,0,0,0-.07,0v-.08a.24.24,0,0,1-.14-.06,1.58,1.58,0,0,1-.15-.12l-.13-.14a.5.5,0,0,1-.1-.13s0,0,0,0,0,0,0,0a.08.08,0,0,1,0-.05l.07,0h0s0,0,0,0l0,0h-.1a0,0,0,0,0,0,0s0,0,0,0H10l-.15.06a.08.08,0,0,0,0,.05s0,0,0,0a.25.25,0,0,1,0,.07.12.12,0,0,0,0,.1A.88.88,0,0,0,10,10l.22.23s0,0,0,0,0,0,0,0a.5.5,0,0,0,.14.08.26.26,0,0,1,.11.1h.08l.07,0h.15v.07a.14.14,0,0,1,.09,0l0,0a.12.12,0,0,0,.13,0l.1,0,.14,0h.14a.94.94,0,0,0,.32-.11.76.76,0,0,0,.24-.18s0,0,0,0l0,0a.37.37,0,0,0,0-.11h.1s0,0,0,0,0,0,0,0h.08a.43.43,0,0,1,0,0V10h.07V9.94l0,0,0,0h0l0,0V9.74s0-.05,0-.05l-.07-.06a.32.32,0,0,1,0-.14.22.22,0,0,0,0-.11.4.4,0,0,0-.12-.22L12.19,9s0-.05,0-.08,0-.05-.08-.05,0,0,0,0v0L12,8.72l-.1-.07.3,0a.63.63,0,0,0,.24,0v0h-.68v0h-.18l0,0h-.07v0h-.15l0,0a.05.05,0,0,0,0,0H11.1l0-.05a.07.07,0,0,0-.05,0h-.09a0,0,0,0,1,0,0v0l-.07,0-.07,0-.06-.08h0l0,0-.06,0A.08.08,0,0,1,10.5,8V8h0v-.1l0-.06a.28.28,0,0,1,0-.08l0,0h0V7.61l.06-.08.07-.08h.05l0,0,0,0a.11.11,0,0,1,.08,0s0,0,.06,0l.06,0,0,0,.11-.06a.36.36,0,0,0,.09-.09l.21,0,.16.06a.57.57,0,0,1,.13.08l.13.09a.28.28,0,0,1,.09.1.15.15,0,0,0,.09.1l.06.07.06.06-.77,0H11a.15.15,0,0,0,.06,0,.05.05,0,0,0,.06.06.09.09,0,0,0,.08-.06h.55l.26,0h.23v0h-.13l.06,0,.09-.06.11-.07s0,0,0,0l0,0s0,0,0,0,0,0,0,0l-.06-.07-.06-.07a.43.43,0,0,0-.09-.1l-.08-.1-.07-.06H12s0,0,0-.06,0,0-.05,0h-.13v0H11.6l0,0h-.1a.11.11,0,0,0,0,0h-.57a.09.09,0,0,0,0,.05h-.19V6.9h-.07a.06.06,0,0,0,0,0,.18.18,0,0,1-.1,0l-.09,0-.05,0-.08.06-.08.07,0,0v.07l0,0,0,0v0C10.15,7.36,10.14,7.45,10.13,7.52ZM10.26,10h0s0-.05,0-.06h.07V10Zm.09.09h0v0h0Zm.07.09h0s0,0,0,0h0Zm.08.07h-.05v0h0Zm.07.07h0v0h.05S10.57,10.29,10.57,10.3Zm.08.09h0v0h0Zm.31-.07h0s0,0,0,0h0Zm.09.07H11l0,0h0Zm.07.08h0v0h0Zm.55-.21,0,0h0v0Zm.13-.1h0v0h0S11.79,10.16,11.8,10.16Zm0-.06v0h0v0ZM12,10h0l0,0s0,0,0,0h0S12,10,12,10ZM12,10h0v0h0Zm.22-.63h0v0h0Zm-.08-.08h0Zm0,.12h0s0,0,0,0h0v0Zm-.07-.2h0v0h0Zm0,.13h0s0,0,0,0h0a.09.09,0,0,1,0-.05ZM12,9.09h0v0l0,0ZM11.94,9h0V9h0Zm0-.07V9h0s0,0,0,0,0,0,0,0v0Zm-.15,0V9h0V9h0A0,0,0,0,0,11.75,9Z"/><path class="cls-1" d="M11.62,6.65l0,0v0h.06Z"/><path class="cls-1" d="M10.7,7.81a.05.05,0,0,0,0,.05h.06l.06,0H11l0,0Z"/><path class="cls-1" d="M11.11,7.77a.08.08,0,0,1,0,0h0v0Z"/><path class="cls-1" d="M10.44,9.55l.07,0s0,.06.05.06a.11.11,0,0,0,.09-.05,1.14,1.14,0,0,1,.27,0h.28l.26,0a.85.85,0,0,0,.23,0v0l-.94,0h-.31Z"/><rect class="cls-1" x="10.64" y="9.44" width="0.03" height="0.03" transform="translate(0.99 19.92) rotate(-88.86)"/><path class="cls-1" d="M10.83,9.3h0l0,0v0S10.81,9.31,10.83,9.3Z"/><path class="cls-1" d="M11.49,8v0h0V8s0,0,0,0Z"/><path class="cls-1" d="M10.66,9.9V9.83h0a0,0,0,0,1,0,0v0h0Z"/><path class="cls-1" d="M14.68,7.45s0,0,0-.06,0,0,0,0h-.05a.12.12,0,0,0,0,.07.56.56,0,0,0,0,.07.11.11,0,0,0,.1.08h0v0s0-.07,0-.07Z"/><path class="cls-1" d="M14.56,7.29h0v0s0,0,0,0S14.57,7.29,14.56,7.29Z"/><rect class="cls-1" x="14.24" y="7.23" width="0.07" height="0.06" transform="translate(6.74 21.39) rotate(-88.88)"/><path class="cls-1" d="M15,7.82v0h0Z"/><path class="cls-1" d="M12.58,10.46h0c.07,0,.12,0,.13-.07v-.12h0A.5.5,0,0,1,12.58,10.46Z"/><path class="cls-1" d="M12.51,9.86a.11.11,0,0,1,0,.11s0,0,0,0a.18.18,0,0,0,0,.11.2.2,0,0,1,0,.11h0a.28.28,0,0,0,0,.12.24.24,0,0,1,0,.14h0c0-.17.1-.23.16-.33h0l.25-.34.19-.21c.09-.1.07-.33.26-.32a.43.43,0,0,1,0-.07h-.21s0,0,0,0a.22.22,0,0,1,0-.08v0c-.06.09-.18.06-.25.13,0-.16.06-.31.22-.3,0,0,0,0,0,0h.1a.2.2,0,0,0,0-.09s0-.07,0-.08l0,0h.06a.23.23,0,0,0,0-.07.05.05,0,0,0,0,0c0-.06,0-.09,0-.1s.05,0,.08-.07v0s0,0,0,0l.05,0V8.32l0,0V8.12L13.58,8a.35.35,0,0,1,.06-.09.26.26,0,0,1,.17-.11s.08.07.12.22l.06.19.06.21a1.21,1.21,0,0,0,0,.18.63.63,0,0,0,.07.12v.06l0,0A.81.81,0,0,1,14.2,9l.06.14s0,0,0,0,0,0,0,0V9.11l-.08.07-.08,0h.07V9.3H14.1s0,0,0,0l-.07,0-.11,0a.17.17,0,0,0-.14,0,.11.11,0,0,0,0,0h-.07s0,0-.05,0h-.06l-.14.14-.15.27h.36l.12,0H14v0h.26l0,0s0,0,0,0h.06a.19.19,0,0,1,.07.08l.06.09v.14a.61.61,0,0,0,.07.1.58.58,0,0,1,.05.14h.07v0h0v0h0l.08,0h0v.06h.08a.05.05,0,0,1,0,0H15l0,0a2.42,2.42,0,0,0,0-.38.28.28,0,0,0-.13-.25.54.54,0,0,1,0-.08l0,0c0-.05,0-.07,0-.08s0,0,0,0a.08.08,0,0,1,0-.07.11.11,0,0,0,0-.05s0,0,0-.06l0,0v-.1l0,0,0,0,0-.11A.66.66,0,0,0,14.66,9a.18.18,0,0,0-.09-.1c0-.05,0-.08,0-.09l.05,0,0,0h-.05l0-.1a.15.15,0,0,0,0-.13h0V8.41l0,0,0,0V8.18l-.05,0,0,0s0,0,0-.06a.08.08,0,0,1,0-.05s0,0,0-.06l0,0h0l0,0a.09.09,0,0,1,0-.1.2.2,0,0,0,0-.11l-.05,0V7.58l0,0v0h0l0,0v-.3l0,0,0,0V7.08L14.09,7A.18.18,0,0,0,14,6.94h-.31c-.19,0-.29,0-.29.12l0,.1,0,0,0,0v.1h0l0,0a.23.23,0,0,1,0,.07.5.5,0,0,1,0,.12,1,1,0,0,1,0,.12.13.13,0,0,1,0,.08l0,0v.13s0,0,0,.05l0,0v.17l-.05,0v.14l0,0v.06h0v.14l0,0h0a.29.29,0,0,1,0,.13.15.15,0,0,1-.06.09v0s0,0,0,0a.25.25,0,0,1,0,.1s0,0,0,0l0,0a.05.05,0,0,0,0,0v.15h0l0,0a.14.14,0,0,0,0,.11.08.08,0,0,1,0,.1s0,0,0,0h0v.17l-.09.08A.19.19,0,0,0,12.51,9.86Zm0,.42h0v0h0Zm2-.54h0v0h0v.05Zm.06.12h0v0h0Zm.11-.17,0,0h0v0Zm.09.24V10H14.7V9.93Zm-.11-.36,0,0,0,0,0,0a.05.05,0,0,0,0,0h0A.06.06,0,0,1,14.64,9.57Zm0,.18v0h0v0h.05Zm-.09-.55c0,.13.13.25,0,.39-.18-.08-.08-.27-.12-.41Zm-.26-.55c.23.13,0,.39.12.55C14.21,9.07,14.22,8.87,14.29,8.65ZM12.63,9.94h0v0h0Z"/><polygon class="cls-1" points="12.83 7.62 12.79 7.62 12.78 7.66 12.83 7.66 12.83 7.62"/><path class="cls-1" d="M13.8,8.32h-.07v0h.07Z"/><rect class="cls-1" x="12.63" y="7.86" width="0.03" height="0.03" transform="translate(4.52 20.35) rotate(-88.86)"/><path class="cls-1" d="M14.29,6.83s0,0,0,0l0,0s0,0,0,0S14.27,6.84,14.29,6.83Z"/><polygon class="cls-1" points="12.3 8.79 12.35 8.79 12.36 8.76 12.3 8.76 12.3 8.79"/><path class="cls-1" d="M8.6,12.29l0-.07h0a0,0,0,0,1,0,0,0,0,0,0,0,0,0,.18.18,0,0,0-.05-.07l-.1-.13a1.14,1.14,0,0,0-.11-.11.22.22,0,0,0-.07-.07H8.17a.05.05,0,0,1,0,0l0,0a.14.14,0,0,0-.11,0,.2.2,0,0,1-.11,0,.13.13,0,0,1,0,0H7.62l-.1,0a.15.15,0,0,0-.08,0l-.09,0a.14.14,0,0,1-.11,0l0,0a.08.08,0,0,0-.07,0l-.06,0H7s0,0,0,0H6.25a.53.53,0,0,0-.2,0,.16.16,0,0,0,0,.1.08.08,0,0,1,0,.07L6,13v.28a.25.25,0,0,0,.08.2V14l0,0h0a.16.16,0,0,0,0,.1.28.28,0,0,0,0,.09v.09a.1.1,0,0,1,0,.07.38.38,0,0,0,0,.1H6.1a.69.69,0,0,1,0,.1.13.13,0,0,0,0,.12s0,0,0,0,0,0,0,.09h.08a.64.64,0,0,1,0,.07.13.13,0,0,0,0,.06h0l0,0,0,0h0a.05.05,0,0,1,0,0v.08h.11a.08.08,0,0,0,.07,0V15h0l0,0,0-.05s0,0,0,0a.31.31,0,0,0,0-.08v-.1a.15.15,0,0,1,0-.08l0,0h0v0h1v0l-.93,0H6.51s0,0,0-.06a.2.2,0,0,1,0-.07h0s0,0,0-.07a.09.09,0,0,1,0-.05s0,0,0,0a.18.18,0,0,0,0-.13c0-.06,0-.09,0-.1v0l.06,0,.06,0,.07,0,0-.05h.51v-.05a0,0,0,0,0,0,0,.1.1,0,0,1,.11.08h.06l0,0h.14s0,0,0,0,0,0,0,0,0,0,0,0v0h.13A.16.16,0,0,0,8,13.79a.23.23,0,0,1,.12,0v0a.05.05,0,0,1,0,0h.1l.08-.08.08-.09,0,0v-.09l.07,0,0-.07s0,0,0-.07,0,0,0,0l.06,0a.39.39,0,0,0,0-.14.14.14,0,0,1,0-.15h0v-.32h0v-.1h0A.13.13,0,0,1,8.6,12.29ZM6.23,13.57h0v0Zm.06,1.15h0v-.05h0Zm0-1.09h0a0,0,0,0,1,0,0s0,0,0,0v0a.08.08,0,0,0,0,0H6.31s0,0,0,0Zm0,.3s0,0,0,0l0,0,0,0s0,0,0,0H6.4Zm.16-.07H6.42a.26.26,0,0,1,0-.14l0,0,0,0A.37.37,0,0,1,6.5,13.86Zm.17-.25a.09.09,0,0,0,0,.06h0l0-.07.06,0h0S6.69,13.61,6.67,13.61Zm.46.22h0l0,0v-.05l0,0,0,0Zm1-.93V13h.08v0H8.18s0,0,0,0,0,0,0,0l0,0-.05,0,0,.08s0,0-.05.06l0,0,0,0s0,0,0,0,0,0,0,0l-.08,0-.14,0-.16,0-.12,0v-.05H7.35l0,0-.07,0a.12.12,0,0,1-.08,0v0a.18.18,0,0,0-.16,0l-.12,0s0-.06,0-.11a.14.14,0,0,1-.09,0l-.09,0h0v-.1h0l0,0s0,0,0-.08V13s0-.09,0-.13,0-.08,0-.11h0v0a.06.06,0,0,0,0-.08.06.06,0,0,1,0,0v-.29a.07.07,0,0,1,.07-.06s0-.05,0-.06l0,0a.1.1,0,0,1,0-.07s0,0,0-.05l0,0s0,0,0,0A.21.21,0,0,0,6.87,12l.08-.1.06,0,.06,0h.06a.1.1,0,0,0,0,0c.05,0,.07,0,.07,0s0,0,0,.06h.16v0a.13.13,0,0,1,.11,0l.06,0h.1v0h.07a.06.06,0,0,1,0,0h.06a.53.53,0,0,1,.16.17.7.7,0,0,0,.13.19v.06l0,0a.12.12,0,0,0,0,.05s0,0,0,0v.05l0,0c.05,0,.12,0,.1.08a.66.66,0,0,1-.1.18l0,0S8.18,12.89,8.17,12.9Zm.16,0h0v0h0v0Zm.19.05h0v0h0Z"/><path class="cls-1" d="M8.2,11.39v0l0,0h0s0,0,0,0H8.2Z"/><path class="cls-1" d="M6.82,12.71H6.68s0,0,.07,0,0,.06,0,.06a.1.1,0,0,0,.08-.05h.21v0h.83v0l-.93,0Z"/><path class="cls-1" d="M6.71,13h0v.08s0,.05,0,.07H6.8a.29.29,0,0,0,0-.1Z"/><path class="cls-1" d="M7,12.53s0-.09.06-.1a.27.27,0,0,0,.07-.08h.12v.06h.08l0,0h0l0,0v-.06l-.06,0a.28.28,0,0,0-.14,0,.36.36,0,0,0-.06.11H6.86a.05.05,0,0,1-.05,0H6.7l0,.06.07,0v.09l.07,0Z"/><path class="cls-1" d="M6.81,12.61V12.5H6.75s0,0,0,0a.09.09,0,0,0,0,.07.2.2,0,0,1,0,.08.28.28,0,0,0,0,.09l.08,0S6.77,12.63,6.81,12.61Z"/><path class="cls-1" d="M11.71,12.89l-.05-.1a.17.17,0,0,0-.07-.09c0-.08,0-.12,0-.13l.1,0a.13.13,0,0,0,0-.09h0l0,0a1.4,1.4,0,0,0-.18-.39,1.08,1.08,0,0,0-.26-.3,1.15,1.15,0,0,0-.38-.2h-.05a.25.25,0,0,1,0,.26,2.37,2.37,0,0,0,.08.31h0a.13.13,0,0,0,.09,0,.44.44,0,0,0,.1.16.91.91,0,0,1,.11.16.31.31,0,0,1,0,.1.49.49,0,0,1,0,.12s0,.08,0,.12a.45.45,0,0,1,0,.08.44.44,0,0,1,0,.13v.16a.86.86,0,0,0,0,.16.22.22,0,0,0,0,.12.18.18,0,0,0,0,.13.17.17,0,0,0,.07.08.25.25,0,0,1,0,.07.1.1,0,0,0,0,.09l0,.06a.67.67,0,0,0,0,.07.28.28,0,0,1,0,.08.22.22,0,0,1,0,.1.25.25,0,0,1,0,.09s0,.05,0,.05v0l0,0a.14.14,0,0,1,0,.06l0,.09-.05.07,0,.05h-.07l-.11.1a.28.28,0,0,1-.1.09c.15,0,.14.14.14.27-.29.09-.15-.14-.15-.27h-.11l-.11,0-.2,0H10c0,.15-.09.26-.23.27s-.14-.15-.13-.24a.23.23,0,0,1,.06-.15l0,0a.52.52,0,0,1-.17-.15,1.4,1.4,0,0,1-.13-.2H9.25v0s0,0,0,0v0h.06v-.19l0,0a.05.05,0,0,1,0,0,.21.21,0,0,1,0-.08l0-.07a.28.28,0,0,0,0-.09.21.21,0,0,0-.05-.11l.07,0,.06,0v-.42c0-.14,0-.27,0-.4a2.9,2.9,0,0,1,.07-.34.62.62,0,0,1,.17-.28l0-.05.06-.06.07,0H10l.08,0v0l0,0h.29l.1,0,.1.05h.05a2.24,2.24,0,0,0,0-.24h.06a0,0,0,0,0-.06,0l0-.29a1.58,1.58,0,0,0-.32,0,.1.1,0,0,1-.09,0l-.11,0H10a.34.34,0,0,0-.14,0v0H9.62l-.15.06-.17.09a.45.45,0,0,0-.18.18.9.9,0,0,0-.12.24,2.68,2.68,0,0,0-.07.27,1.84,1.84,0,0,1-.09.25.08.08,0,0,0,0,.08l0,0a.43.43,0,0,0,0,.05l0,.07,0,.07,0,0a.15.15,0,0,0,0,.08l.06.05a.8.8,0,0,1,0,.11l0,.07v.06s0,0,0,0,0,0,0,0v.34l0,0,0,.05s0,.06,0,.07l-.06,0v.13a.09.09,0,0,0,.07.06.21.21,0,0,1,0,.12.09.09,0,0,0,0,.1,1.12,1.12,0,0,0,.25.44.94.94,0,0,0,.1.1.36.36,0,0,1,.16-.28,1,1,0,0,0,.08.46l0,0a.11.11,0,0,0,.08,0h.08l.08,0h0s0,0,0,0l0,.05H10s0-.05.1,0,0,0,0,.07h0l0,0h.41a.44.44,0,0,0,.19-.07h.05l.1,0,.09-.06.07-.05.09,0,.06,0,0,0,.06-.1,0,0,0,0a.1.1,0,0,0,0-.09.11.11,0,0,1,0-.08.23.23,0,0,1,.05-.07.13.13,0,0,0,.06-.07.1.1,0,0,0,0-.09l0-.06s0,0,0-.06l0,0a.32.32,0,0,0,0-.14.36.36,0,0,1,0-.11s0,0,0,0,0,0,0,0v-.34l.07-.1a.13.13,0,0,0,0-.13l0,0a.21.21,0,0,1,0-.06v-.11a.05.05,0,0,0,0,0,.19.19,0,0,1,.05-.09Zm-2.77.83h0v0a.11.11,0,0,1,0,0h0ZM9,14v0H9a.11.11,0,0,0,0,0Zm.16.5H9.08a.08.08,0,0,0,0,0h0Zm0-.35v0h0v0Zm.07.31h0a.13.13,0,0,1,0-.05h0Zm.73.72h0v0h0S9.92,15.19,9.93,15.19Zm1.27-.73h0v0h0S11.21,14.47,11.2,14.46Zm.09-.06h0v-.05h0Zm.14-.08h0v-.06h0A.08.08,0,0,1,11.43,14.32Z"/><path class="cls-1" d="M11.82,13a.32.32,0,0,0,0-.1.1.1,0,0,0-.06,0s0,0,0,0,0,.05,0,.06l0,0h0l0,0v.2h.11v-.13a.3.3,0,0,0,0-.1Z"/><path class="cls-1" d="M10.74,12.46v.17a1,1,0,0,1,0,.17.34.34,0,0,1,0,.12.18.18,0,0,1-.08.06l-.17.06-.17,0h-.13l0,0,0,0H9.92A.3.3,0,0,1,9.81,13l-.1-.07a.86.86,0,0,0-.06-.23,1.11,1.11,0,0,1-.05-.24l0,0,0,0,0,.34c0,.12,0,.23,0,.35a.62.62,0,0,0,0,.19.16.16,0,0,1,0,.13s0,.05,0,.06,0,0,0,0l.28,0,.31,0,.32,0a.93.93,0,0,0,.29,0l.16,0a.28.28,0,0,1,.15,0h0c0-.09,0-.2,0-.33s0-.24,0-.36V12.6a.56.56,0,0,0-.09-.17.39.39,0,0,1-.1-.16h0a.06.06,0,0,1,0,0l0,0,0,0A.86.86,0,0,0,10.74,12.46Z"/><path class="cls-1" d="M13.54,12.79a0,0,0,0,1,0,0h.05a.08.08,0,0,1,0,0S13.56,12.8,13.54,12.79Z"/><path class="cls-1" d="M12.71,14.68v-.07h0a0,0,0,0,0,0,0v0Z"/><path class="cls-1" d="M12.74,12.58s0,0,0,.06h.12l.06,0h0l-.05,0Z"/><path class="cls-1" d="M13.16,12.54s0,0,0,0h0v0Z"/><path class="cls-1" d="M12.49,14.32l.07,0s0,.06,0,.05.06,0,.09-.05a1.11,1.11,0,0,1,.26,0h.28l.27,0h.23v-.05l-.94,0h-.31Z"/><path class="cls-1" d="M12.88,14.07h0v0S12.86,14.09,12.88,14.07Z"/><rect class="cls-1" x="12.69" y="14.21" width="0.03" height="0.03" transform="translate(-1.77 26.64) rotate(-88.86)"/><path class="cls-1" d="M14.41,12.44h0l0,0v-.05l0,0s0-.05,0-.06l-.06-.07a.25.25,0,0,1-.05-.07l-.09-.1-.09-.1s0-.05-.06-.05h-.06a.15.15,0,0,1,0-.06l0,0h0c-.08.11-.16.12-.23-.05h-.08l0,0h-.1l0,0h-.14c0,.05,0,.1,0,.15s-.14.36-.36.31a.67.67,0,0,1,.13-.47h-.17a.06.06,0,0,0,0,0h-.19l0,0h-.06s0,0,0,0a.16.16,0,0,1-.1,0,.1.1,0,0,0-.09,0l0,0-.08.07-.08.06,0,0V12l-.05,0s0,0,0,0a.11.11,0,0,1,0,0,.08.08,0,0,1,0,0,0,0,0,0,1,0,0h0L12,12.5s0,0,0,0,0,0,0,.06h0a1.12,1.12,0,0,0,0,.21.61.61,0,0,0,0,.15s0,.07,0,.07,0,0,.05,0l.06,0v.07s0,0,.05,0l.06,0,0,0s0,0,0,0h.06l.05.07h.06l.07.09.07,0,.07,0a.05.05,0,0,1,0,0l0,0H13l0,0s0,0,0,0h.3v0l0,0h.1l.1.06.1.06h.06l0,0s0,0,0,0a.12.12,0,0,0,.08,0l.07,0a.52.52,0,0,1,0,.72.79.79,0,0,1-.22.18.29.29,0,0,1-.07.08h-.17l-.06,0-.06,0h-.1l-.09,0c-.06.07-.16,0-.23,0h0v-.07l-.15-.06-.14-.13a1.85,1.85,0,0,1-.14-.14l-.1-.12,0-.05,0,0a.11.11,0,0,1,0-.06h.11l0,0h-.05v0h-.07v-.06h-.21a.24.24,0,0,0-.14,0,.43.43,0,0,0,0,.05.07.07,0,0,1,0,0,.17.17,0,0,1,0,.07.09.09,0,0,0,0,.1,1,1,0,0,0,.17.27l.22.23s0,0,0,0l0,0a.42.42,0,0,0,.13.07.35.35,0,0,1,.12.1h.19a.08.08,0,0,1,.11-.06.14.14,0,0,1,.1.15l0,0a.15.15,0,0,0,.13,0,.16.16,0,0,1,.1,0h.28a1.35,1.35,0,0,0,.32-.11,1,1,0,0,0,.24-.19s0,0,0,0l0,0a.43.43,0,0,0,0-.12h.1v0l0,0h.07a.09.09,0,0,0,0-.05s0,0,0-.06h.07a0,0,0,0,1,0,0v0a.06.06,0,0,1,0-.06h.07l0,0v-.09l0-.06-.07-.05a.37.37,0,0,1,0-.15.23.23,0,0,0,0-.11.66.66,0,0,0-.12-.22l-.17-.18a.14.14,0,0,1-.05-.08s0,0-.07-.05v0s0,0,0,0l-.09-.06-.1-.06.29,0h.25v0h-.68v0h-.19v0h-.07v0s0,0,0,0h-.14l0,0,0,0h-.14l-.05,0,0,0H13v0l0,0-.07,0a.07.07,0,0,1-.06,0l-.06-.07h-.06v0l-.06-.05-.06,0v-.07h0v-.11s0,0,0-.06a.08.08,0,0,1,0-.08h0v-.06l.06-.09.06-.08h.06l0,0,0,0s.06,0,.08,0,0,0,.07,0l.05,0a.11.11,0,0,1,0,0l.11-.07A.38.38,0,0,0,13.2,12a.66.66,0,0,1,.21,0l.16,0,.13.08.13.09a.23.23,0,0,1,.08.11.19.19,0,0,0,.1.1l.05.06a.19.19,0,0,0,.07.06l-.77,0h-.31l.07.05s0,.06.05,0a.11.11,0,0,0,.09,0l.26,0,.28,0h.5v-.05h-.13l.06,0,0,0a1.76,1.76,0,0,1-.29-.49C14.24,12.06,14.33,12.26,14.41,12.44ZM12.3,14.75h0a.2.2,0,0,1,0-.05h.08v.07Zm.09.1h0v0h0Zm.07.08h0v0h0Zm.08.08h0v0h.05Zm.07.07h0v0h0Zm.09.08h0l0,0,0,0ZM13,15.1h0v0h0Zm.08.07h0a.08.08,0,0,0,0,0h0Zm.07.07h0v0l0,0h0Zm.56-.21v0h0s0,0,0,0Zm.12-.1h0v0h0s0,0,0,0h0Zm0,0v-.05h0s0,0,0,0Zm.12-.1h0v0l0-.05h0Zm.08-.06h0s0,0,0,0h0Zm.22-.63,0,0v0h0A.08.08,0,0,0,14.3,14.09ZM14.22,14h0a0,0,0,0,0,0,0h0Zm0,.11v0l0,0h0v0Zm-.07-.2h0v0h0Zm0,.13v0h0l0,0Zm-.07-.2h0v0h0S14.07,13.86,14.06,13.86ZM14,13.77h0l0,0s0,0,0,0h0Zm0-.07v0h0l0,0v0a0,0,0,0,0,0,0Zm-.16.05v0h0v0h0Z"/><path class="cls-1" d="M16.47,12.15l0,0a.09.09,0,0,0,.06,0l0,0h0A.43.43,0,0,0,16.47,12.15Z"/><path class="cls-1" d="M16.26,12c-.05-.11-.28,0-.2-.27,0,0,0,0,0-.06h-.91l-.2,0h-.43a.33.33,0,0,0-.15,0v.18a.65.65,0,0,0,0,.13h.08l.05,0h.14l0,0s0,0,0,.05l.16-.05a.23.23,0,0,1,.18,0l0,0,.08,0,.12,0h.21a.49.49,0,0,0,0,.14.18.18,0,0,0,.07.08v.2l0,0s0,0,0,.06a.53.53,0,0,1,0,.26v.31c0,.13,0,.25,0,.34a3,3,0,0,1,0,.32v.15a.14.14,0,0,1,0,.07s0,0,0,0v.42l0,0a.17.17,0,0,1,0,.1l0,.09a.16.16,0,0,0,0,.09.1.1,0,0,0,0,.09l0,0,0,0,.05.1a.56.56,0,0,0,0,.08h.24l0-.06a.17.17,0,0,1,0-.07.07.07,0,0,1,0,0s0,0,0-.05a1.59,1.59,0,0,1,0-.26c0-.11,0-.21,0-.32h.23l.23,0h.4v0l-.86,0c0-.07,0-.13,0-.19v-.47a0,0,0,0,0,0,0s0,0,0,0l0,0,0,0v-.14a3.1,3.1,0,0,1,.43,0h.38v0l-.81,0v-.3c0-.08,0-.18,0-.28a.88.88,0,0,0,0-.24.57.57,0,0,1,0-.13.13.13,0,0,1,0-.1.49.49,0,0,1,0-.14l.05-.09,0,0s0,0,0,0a.33.33,0,0,0,.14-.06.1.1,0,0,0,.06-.05S16.29,12.12,16.26,12Z"/><path class="cls-1" d="M16.43,11.92c.09,0,.21,0,.2.19h.05l.07,0,.05,0s0,0,0,0H17l0,0,.07-.05a1,1,0,0,0,0-.17.29.29,0,0,0,0-.13h-.75C16.36,11.8,16.37,11.88,16.43,11.92Z"/><rect class="cls-1" x="16.1" y="12.72" width="0.06" height="0.03" transform="translate(3.09 28.62) rotate(-88.91)"/><path class="cls-1" d="M16.17,12.51s0,.06,0,.06l0,0h.06a.16.16,0,0,0,0-.06l0,0Z"/><rect class="cls-1" x="15.17" y="12.72" width="0.03" height="0.03" transform="translate(2.11 27.64) rotate(-88.71)"/><path class="cls-1" d="M15.34,13.54h.16v0s0,0,0,0h-.41a0,0,0,0,0,0,0l.07,0h.16Z"/><path class="cls-1" d="M15.47,14.46h-.25a.05.05,0,0,0,0,0h.06l.06,0h.1Z"/><path class="cls-1" d="M15.27,12.52s0,0,0,0l0,0h0l0,.05,0,0v.07a.14.14,0,0,0,.09,0Z"/><path class="cls-1" d="M16.59,5.26h0Z"/><path class="cls-1" d="M16.72,5.36l-.14,0V5.27h0c-.1,0-.15-.08-.16-.15a8.38,8.38,0,0,0-.66-.52c-.07,0-.12.16-.23.13a.3.3,0,0,1-.18-.21,1.1,1.1,0,0,1,0-.18,8.45,8.45,0,0,0-4.29-1.26,7,7,0,0,0-.92,0,2.3,2.3,0,0,1,0,.37c.28,0,.55,0,.83,0,0-.09,0-.15.17-.18h0v.18a8.07,8.07,0,0,1,5.37,2.29s0,0,0-.06a.53.53,0,0,1,.18.28A8.14,8.14,0,0,1,18,7.62h0l.09.06h0c.07,0,.17,0,.2.06s0,.15-.11.19,0,0,0,.06c.13.28.25.56.36.86a1.3,1.3,0,0,1,.33-.07l0,0a7.94,7.94,0,0,0-.58-1.3.24.24,0,0,1-.07-.13A8.7,8.7,0,0,0,16.72,5.36Zm.64,1.19c0-.15.11-.12.19-.09a1.15,1.15,0,0,1,0,.19C17.49,6.64,17.37,6.72,17.36,6.55Z"/><path class="cls-1" d="M3.38,8.33H3.5a1.42,1.42,0,0,1,.08-.18l-.08,0c0-.24,0-.31.2-.22A8.13,8.13,0,0,1,10,3.49a.41.41,0,0,1,0-.37,8.48,8.48,0,0,0-3,1l0,0a.34.34,0,0,1-.11,0,8.46,8.46,0,0,0-3.69,4.2A.77.77,0,0,0,3.38,8.33Z"/><path class="cls-1" d="M18.8,9.06a.28.28,0,0,1-.15.06,8.11,8.11,0,0,1-7.89,10.5,8.21,8.21,0,0,1-3.21-.74h0l0,0a8.22,8.22,0,0,1-3.4-3c0,.06-.06.11-.11.14a.58.58,0,0,1-.16,0c0-.19.14-.3.22-.26h0a8,8,0,0,1-1.23-4.46,7.36,7.36,0,0,1,.1-1.16h0s0,0,0,0l0,0v-.09l0-.12c-.06-.11-.18-.15-.26-.24a8.28,8.28,0,0,0-.2,1.66,8.47,8.47,0,0,0,3.45,7l.15.07v0a9,9,0,0,0,1.2.71c.12-.09.31.13.42,0,0,.09-.12.09-.2.11a8.71,8.71,0,0,0,1.33.46s0,0,0,0c.08-.22.21-.14.29,0s0,.1,0,.12a7.91,7.91,0,0,0,1.7.21,8.5,8.5,0,0,0,8.07-5.43.12.12,0,0,1,0-.1.33.33,0,0,1,.09-.11,7.78,7.78,0,0,0,.32-1.17c0-.17,0-.33,0-.5l.07,0c0-.31.07-.63.08-.94a8.92,8.92,0,0,0-.34-2.55C19,9.1,18.89,9,18.8,9.06Z"/><path class="cls-1" d="M15.82,6.45c.17.16.33.33.48.5h.12c0,.09,0,.25.14.12s0,0,0,0a1.51,1.51,0,0,1,0-.37c-.15-.18-.31-.34-.47-.5a1.46,1.46,0,0,1-.2,0C15.89,6.33,15.88,6.42,15.82,6.45Z"/><path class="cls-1" d="M17.13,7.68V7.59a.31.31,0,0,1,0-.2L17,7.2c0,.2-.21.14-.29.25a2.2,2.2,0,0,1,.17.25.31.31,0,0,1,0-.1c.2.05.19.17.12.3l.13.23h0v0l0,.06c.07.08.21.14.13.26a7,7,0,0,1,.69,3.2,6.24,6.24,0,0,1-.1,1.06l0,0c0-.17,0-.35.15-.47.11.23,0,.48,0,.71l0,0a.11.11,0,0,0,.09.07,7.77,7.77,0,0,0,.16-1.38,7.15,7.15,0,0,0-.15-1.61h0c-.12,0-.08-.16-.08-.26l.08.06c0-.15-.07-.3-.11-.45l0,0c-.07,0-.15,0-.19.1-.18-.14-.17-.15.09-.33l.05,0a6.89,6.89,0,0,0-.63-1.38A.21.21,0,0,1,17.13,7.68Z"/><path class="cls-1" d="M18,13.54a.74.74,0,0,1,0,.21.28.28,0,0,0,0,.13c.07-.21.12-.42.17-.63C18,13.29,18,13.43,18,13.54Z"/><path class="cls-1" d="M17.82,13.76h0a1.1,1.1,0,0,1-.07-.44,7.08,7.08,0,0,1-2.68,3.92h0a.2.2,0,0,1,.15.07.1.1,0,0,1-.09.13.15.15,0,0,1-.18-.11s0,0,0,0A7,7,0,0,1,4.76,15l0,0a.32.32,0,0,1,0-.16,7,7,0,0,1,3.22-9.7.68.68,0,0,1,0-.32.35.35,0,0,1,.2.24L8.27,5c0-.1,0-.15.12-.15a.26.26,0,0,1,.14,0,7.13,7.13,0,0,1,2.54-.41,7,7,0,0,1,4.59,1.82.24.24,0,0,1,0-.08c0-.16.13-.17.25-.11a.11.11,0,0,0,.07,0,6.87,6.87,0,0,0-1.13-.86.56.56,0,0,1-.1.18l-.17-.13a.22.22,0,0,1,0-.23,6.63,6.63,0,0,0-1.28-.56.59.59,0,0,1-.05.25L13,4.4a8,8,0,0,0-1-.22l-.14.15a.3.3,0,0,1-.24-.2l-.61,0a7.44,7.44,0,0,0-7.58,7.29,7.37,7.37,0,0,0,1,3.92.32.32,0,0,0,0-.09c0-.13.11,0,.18,0s.14.08.09.21h0l-.06.05a.86.86,0,0,0,0,.17,7.42,7.42,0,0,0,13.07-1.37C17.77,14.19,17.87,13.91,17.82,13.76Z"/><path class="cls-1" d="M10.51,1.25l1.2.94h0V2.06c.26-.08.36,0,.28.33a2.82,2.82,0,0,0,2.09.32l1.83-.43.09,0c0-.18-.07-.37-.1-.55l-.12,0L14,2.17a2.25,2.25,0,0,1-1.74-.3.14.14,0,0,1-.23,0V1.71L10.58.6,10.45.51c0,.13,0,.27.05.4A.34.34,0,0,1,10.51,1.25Z"/><path class="cls-1" d="M3.13,5a.4.4,0,0,0-.08.32l1.06-.26A2.81,2.81,0,0,0,6,3.55L6.8,1.86A2.26,2.26,0,0,1,8.32.62,2.76,2.76,0,0,1,8.89.56,2.22,2.22,0,0,1,10.23,1l.1.07a1.05,1.05,0,0,1,0-.4c0-.1-.13-.26,0-.3A2.74,2.74,0,0,0,8.19.08,2.77,2.77,0,0,0,6.3,1.62L5.66,3A.17.17,0,0,1,5.72,3c0,.09,0,.2-.11.23l0-.09-.07.14A2.24,2.24,0,0,1,4,4.55l-.75.18A.29.29,0,0,1,3.13,5ZM5.58,3.74c0,.11.08.16.07.19a.48.48,0,0,1-.08.16S5.52,4,5.52,4A1.6,1.6,0,0,1,5.58,3.74Z"/><path class="cls-1" d="M17.21,2.35a2.21,2.21,0,0,1,.62.34,2.25,2.25,0,0,1,.86,1.76l0,1.63c.07-.09.13-.23.28-.1s.14-.17.16-.31,0-.33.11-.41V4.44a2.8,2.8,0,0,0-1.08-2.19,2.7,2.7,0,0,0-.59-.35s0,0,0,0A.47.47,0,0,1,17.21,2.35Zm1.68,2.49c.22,0,.13.18.07.31l-.15.09a.11.11,0,0,0,0-.08A.46.46,0,0,1,18.89,4.84Z"/><path class="cls-1" d="M16.34,2.07c.05.05.08.14.17.13A.44.44,0,0,0,16.57,2a2.89,2.89,0,0,0,0-.29H16.3A1,1,0,0,0,16.34,2.07Z"/><path class="cls-1" d="M2.29,5.53l.52-.13a1.25,1.25,0,0,1,.13-.6L2.16,5l-.4.13,0,.1a.21.21,0,0,1,0-.06,2.64,2.64,0,0,0-.47.25l-.06.8A2.19,2.19,0,0,1,2.29,5.53Z"/><path class="cls-1" d="M1.1,17.16c.06.05.14,0,.21,0s0,0,.05,0a2.26,2.26,0,0,1-.51-2.61l.8-1.7A3,3,0,0,0,1.9,12a.29.29,0,0,1-.18,0c-.06,0-.11.1-.18,0a.19.19,0,0,1-.06-.29c.08-.1.18,0,.25.07s.12,0,.18,0a2.8,2.8,0,0,0-.15-1H1.71c-.07,0-.08-.06-.09-.13a.14.14,0,0,1,0-.11.3.3,0,0,0,0-.1L.93,9a1.09,1.09,0,0,0,0,.18c0,.2-.16.44-.19.7l.37.77a2.22,2.22,0,0,1,0,1.95L.35,14.3a2.79,2.79,0,0,0,0,2.44l.09.17a.26.26,0,0,1,.19-.08l0,.2a.3.3,0,0,1,0,.21,3.24,3.24,0,0,0,.36.38l0-.16A.24.24,0,0,1,1.1,17.16Zm.15-3.89a.29.29,0,0,1,0,.14c-.07.21-.19.16-.32.06A.27.27,0,0,1,1.25,13.27Z"/><path class="cls-1" d="M21.7,9.6c-.14,0-.09-.22-.11-.35h0l0,0-.89-.7a.21.21,0,0,1-.25,0l-.32,0c-.18-.1-.36-.22-.53-.3-.34-.14-.35-.34-.2-.65,0-.1,0-.19,0-.27a2.52,2.52,0,0,1-.2-.91V6.18l-.11.06a.17.17,0,0,1-.26,0h0s-.13.1-.19.1v0a2.83,2.83,0,0,0,1.08,2.19l1.48,1.15a2.29,2.29,0,0,1,.87,1.76,2.26,2.26,0,0,1-.84,1.77h0a.43.43,0,0,1,0,.12l0,0h0l0,.18-.18,0c-.07,0-.17.06-.22,0l-1,.84a2.82,2.82,0,0,0-1,2.21l0,1.87a2,2,0,0,1-.1.69v0h0a2.28,2.28,0,0,1-2.63,1.52l-1.83-.4a2.8,2.8,0,0,0-2.38.57L10.44,22a2.24,2.24,0,0,1-1.9.45A2.19,2.19,0,0,1,7,21.28L6.17,19.6a2.8,2.8,0,0,0-1.93-1.5l-1.31-.29,0,.07c0,.11.17.2,0,.33s-.07.11-.07.17l1.21.26a2.27,2.27,0,0,1,1.55,1.21l.82,1.68a2.92,2.92,0,0,0,1.25,1.26l0,0a2.77,2.77,0,0,0,.63.22,2.51,2.51,0,0,0,.55.06,2.71,2.71,0,0,0,1.82-.63l1.46-1.18a2.21,2.21,0,0,1,1.9-.45l1.83.39a2.77,2.77,0,0,0,2.37-.56,2.83,2.83,0,0,0,.48-.5,2.11,2.11,0,0,1,0-.25h0A.14.14,0,0,1,19,20a2.7,2.7,0,0,0,.42-1.5v-.58c-.07.08-.15-.06-.2-.15a5.2,5.2,0,0,1-.14-.88c-.11-.14-.14-.33,0-.43s.13.08.11.2a1.89,1.89,0,0,1,.22.31v-.35a2.26,2.26,0,0,1,.84-1.77l1.45-1.18a2.8,2.8,0,0,0,.22-4.16C21.82,9.53,21.74,9.62,21.7,9.6ZM7.4,22.45a.11.11,0,0,1-.08,0c-.18-.08,0-.27-.08-.38A.28.28,0,0,1,7.4,22.45Z"/><path class="cls-1" d="M2.69,17.88h0a.5.5,0,0,1,0-.13l-.2,0a.27.27,0,0,0-.08.14c-.12,0-.14-.08-.08-.18l0,0a.35.35,0,0,1-.14.39c-.17,0-.33-.07-.49,0h0a2.77,2.77,0,0,0,.63.22l.43.1a.59.59,0,0,1,.06-.14C2.63,18.14,2.73,18,2.69,17.88Z"/><path class="cls-1" d="M.62,8.23A2.27,2.27,0,0,1,.77,6.76l.07-.11c0-.34.06-.68.1-1a2.72,2.72,0,0,0-.67.9A2.79,2.79,0,0,0,.29,9l.15.3a3.5,3.5,0,0,0,.2-.54A2.79,2.79,0,0,1,.62,8.23Z"/></g></g></svg>